<?xml version="1.0" encoding="utf-8"?>
<!-- Generator: Adobe Illustrator 15.0.0, SVG Export Plug-In . SVG Version: 6.00 Build 0)  -->
<!DOCTYPE svg PUBLIC "-//W3C//DTD SVG 1.1//EN" "http://www.w3.org/Graphics/SVG/1.1/DTD/svg11.dtd">
<svg version="1.1" id="РЎР»РѕР№_1" xmlns="http://www.w3.org/2000/svg" xmlns:xlink="http://www.w3.org/1999/xlink" x="0px" y="0px"
	 width="89.334px" height="89.333px" viewBox="0 0 89.334 89.333" enable-background="new 0 0 89.334 89.333" xml:space="preserve">
<g>
	<path d="M45.496,9C25.34,9,9,25.339,9,45.496c0,20.156,16.34,36.495,36.496,36.495c20.155,0,36.494-16.339,36.494-36.495
		C81.99,25.339,65.651,9,45.496,9z M45.496,78.658c-18.315,0-33.163-14.847-33.163-33.162c0-18.315,14.848-33.163,33.163-33.163
		c18.314,0,33.161,14.847,33.161,33.163C78.657,63.811,63.811,78.658,45.496,78.658z"/>
	<path d="M60,46.054l-14.5,4.417L31,46.054V50.4v3.032c0,3.412,6.498,6.177,14.43,6.177c7.929,0,14.47-2.766,14.47-6.177
		c0-0.027,0.101-0.054,0.101-0.08V46.054z"/>
	<path d="M45.495,31.717l-24.06,9.257l5.128,1.834L27,41.873l1.885-0.16l0.268,0.279l-1.616,0.384l-0.235,0.697
		c0,0-3.651,7.633-3.115,11.368c0,0,2.104,1.359,4.383,0L29,44.229v-0.85l3.565-0.764l-0.153,0.589l-2.484,0.822l1.191,0.417
		l14.365,4.418l14.359-4.418l9.708-3.47L45.495,31.717z"/>
</g>
</svg>
