<?xml version="1.0" encoding="UTF-8"?>
<svg xmlns="http://www.w3.org/2000/svg" xmlns:xlink="http://www.w3.org/1999/xlink" width="28px" height="28px" viewBox="0 0 28 27" version="1.1">
<g id="surface1">
<path style=" stroke:none;fill-rule:nonzero;fill-opacity:1;" d="M 13.492188 0.03125 C 13.441406 0.046875 13.15625 0.0703125 12.855469 0.0859375 C 12.25 0.125 11.6875 0.1875 11.324219 0.257812 C 10.460938 0.429688 9.234375 0.785156 8.695312 1.019531 C 8.660156 1.035156 8.527344 1.089844 8.398438 1.144531 C 8.066406 1.277344 7.304688 1.652344 6.980469 1.835938 C 6.71875 1.980469 6.003906 2.433594 5.691406 2.648438 C 4.804688 3.261719 3.632812 4.367188 2.890625 5.300781 C 2.65625 5.597656 2.023438 6.496094 2.023438 6.53125 C 2.023438 6.542969 1.980469 6.609375 1.933594 6.679688 C 1.78125 6.886719 1.296875 7.820312 1.109375 8.257812 C 0.878906 8.808594 0.554688 9.75 0.441406 10.222656 C 0.203125 11.207031 0.144531 11.597656 0.0976562 12.410156 C 0.0820312 12.6875 0.0546875 12.933594 0.0390625 12.949219 C 0 13.003906 -0.0078125 13.933594 0.0273438 14.03125 C 0.046875 14.078125 0.0820312 14.402344 0.109375 14.753906 C 0.195312 15.90625 0.34375 16.609375 0.734375 17.761719 C 1.457031 19.894531 2.761719 21.84375 4.5 23.410156 C 5.195312 24.03125 5.84375 24.503906 6.640625 24.980469 C 6.761719 25.054688 6.910156 25.140625 6.96875 25.175781 C 7.359375 25.414062 8.292969 25.84375 8.898438 26.070312 C 9.613281 26.332031 10.542969 26.59375 11.277344 26.738281 C 12.25 26.929688 13.917969 27.035156 14.746094 26.96875 C 14.960938 26.949219 15.304688 26.921875 15.507812 26.902344 C 16.332031 26.84375 17.464844 26.617188 18.308594 26.347656 C 19.867188 25.851562 21.257812 25.136719 22.5625 24.167969 C 22.808594 23.984375 23.0625 23.789062 23.132812 23.726562 C 24.464844 22.558594 25.316406 21.566406 26.085938 20.28125 C 26.402344 19.761719 26.738281 19.085938 26.980469 18.511719 C 27.441406 17.394531 27.875 15.648438 27.875 14.882812 C 27.875 14.609375 27.933594 14.074219 27.972656 14.039062 C 28.007812 14 28.007812 13.183594 27.972656 13.183594 C 27.941406 13.183594 27.925781 13.050781 27.878906 12.25 C 27.839844 11.597656 27.832031 11.515625 27.730469 11.003906 C 27.375 9.210938 26.714844 7.636719 25.679688 6.105469 C 25.128906 5.296875 24.671875 4.753906 23.917969 4.019531 C 22.773438 2.902344 21.730469 2.171875 20.300781 1.472656 C 19.136719 0.902344 17.921875 0.5 16.691406 0.273438 C 16.25 0.191406 15.992188 0.164062 15.230469 0.105469 C 14.886719 0.0820312 14.605469 0.046875 14.597656 0.03125 C 14.585938 -0.0078125 13.617188 -0.0078125 13.492188 0.03125 Z M 14.605469 0.609375 C 15.453125 0.894531 15.996094 1.742188 15.867188 2.566406 C 15.816406 2.882812 15.738281 3.078125 15.550781 3.347656 C 15.195312 3.863281 14.648438 4.144531 13.992188 4.144531 C 13.464844 4.144531 13.09375 4.007812 12.738281 3.691406 C 12.480469 3.457031 12.328125 3.230469 12.21875 2.921875 C 11.976562 2.234375 12.144531 1.558594 12.691406 1.019531 C 12.886719 0.835938 13.09375 0.71875 13.457031 0.59375 C 13.683594 0.519531 13.734375 0.511719 14.046875 0.523438 C 14.308594 0.53125 14.4375 0.550781 14.605469 0.609375 Z M 13.371094 7.03125 L 13.363281 9.378906 L 13.113281 9.429688 C 11.808594 9.683594 10.722656 10.496094 10.15625 11.636719 C 9.804688 12.347656 9.683594 13 9.757812 13.746094 C 9.855469 14.765625 10.226562 15.554688 10.941406 16.277344 C 11.902344 17.246094 13.339844 17.703125 14.691406 17.476562 C 15.777344 17.289062 16.507812 16.910156 17.179688 16.183594 C 17.582031 15.753906 17.828125 15.339844 18.027344 14.753906 C 18.441406 13.570312 18.285156 12.277344 17.597656 11.222656 C 17.351562 10.84375 16.898438 10.378906 16.558594 10.140625 C 16.082031 9.808594 15.445312 9.542969 14.839844 9.421875 L 14.636719 9.382812 L 14.628906 7.03125 L 14.621094 4.683594 L 14.753906 4.683594 C 15.121094 4.6875 15.917969 4.808594 16.46875 4.953125 C 18.074219 5.367188 19.597656 6.269531 20.746094 7.484375 C 22.039062 8.851562 22.871094 10.597656 23.085938 12.402344 C 23.136719 12.820312 23.15625 13.816406 23.121094 14.234375 C 23.023438 15.40625 22.75 16.351562 22.199219 17.429688 C 21.402344 18.988281 20.152344 20.269531 18.578125 21.152344 C 17.402344 21.8125 16.132812 22.207031 14.855469 22.308594 C 14.363281 22.347656 13.542969 22.347656 13.097656 22.308594 C 12.476562 22.25 11.71875 22.101562 11.167969 21.921875 C 9.300781 21.316406 7.71875 20.203125 6.558594 18.660156 C 5.144531 16.785156 4.550781 14.308594 4.964844 11.988281 C 5.347656 9.835938 6.5 7.972656 8.3125 6.570312 C 9.136719 5.933594 10.066406 5.445312 11.136719 5.09375 C 11.792969 4.882812 12.726562 4.699219 13.214844 4.6875 L 13.378906 4.683594 Z M 13.371094 7.03125" fill="#ce2457"/>
</g>
</svg>
