<?xml version="1.0" encoding="UTF-8"?>
<svg xmlns="http://www.w3.org/2000/svg" xmlns:xlink="http://www.w3.org/1999/xlink" width="28px" height="28px" viewBox="0 0 28 28" version="1.1">
<g id="surface1">
<path style=" stroke:none;fill-rule:nonzero;fill-opacity:1;" d="M 13.753906 0.0195312 C 13.746094 0.03125 13.609375 0.0390625 13.453125 0.0351562 C 13.296875 0.03125 13.050781 0.0429688 12.90625 0.0585938 C 12.761719 0.0742188 12.617188 0.0898438 12.585938 0.0898438 C 12.484375 0.0859375 11.882812 0.171875 11.507812 0.234375 C 11.191406 0.292969 11.152344 0.304688 11.121094 0.371094 C 11.09375 0.433594 11.09375 0.441406 11.136719 0.421875 C 11.175781 0.410156 11.179688 0.410156 11.148438 0.441406 C 11.117188 0.476562 11.101562 0.472656 11.066406 0.425781 C 11.03125 0.375 11.023438 0.375 11.023438 0.417969 C 11.023438 0.460938 11.019531 0.464844 10.984375 0.433594 C 10.949219 0.398438 10.953125 0.390625 10.992188 0.375 C 11.019531 0.367188 11.058594 0.363281 11.078125 0.371094 C 11.09375 0.378906 11.113281 0.371094 11.113281 0.351562 C 11.113281 0.335938 11.097656 0.320312 11.082031 0.320312 C 11.011719 0.320312 10.425781 0.476562 10.417969 0.5 C 10.414062 0.511719 10.394531 0.515625 10.378906 0.507812 C 10.339844 0.484375 9.621094 0.703125 9.640625 0.730469 C 9.652344 0.746094 9.640625 0.75 9.617188 0.742188 C 9.542969 0.714844 8.742188 1.019531 8.132812 1.304688 C 7.914062 1.40625 7.851562 1.449219 7.855469 1.492188 C 7.859375 1.523438 7.871094 1.546875 7.886719 1.546875 C 7.902344 1.546875 7.90625 1.554688 7.894531 1.5625 C 7.886719 1.570312 7.847656 1.558594 7.8125 1.535156 C 7.753906 1.496094 7.738281 1.5 7.59375 1.570312 C 7.480469 1.625 7.441406 1.660156 7.453125 1.691406 C 7.464844 1.726562 7.464844 1.726562 7.433594 1.699219 C 7.40625 1.671875 7.363281 1.683594 7.234375 1.753906 C 7.144531 1.804688 7.058594 1.859375 7.042969 1.878906 C 7.027344 1.894531 6.996094 1.914062 6.972656 1.917969 C 6.902344 1.9375 6.589844 2.132812 6.589844 2.160156 C 6.589844 2.175781 6.605469 2.1875 6.625 2.1875 C 6.636719 2.1875 6.644531 2.171875 6.636719 2.160156 C 6.625 2.140625 6.625 2.132812 6.640625 2.136719 C 6.652344 2.136719 6.695312 2.125 6.738281 2.105469 C 6.796875 2.074219 6.800781 2.074219 6.765625 2.105469 C 6.738281 2.125 6.710938 2.15625 6.707031 2.171875 C 6.699219 2.1875 6.683594 2.199219 6.671875 2.191406 C 6.660156 2.191406 6.648438 2.203125 6.648438 2.21875 C 6.648438 2.238281 6.675781 2.246094 6.71875 2.238281 C 6.777344 2.222656 6.777344 2.222656 6.730469 2.257812 C 6.703125 2.277344 6.6875 2.304688 6.699219 2.3125 C 6.726562 2.339844 6.601562 2.3125 6.542969 2.277344 C 6.476562 2.238281 6.523438 2.238281 6.59375 2.273438 C 6.664062 2.3125 6.667969 2.269531 6.597656 2.207031 C 6.546875 2.160156 6.523438 2.171875 6.21875 2.378906 C 6.007812 2.519531 5.902344 2.613281 5.910156 2.636719 C 5.917969 2.660156 5.910156 2.6875 5.894531 2.699219 C 5.875 2.707031 5.871094 2.699219 5.878906 2.671875 C 5.890625 2.644531 5.886719 2.625 5.871094 2.625 C 5.832031 2.625 5.773438 2.691406 5.773438 2.742188 C 5.773438 2.769531 5.753906 2.792969 5.730469 2.792969 C 5.695312 2.792969 5.695312 2.78125 5.726562 2.746094 C 5.765625 2.691406 5.160156 3.148438 5.035156 3.265625 C 4.964844 3.332031 4.960938 3.339844 5.007812 3.359375 C 5.046875 3.378906 5.039062 3.378906 4.980469 3.375 C 4.921875 3.367188 4.824219 3.445312 4.464844 3.773438 C 4.222656 3.996094 4.035156 4.191406 4.046875 4.207031 C 4.054688 4.226562 4.046875 4.230469 4.03125 4.21875 C 4.011719 4.207031 3.984375 4.226562 3.964844 4.261719 C 3.945312 4.296875 3.886719 4.363281 3.832031 4.410156 C 3.777344 4.460938 3.742188 4.511719 3.753906 4.53125 C 3.761719 4.542969 3.757812 4.550781 3.742188 4.542969 C 3.710938 4.519531 3.390625 4.871094 3.054688 5.296875 C 2.878906 5.515625 2.859375 5.550781 2.929688 5.523438 C 2.953125 5.511719 2.964844 5.492188 2.953125 5.472656 C 2.945312 5.460938 2.953125 5.453125 2.96875 5.464844 C 2.988281 5.472656 3.007812 5.460938 3.011719 5.433594 C 3.023438 5.394531 3.027344 5.394531 3.03125 5.425781 C 3.035156 5.496094 2.988281 5.542969 2.917969 5.550781 C 2.839844 5.554688 2.699219 5.726562 2.730469 5.777344 C 2.742188 5.800781 2.738281 5.804688 2.71875 5.792969 C 2.699219 5.78125 2.605469 5.890625 2.476562 6.078125 C 2.296875 6.339844 2.242188 6.445312 2.308594 6.425781 C 2.316406 6.421875 2.324219 6.441406 2.324219 6.460938 C 2.324219 6.488281 2.3125 6.496094 2.289062 6.476562 C 2.25 6.441406 2.214844 6.464844 2.148438 6.566406 C 2.089844 6.664062 2.089844 6.679688 2.144531 6.679688 C 2.167969 6.679688 2.179688 6.660156 2.171875 6.640625 C 2.164062 6.621094 2.1875 6.578125 2.222656 6.546875 L 2.289062 6.488281 L 2.238281 6.550781 C 2.183594 6.613281 2.1875 6.613281 2.261719 6.675781 C 2.308594 6.710938 2.335938 6.746094 2.328125 6.753906 C 2.320312 6.761719 2.296875 6.75 2.273438 6.722656 C 2.226562 6.660156 2.171875 6.667969 2.21875 6.730469 C 2.253906 6.777344 2.253906 6.777344 2.214844 6.75 C 2.101562 6.664062 2.078125 6.675781 1.941406 6.914062 C 1.820312 7.117188 1.808594 7.15625 1.839844 7.199219 C 1.878906 7.242188 1.875 7.246094 1.832031 7.210938 C 1.785156 7.171875 1.753906 7.226562 1.457031 7.824219 C 1.28125 8.179688 1.140625 8.496094 1.148438 8.527344 C 1.15625 8.550781 1.152344 8.570312 1.136719 8.558594 C 1.105469 8.539062 0.898438 9.066406 0.914062 9.121094 C 0.925781 9.144531 0.921875 9.15625 0.90625 9.144531 C 0.890625 9.136719 0.835938 9.257812 0.785156 9.410156 C 0.734375 9.570312 0.683594 9.714844 0.675781 9.738281 C 0.667969 9.761719 0.671875 9.773438 0.6875 9.761719 C 0.707031 9.75 0.710938 9.78125 0.703125 9.839844 C 0.691406 9.929688 0.6875 9.929688 0.667969 9.859375 C 0.648438 9.789062 0.640625 9.804688 0.628906 9.921875 C 0.628906 9.941406 0.617188 9.964844 0.609375 9.976562 C 0.601562 9.984375 0.570312 10.074219 0.542969 10.179688 C 0.460938 10.484375 0.460938 10.488281 0.488281 10.449219 C 0.511719 10.414062 0.519531 10.414062 0.535156 10.457031 C 0.546875 10.484375 0.542969 10.496094 0.53125 10.488281 C 0.519531 10.484375 0.492188 10.484375 0.476562 10.496094 C 0.429688 10.523438 0.214844 11.539062 0.160156 11.980469 C 0.152344 12.039062 0.125 12.246094 0.0976562 12.441406 C 0.0742188 12.632812 0.0507812 13.003906 0.0390625 13.269531 C 0.0351562 13.53125 0.0234375 13.753906 0.015625 13.761719 C -0.0078125 13.785156 -0.00390625 14.222656 0.0195312 14.246094 C 0.03125 14.257812 0.0390625 14.375 0.03125 14.507812 C 0.0234375 14.785156 0.109375 15.789062 0.144531 15.800781 C 0.15625 15.808594 0.164062 15.835938 0.15625 15.867188 C 0.140625 15.917969 0.21875 16.472656 0.253906 16.566406 C 0.261719 16.589844 0.273438 16.640625 0.277344 16.683594 C 0.296875 16.882812 0.359375 17.117188 0.386719 17.101562 C 0.40625 17.089844 0.410156 17.097656 0.398438 17.117188 C 0.371094 17.160156 0.464844 17.585938 0.5 17.585938 C 0.515625 17.585938 0.519531 17.597656 0.511719 17.617188 C 0.488281 17.65625 0.582031 17.996094 0.617188 17.996094 C 0.636719 17.996094 0.640625 17.976562 0.632812 17.953125 C 0.625 17.933594 0.632812 17.90625 0.65625 17.898438 C 0.6875 17.886719 0.691406 17.898438 0.671875 17.941406 C 0.652344 18.007812 0.707031 18.164062 0.769531 18.207031 C 0.789062 18.21875 0.789062 18.230469 0.773438 18.230469 C 0.722656 18.230469 0.683594 18.1875 0.675781 18.128906 C 0.664062 18.0625 0.613281 17.992188 0.613281 18.042969 C 0.613281 18.070312 0.707031 18.371094 0.75 18.460938 C 0.757812 18.484375 0.769531 18.519531 0.777344 18.542969 C 0.800781 18.667969 0.882812 18.867188 0.902344 18.855469 C 0.914062 18.847656 0.921875 18.867188 0.914062 18.898438 C 0.894531 18.964844 0.933594 18.976562 0.984375 18.921875 C 1.011719 18.898438 1.019531 18.898438 1.019531 18.921875 C 1.019531 18.941406 1 18.96875 0.972656 18.980469 C 0.933594 19.003906 0.9375 19.035156 1.019531 19.234375 C 1.089844 19.398438 1.121094 19.449219 1.144531 19.417969 C 1.164062 19.394531 1.167969 19.394531 1.15625 19.4375 C 1.132812 19.496094 1.304688 19.921875 1.347656 19.921875 C 1.363281 19.921875 1.363281 19.902344 1.351562 19.886719 C 1.316406 19.832031 1.316406 19.777344 1.339844 19.761719 C 1.355469 19.75 1.375 19.757812 1.382812 19.773438 C 1.394531 19.785156 1.386719 19.808594 1.371094 19.820312 C 1.347656 19.832031 1.347656 19.851562 1.371094 19.878906 C 1.394531 19.902344 1.394531 19.921875 1.375 19.933594 C 1.339844 19.953125 1.410156 20.121094 1.464844 20.15625 C 1.480469 20.164062 1.492188 20.183594 1.488281 20.195312 C 1.476562 20.234375 1.550781 20.386719 1.582031 20.386719 C 1.59375 20.386719 1.597656 20.371094 1.585938 20.351562 C 1.570312 20.332031 1.578125 20.328125 1.601562 20.34375 C 1.628906 20.359375 1.628906 20.375 1.609375 20.394531 C 1.578125 20.425781 1.625 20.5625 1.667969 20.5625 C 1.679688 20.5625 1.6875 20.570312 1.6875 20.582031 C 1.679688 20.644531 1.695312 20.679688 1.726562 20.660156 C 1.746094 20.648438 1.75 20.652344 1.738281 20.671875 C 1.71875 20.707031 1.777344 20.824219 1.820312 20.824219 C 1.832031 20.824219 1.828125 20.804688 1.808594 20.78125 C 1.789062 20.753906 1.777344 20.730469 1.789062 20.71875 C 1.800781 20.707031 1.808594 20.714844 1.808594 20.734375 C 1.808594 20.753906 1.820312 20.765625 1.835938 20.753906 C 1.847656 20.742188 1.859375 20.761719 1.855469 20.785156 C 1.847656 20.816406 1.859375 20.851562 1.878906 20.863281 C 1.898438 20.878906 1.890625 20.882812 1.859375 20.871094 C 1.8125 20.855469 1.820312 20.878906 1.882812 20.996094 C 1.929688 21.070312 1.976562 21.144531 1.996094 21.160156 C 2.011719 21.179688 2.03125 21.207031 2.035156 21.226562 C 2.039062 21.246094 2.136719 21.410156 2.25 21.585938 C 2.390625 21.804688 2.464844 21.894531 2.480469 21.871094 C 2.496094 21.847656 2.492188 21.824219 2.46875 21.8125 C 2.449219 21.800781 2.449219 21.789062 2.464844 21.789062 C 2.480469 21.789062 2.515625 21.800781 2.539062 21.816406 C 2.5625 21.832031 2.566406 21.847656 2.550781 21.847656 C 2.527344 21.847656 2.507812 21.867188 2.496094 21.890625 C 2.480469 21.9375 2.667969 22.226562 2.722656 22.226562 C 2.738281 22.226562 2.746094 22.234375 2.734375 22.242188 C 2.703125 22.273438 3.0625 22.722656 3.097656 22.703125 C 3.117188 22.691406 3.121094 22.699219 3.109375 22.71875 C 3.070312 22.777344 3.886719 23.703125 3.980469 23.703125 C 4.003906 23.703125 4.023438 23.6875 4.023438 23.671875 C 4.011719 23.597656 4.027344 23.507812 4.046875 23.507812 C 4.089844 23.507812 4.183594 23.695312 4.1875 23.777344 C 4.1875 23.824219 4.171875 23.863281 4.144531 23.871094 C 4.121094 23.882812 4.109375 23.882812 4.121094 23.871094 C 4.132812 23.859375 4.121094 23.824219 4.09375 23.792969 C 4.066406 23.761719 4.058594 23.742188 4.078125 23.742188 C 4.097656 23.742188 4.113281 23.753906 4.113281 23.769531 C 4.113281 23.785156 4.125 23.800781 4.136719 23.800781 C 4.152344 23.800781 4.160156 23.78125 4.160156 23.757812 C 4.160156 23.734375 4.152344 23.710938 4.136719 23.710938 C 4.121094 23.710938 4.117188 23.699219 4.128906 23.683594 C 4.136719 23.664062 4.128906 23.652344 4.105469 23.652344 C 4.082031 23.652344 4.050781 23.675781 4.042969 23.699219 C 4.035156 23.722656 4.011719 23.734375 3.996094 23.726562 C 3.980469 23.71875 3.964844 23.722656 3.964844 23.734375 C 3.964844 23.785156 4.324219 24.09375 4.363281 24.078125 C 4.386719 24.070312 4.394531 24.078125 4.386719 24.101562 C 4.367188 24.160156 5.074219 24.808594 5.117188 24.769531 C 5.125 24.761719 5.179688 24.75 5.238281 24.746094 C 5.359375 24.738281 5.402344 24.800781 5.324219 24.875 C 5.277344 24.921875 5.277344 24.921875 5.296875 24.863281 C 5.316406 24.8125 5.3125 24.808594 5.261719 24.851562 C 5.210938 24.890625 5.210938 24.890625 5.246094 24.847656 C 5.277344 24.804688 5.269531 24.796875 5.207031 24.785156 C 5.164062 24.777344 5.132812 24.78125 5.132812 24.792969 C 5.132812 24.820312 5.71875 25.289062 5.757812 25.289062 C 5.773438 25.289062 5.761719 25.265625 5.742188 25.234375 C 5.703125 25.191406 5.707031 25.1875 5.75 25.226562 C 5.78125 25.246094 5.796875 25.277344 5.789062 25.289062 C 5.765625 25.324219 6.234375 25.644531 6.273438 25.621094 C 6.292969 25.609375 6.300781 25.609375 6.292969 25.628906 C 6.28125 25.644531 6.324219 25.691406 6.386719 25.738281 C 6.453125 25.777344 6.503906 25.804688 6.503906 25.792969 C 6.503906 25.777344 6.515625 25.785156 6.53125 25.808594 C 6.554688 25.84375 6.566406 25.847656 6.601562 25.8125 C 6.628906 25.792969 6.660156 25.785156 6.671875 25.792969 C 6.679688 25.804688 6.703125 25.800781 6.71875 25.785156 C 6.742188 25.765625 6.753906 25.777344 6.757812 25.820312 C 6.765625 25.871094 6.757812 25.875 6.738281 25.839844 C 6.710938 25.804688 6.707031 25.804688 6.707031 25.839844 C 6.707031 25.878906 6.707031 25.878906 6.679688 25.839844 C 6.660156 25.808594 6.644531 25.808594 6.621094 25.828125 C 6.597656 25.851562 6.613281 25.875 6.671875 25.914062 C 6.714844 25.945312 6.765625 25.96875 6.785156 25.96875 C 6.808594 25.96875 6.824219 25.980469 6.824219 25.992188 C 6.824219 26.003906 6.851562 26.027344 6.882812 26.046875 C 6.925781 26.070312 6.941406 26.070312 6.9375 26.042969 C 6.929688 26.027344 6.945312 26.003906 6.964844 26.003906 C 6.984375 25.996094 6.988281 26 6.972656 26.003906 C 6.921875 26.03125 6.976562 26.105469 7.09375 26.164062 C 7.15625 26.199219 7.222656 26.214844 7.238281 26.203125 C 7.257812 26.191406 7.261719 26.195312 7.25 26.214844 C 7.199219 26.300781 9.410156 27.289062 9.511719 27.226562 C 9.527344 27.214844 9.539062 27.222656 9.539062 27.238281 C 9.539062 27.257812 9.546875 27.269531 9.5625 27.265625 C 9.574219 27.261719 9.613281 27.273438 9.652344 27.292969 C 9.816406 27.359375 9.867188 27.367188 9.847656 27.328125 C 9.835938 27.304688 9.84375 27.304688 9.863281 27.332031 C 9.90625 27.382812 10.226562 27.488281 10.265625 27.460938 C 10.285156 27.453125 10.296875 27.457031 10.296875 27.476562 C 10.296875 27.5 10.324219 27.503906 10.367188 27.5 C 10.40625 27.488281 10.433594 27.492188 10.425781 27.507812 C 10.398438 27.550781 11.589844 27.796875 12.164062 27.867188 C 12.234375 27.875 12.40625 27.894531 12.542969 27.914062 C 13.039062 27.972656 13.988281 28 14.578125 27.972656 C 15.148438 27.945312 15.722656 27.894531 15.808594 27.867188 C 15.832031 27.855469 15.929688 27.84375 16.027344 27.835938 C 16.125 27.832031 16.203125 27.8125 16.210938 27.796875 C 16.214844 27.785156 16.242188 27.777344 16.269531 27.785156 C 16.296875 27.792969 16.449219 27.773438 16.609375 27.738281 C 16.769531 27.707031 16.929688 27.671875 16.960938 27.667969 C 17.195312 27.625 17.242188 27.609375 17.230469 27.578125 C 17.21875 27.558594 17.242188 27.542969 17.277344 27.539062 C 17.324219 27.535156 17.332031 27.542969 17.296875 27.5625 C 17.273438 27.578125 17.265625 27.589844 17.277344 27.589844 C 17.308594 27.589844 17.765625 27.476562 17.820312 27.453125 C 17.84375 27.445312 17.878906 27.433594 17.898438 27.429688 C 17.980469 27.410156 18.265625 27.324219 18.339844 27.292969 C 18.429688 27.257812 18.417969 27.257812 18.542969 27.230469 C 18.59375 27.21875 18.636719 27.195312 18.636719 27.183594 C 18.636719 27.167969 18.65625 27.164062 18.6875 27.175781 C 18.714844 27.1875 18.726562 27.179688 18.714844 27.164062 C 18.703125 27.140625 18.71875 27.136719 18.761719 27.148438 C 18.8125 27.160156 18.816406 27.152344 18.800781 27.109375 C 18.785156 27.066406 18.789062 27.0625 18.816406 27.085938 C 18.839844 27.113281 18.875 27.109375 18.96875 27.078125 C 19.222656 26.992188 19.453125 26.882812 19.4375 26.859375 C 19.429688 26.84375 19.441406 26.84375 19.464844 26.851562 C 19.488281 26.859375 19.648438 26.800781 19.820312 26.71875 C 19.992188 26.636719 20.140625 26.570312 20.15625 26.570312 C 20.199219 26.570312 20.214844 26.519531 20.179688 26.496094 C 20.15625 26.480469 20.152344 26.484375 20.167969 26.511719 C 20.1875 26.539062 20.179688 26.542969 20.15625 26.53125 C 20.128906 26.511719 20.132812 26.492188 20.171875 26.453125 C 20.199219 26.421875 20.234375 26.40625 20.253906 26.417969 C 20.273438 26.429688 20.265625 26.441406 20.230469 26.449219 C 20.1875 26.457031 20.183594 26.464844 20.210938 26.484375 C 20.234375 26.496094 20.285156 26.492188 20.335938 26.464844 C 20.421875 26.421875 20.449219 26.378906 20.371094 26.40625 C 20.34375 26.417969 20.335938 26.414062 20.34375 26.394531 C 20.355469 26.378906 20.386719 26.371094 20.414062 26.382812 C 20.492188 26.40625 20.566406 26.367188 20.546875 26.3125 C 20.535156 26.273438 20.535156 26.273438 20.566406 26.300781 C 20.613281 26.347656 20.832031 26.230469 20.808594 26.167969 C 20.796875 26.132812 20.800781 26.128906 20.835938 26.164062 C 20.875 26.191406 20.894531 26.183594 20.960938 26.113281 C 21.003906 26.070312 21.027344 26.046875 21.015625 26.070312 C 21 26.097656 21.015625 26.09375 21.085938 26.058594 C 21.136719 26.035156 21.167969 26.003906 21.160156 25.988281 C 21.152344 25.972656 21.160156 25.953125 21.179688 25.941406 C 21.203125 25.929688 21.203125 25.933594 21.191406 25.953125 C 21.179688 25.972656 21.179688 25.988281 21.191406 25.988281 C 21.226562 25.988281 21.410156 25.867188 21.410156 25.84375 C 21.410156 25.832031 21.425781 25.820312 21.445312 25.820312 C 21.464844 25.820312 21.578125 25.761719 21.695312 25.679688 C 21.890625 25.550781 21.953125 25.496094 21.867188 25.53125 C 21.84375 25.539062 21.824219 25.527344 21.824219 25.507812 C 21.824219 25.472656 21.839844 25.472656 21.878906 25.496094 C 21.925781 25.519531 22.007812 25.46875 22.386719 25.183594 C 22.710938 24.941406 22.832031 24.835938 22.816406 24.804688 C 22.804688 24.769531 22.789062 24.769531 22.769531 24.789062 C 22.753906 24.804688 22.726562 24.820312 22.710938 24.820312 C 22.695312 24.820312 22.707031 24.800781 22.738281 24.777344 C 22.789062 24.742188 22.796875 24.742188 22.828125 24.78125 C 22.859375 24.824219 22.894531 24.800781 23.105469 24.613281 C 23.238281 24.496094 23.34375 24.390625 23.339844 24.375 C 23.335938 24.359375 23.34375 24.355469 23.359375 24.367188 C 23.402344 24.390625 24.449219 23.332031 24.429688 23.285156 C 24.421875 23.261719 24.425781 23.25 24.4375 23.261719 C 24.464844 23.273438 24.65625 23.070312 24.945312 22.703125 C 25.121094 22.484375 25.140625 22.449219 25.070312 22.476562 C 25.046875 22.488281 25.035156 22.507812 25.046875 22.527344 C 25.054688 22.542969 25.046875 22.546875 25.03125 22.535156 C 25.011719 22.523438 24.996094 22.535156 24.992188 22.566406 C 24.992188 22.59375 24.984375 22.605469 24.976562 22.582031 C 24.96875 22.5625 24.976562 22.523438 24.996094 22.492188 C 25.019531 22.445312 25.019531 22.429688 24.992188 22.429688 C 24.972656 22.429688 24.964844 22.421875 24.976562 22.410156 C 24.984375 22.402344 25.011719 22.40625 25.03125 22.417969 C 25.105469 22.464844 25.144531 22.453125 25.214844 22.359375 C 25.300781 22.25 25.3125 22.203125 25.238281 22.257812 C 25.191406 22.296875 25.1875 22.292969 25.226562 22.25 C 25.246094 22.21875 25.277344 22.203125 25.289062 22.210938 C 25.300781 22.21875 25.414062 22.085938 25.53125 21.914062 C 25.726562 21.628906 25.746094 21.59375 25.707031 21.546875 C 25.675781 21.515625 25.671875 21.496094 25.695312 21.480469 C 25.714844 21.472656 25.722656 21.476562 25.71875 21.5 C 25.714844 21.515625 25.726562 21.535156 25.742188 21.546875 C 25.785156 21.558594 25.90625 21.355469 25.882812 21.316406 C 25.871094 21.296875 25.875 21.292969 25.890625 21.300781 C 25.929688 21.324219 26.09375 21.050781 26.371094 20.515625 C 26.53125 20.214844 26.5625 20.128906 26.53125 20.097656 C 26.507812 20.070312 26.507812 20.066406 26.542969 20.082031 C 26.597656 20.101562 26.644531 20.027344 26.609375 19.972656 C 26.601562 19.957031 26.605469 19.949219 26.621094 19.957031 C 26.660156 19.984375 26.878906 19.5 26.847656 19.453125 C 26.832031 19.429688 26.835938 19.421875 26.855469 19.4375 C 26.890625 19.457031 27.054688 19.058594 27.230469 18.539062 C 27.339844 18.210938 27.339844 18.21875 27.304688 18.242188 C 27.289062 18.253906 27.265625 18.242188 27.253906 18.226562 C 27.242188 18.207031 27.246094 18.199219 27.257812 18.207031 C 27.3125 18.238281 27.367188 18.179688 27.371094 18.089844 C 27.371094 18.039062 27.378906 18.003906 27.386719 18.011719 C 27.417969 18.027344 27.566406 17.417969 27.546875 17.378906 C 27.535156 17.355469 27.535156 17.355469 27.558594 17.367188 C 27.601562 17.394531 27.601562 17.34375 27.558594 17.296875 C 27.523438 17.269531 27.527344 17.265625 27.558594 17.273438 C 27.585938 17.277344 27.613281 17.226562 27.640625 17.105469 C 27.691406 16.882812 27.820312 16.195312 27.839844 16.03125 C 27.847656 15.964844 27.871094 15.757812 27.898438 15.574219 C 27.953125 15.140625 27.949219 15.113281 27.890625 15.097656 C 27.847656 15.089844 27.84375 15.085938 27.886719 15.082031 C 27.949219 15.078125 27.972656 14.949219 27.976562 14.574219 C 27.976562 14.410156 27.984375 14.164062 27.992188 14.019531 C 27.996094 13.878906 27.996094 13.765625 27.980469 13.765625 C 27.96875 13.765625 27.960938 13.652344 27.964844 13.511719 C 27.976562 13.210938 27.890625 12.214844 27.851562 12.1875 C 27.835938 12.179688 27.832031 12.152344 27.839844 12.125 C 27.859375 12.074219 27.792969 11.609375 27.71875 11.289062 C 27.671875 11.078125 27.660156 11.007812 27.652344 10.929688 C 27.652344 10.898438 27.636719 10.886719 27.613281 10.898438 C 27.59375 10.910156 27.589844 10.90625 27.601562 10.882812 C 27.636719 10.832031 27.53125 10.402344 27.496094 10.449219 C 27.476562 10.472656 27.476562 10.460938 27.488281 10.414062 C 27.503906 10.332031 27.476562 10.171875 27.449219 10.195312 C 27.4375 10.199219 27.429688 10.175781 27.429688 10.140625 C 27.429688 10.105469 27.417969 10.078125 27.394531 10.082031 C 27.378906 10.085938 27.347656 10.070312 27.328125 10.046875 C 27.304688 10.015625 27.300781 10.003906 27.328125 10.003906 C 27.347656 10.003906 27.351562 9.988281 27.339844 9.96875 C 27.328125 9.949219 27.332031 9.945312 27.351562 9.957031 C 27.398438 9.984375 27.394531 9.964844 27.339844 9.78125 C 27.3125 9.699219 27.28125 9.632812 27.265625 9.640625 C 27.253906 9.652344 27.25 9.640625 27.257812 9.617188 C 27.289062 9.539062 26.757812 8.183594 26.675781 8.132812 C 26.660156 8.121094 26.652344 8.109375 26.667969 8.109375 C 26.691406 8.109375 26.371094 7.457031 26.324219 7.433594 C 26.308594 7.421875 26.304688 7.410156 26.316406 7.410156 C 26.351562 7.410156 26.214844 7.175781 26.183594 7.175781 C 26.164062 7.175781 26.167969 7.191406 26.183594 7.210938 C 26.199219 7.230469 26.210938 7.273438 26.210938 7.304688 C 26.210938 7.351562 26.207031 7.351562 26.15625 7.292969 C 26.105469 7.230469 26.105469 7.222656 26.152344 7.171875 C 26.191406 7.125 26.191406 7.117188 26.136719 7.0625 C 26.101562 7.027344 26.0625 7 26.046875 7 C 25.996094 7 26.015625 7.054688 26.078125 7.085938 C 26.109375 7.109375 26.132812 7.128906 26.125 7.136719 C 26.097656 7.160156 25.992188 7.074219 25.976562 7.015625 C 25.960938 6.964844 25.953125 6.960938 25.929688 7 C 25.90625 7.03125 25.902344 7.023438 25.910156 6.960938 C 25.921875 6.914062 25.9375 6.867188 25.953125 6.855469 C 26 6.824219 25.96875 6.753906 25.785156 6.464844 C 25.648438 6.257812 25.59375 6.1875 25.554688 6.199219 C 25.515625 6.214844 25.511719 6.210938 25.550781 6.1875 C 25.574219 6.171875 25.582031 6.148438 25.570312 6.136719 C 25.5625 6.125 25.53125 6.132812 25.503906 6.15625 C 25.457031 6.195312 25.457031 6.191406 25.488281 6.132812 C 25.519531 6.074219 25.507812 6.050781 25.414062 5.921875 C 25.316406 5.785156 25.242188 5.726562 25.277344 5.8125 C 25.285156 5.835938 25.273438 5.855469 25.253906 5.855469 C 25.230469 5.855469 25.210938 5.832031 25.210938 5.800781 C 25.210938 5.773438 25.21875 5.75 25.230469 5.753906 C 25.238281 5.757812 25.242188 5.746094 25.242188 5.730469 C 25.242188 5.714844 25.230469 5.703125 25.21875 5.710938 C 25.207031 5.714844 25.203125 5.703125 25.210938 5.691406 C 25.234375 5.65625 24.941406 5.273438 24.910156 5.292969 C 24.890625 5.300781 24.886719 5.292969 24.898438 5.269531 C 24.90625 5.246094 24.882812 5.203125 24.839844 5.175781 C 24.804688 5.140625 24.769531 5.105469 24.757812 5.089844 C 24.753906 5.070312 24.738281 5.0625 24.726562 5.066406 C 24.714844 5.070312 24.707031 5.0625 24.714844 5.046875 C 24.71875 5.015625 24.574219 4.84375 24.109375 4.339844 C 23.785156 3.992188 23.738281 3.953125 23.675781 3.964844 C 23.660156 3.964844 23.65625 3.957031 23.664062 3.941406 C 23.734375 3.832031 21.582031 2.136719 21.460938 2.203125 C 21.441406 2.214844 21.433594 2.214844 21.441406 2.203125 C 21.457031 2.1875 21.421875 2.148438 21.371094 2.113281 C 21.15625 1.972656 21.054688 1.917969 21.0625 1.953125 C 21.070312 1.972656 21.050781 1.996094 21.027344 2.003906 C 20.996094 2.011719 20.996094 2.007812 21.019531 1.992188 C 21.085938 1.941406 20.996094 1.875 20.550781 1.644531 C 20.199219 1.464844 20.113281 1.429688 20.089844 1.460938 C 20.066406 1.492188 20.0625 1.492188 20.074219 1.453125 C 20.09375 1.398438 20.023438 1.359375 19.972656 1.390625 C 19.957031 1.398438 19.949219 1.394531 19.957031 1.378906 C 19.992188 1.328125 18.957031 0.886719 18.878906 0.914062 C 18.855469 0.925781 18.84375 0.921875 18.851562 0.90625 C 18.875 0.878906 18.613281 0.78125 18.578125 0.800781 C 18.566406 0.8125 18.550781 0.804688 18.542969 0.789062 C 18.542969 0.773438 18.507812 0.753906 18.476562 0.75 C 18.445312 0.742188 18.378906 0.722656 18.335938 0.703125 C 18.289062 0.683594 18.230469 0.675781 18.207031 0.683594 C 18.183594 0.691406 18.171875 0.6875 18.183594 0.671875 C 18.203125 0.644531 17.496094 0.441406 17.003906 0.339844 C 16.175781 0.160156 15.382812 0.0585938 14.71875 0.0390625 C 14.460938 0.0351562 14.246094 0.0234375 14.238281 0.015625 C 14.214844 -0.0078125 13.777344 -0.00390625 13.753906 0.0195312 Z M 15.261719 1.496094 C 15.253906 1.511719 15.277344 1.515625 15.316406 1.503906 C 15.367188 1.488281 15.375 1.492188 15.339844 1.515625 C 15.316406 1.53125 15.273438 1.535156 15.238281 1.527344 C 15.199219 1.515625 15.191406 1.519531 15.210938 1.539062 C 15.226562 1.558594 15.339844 1.574219 15.457031 1.582031 C 15.578125 1.585938 15.683594 1.597656 15.691406 1.609375 C 15.699219 1.621094 15.792969 1.632812 15.894531 1.640625 C 16 1.644531 16.089844 1.65625 16.101562 1.667969 C 16.113281 1.679688 16.183594 1.695312 16.261719 1.699219 C 16.34375 1.703125 16.410156 1.710938 16.421875 1.722656 C 16.433594 1.734375 16.601562 1.777344 17.195312 1.910156 C 17.226562 1.917969 17.402344 1.96875 17.585938 2.023438 C 17.769531 2.078125 17.929688 2.121094 17.941406 2.113281 C 17.953125 2.105469 17.964844 2.109375 17.972656 2.125 C 17.976562 2.136719 18.152344 2.210938 18.359375 2.285156 C 18.570312 2.367188 18.867188 2.484375 19.027344 2.554688 C 19.1875 2.625 19.328125 2.675781 19.347656 2.664062 C 19.359375 2.652344 19.367188 2.65625 19.359375 2.671875 C 19.347656 2.6875 19.476562 2.769531 19.644531 2.851562 C 19.914062 2.988281 19.949219 2.996094 19.984375 2.953125 C 20.019531 2.910156 20.015625 2.90625 19.933594 2.925781 C 19.867188 2.941406 19.855469 2.941406 19.902344 2.914062 C 19.929688 2.894531 19.972656 2.890625 20 2.898438 C 20.035156 2.914062 20.039062 2.925781 20.007812 2.960938 C 19.964844 3.011719 19.957031 3.003906 20.148438 3.117188 C 20.234375 3.167969 20.316406 3.199219 20.335938 3.191406 C 20.351562 3.179688 20.359375 3.183594 20.347656 3.195312 C 20.328125 3.230469 20.785156 3.511719 20.867188 3.515625 C 20.902344 3.519531 20.941406 3.523438 20.957031 3.527344 C 20.972656 3.53125 21.003906 3.535156 21.027344 3.527344 C 21.0625 3.527344 21.054688 3.515625 21.015625 3.496094 C 20.964844 3.476562 20.964844 3.472656 21.007812 3.480469 C 21.039062 3.484375 21.058594 3.496094 21.058594 3.511719 C 21.054688 3.527344 21.070312 3.550781 21.09375 3.5625 C 21.136719 3.589844 20.996094 3.574219 20.898438 3.542969 C 20.851562 3.527344 20.855469 3.535156 20.914062 3.582031 C 20.960938 3.621094 21.015625 3.636719 21.074219 3.628906 C 21.148438 3.621094 21.152344 3.621094 21.085938 3.640625 C 21.039062 3.65625 21.027344 3.667969 21.050781 3.6875 C 21.070312 3.699219 21.101562 3.699219 21.121094 3.6875 C 21.140625 3.675781 21.144531 3.679688 21.136719 3.695312 C 21.125 3.714844 21.175781 3.765625 21.246094 3.816406 C 21.371094 3.90625 21.457031 3.9375 21.421875 3.878906 C 21.414062 3.863281 21.421875 3.851562 21.433594 3.851562 C 21.453125 3.851562 21.464844 3.875 21.457031 3.898438 C 21.453125 3.929688 21.460938 3.953125 21.46875 3.953125 C 21.480469 3.953125 21.511719 3.976562 21.542969 4.011719 C 21.648438 4.132812 22.21875 4.578125 22.238281 4.554688 C 22.25 4.542969 22.253906 4.546875 22.25 4.566406 C 22.238281 4.601562 22.738281 5.082031 22.769531 5.066406 C 22.785156 5.058594 22.8125 5.0625 22.835938 5.082031 C 22.871094 5.105469 22.871094 5.105469 22.824219 5.09375 C 22.777344 5.078125 22.777344 5.082031 22.808594 5.117188 C 22.828125 5.140625 22.855469 5.152344 22.871094 5.144531 C 22.882812 5.136719 22.894531 5.148438 22.894531 5.171875 C 22.894531 5.234375 23.011719 5.371094 23.050781 5.347656 C 23.070312 5.335938 23.078125 5.335938 23.066406 5.351562 C 23.039062 5.382812 23.390625 5.761719 23.433594 5.75 C 23.449219 5.746094 23.457031 5.75 23.445312 5.761719 C 23.417969 5.785156 23.769531 6.21875 23.800781 6.199219 C 23.8125 6.1875 23.839844 6.207031 23.859375 6.234375 C 23.898438 6.28125 23.894531 6.28125 23.851562 6.246094 C 23.765625 6.175781 23.792969 6.222656 24.027344 6.539062 C 24.152344 6.707031 24.296875 6.914062 24.351562 6.996094 C 24.402344 7.078125 24.460938 7.136719 24.480469 7.125 C 24.496094 7.117188 24.5 7.121094 24.488281 7.140625 C 24.464844 7.179688 24.550781 7.320312 24.59375 7.320312 C 24.609375 7.320312 24.605469 7.296875 24.585938 7.269531 C 24.546875 7.226562 24.550781 7.226562 24.621094 7.269531 C 24.660156 7.300781 24.703125 7.316406 24.707031 7.304688 C 24.714844 7.300781 24.722656 7.320312 24.722656 7.351562 C 24.726562 7.382812 24.714844 7.417969 24.699219 7.425781 C 24.679688 7.4375 24.675781 7.433594 24.683594 7.421875 C 24.710938 7.375 24.65625 7.308594 24.621094 7.335938 C 24.585938 7.355469 24.640625 7.472656 24.714844 7.539062 C 24.734375 7.558594 24.75 7.589844 24.757812 7.613281 C 24.761719 7.636719 24.824219 7.753906 24.894531 7.875 C 24.964844 7.996094 25.050781 8.15625 25.085938 8.230469 C 25.121094 8.308594 25.164062 8.359375 25.179688 8.351562 C 25.195312 8.339844 25.199219 8.347656 25.1875 8.363281 C 25.167969 8.398438 25.304688 8.699219 25.347656 8.714844 C 25.363281 8.722656 25.371094 8.734375 25.359375 8.75 C 25.351562 8.765625 25.359375 8.789062 25.378906 8.8125 C 25.402344 8.835938 25.425781 8.878906 25.425781 8.910156 C 25.433594 8.941406 25.449219 8.976562 25.46875 8.984375 C 25.484375 8.996094 25.496094 9.011719 25.492188 9.023438 C 25.480469 9.0625 25.675781 9.539062 25.703125 9.539062 C 25.714844 9.539062 25.722656 9.550781 25.710938 9.5625 C 25.695312 9.589844 25.773438 9.828125 25.808594 9.859375 C 25.816406 9.867188 25.828125 9.894531 25.828125 9.917969 C 25.832031 9.941406 25.886719 10.136719 25.957031 10.355469 C 26.074219 10.757812 26.257812 11.511719 26.292969 11.761719 C 26.304688 11.835938 26.324219 11.894531 26.335938 11.886719 C 26.34375 11.882812 26.355469 11.9375 26.355469 12.015625 C 26.359375 12.085938 26.382812 12.316406 26.410156 12.527344 C 26.515625 13.328125 26.5 14.847656 26.382812 15.691406 C 26.359375 15.84375 26.34375 15.988281 26.339844 16.011719 C 26.335938 16.128906 26.078125 17.265625 26.027344 17.394531 C 26.015625 17.4375 26.015625 17.445312 26.039062 17.429688 C 26.058594 17.417969 26.074219 17.421875 26.074219 17.4375 C 26.074219 17.453125 26.058594 17.472656 26.035156 17.480469 C 26.015625 17.488281 25.972656 17.574219 25.945312 17.679688 C 25.917969 17.78125 25.886719 17.882812 25.875 17.90625 C 25.863281 17.933594 25.875 17.941406 25.902344 17.925781 C 25.929688 17.910156 25.925781 17.921875 25.898438 17.941406 C 25.851562 17.976562 25.773438 18.175781 25.769531 18.242188 C 25.769531 18.257812 25.761719 18.277344 25.75 18.289062 C 25.738281 18.296875 25.722656 18.335938 25.71875 18.375 C 25.714844 18.414062 25.699219 18.457031 25.6875 18.464844 C 25.671875 18.472656 25.65625 18.5 25.65625 18.523438 C 25.648438 18.546875 25.625 18.609375 25.597656 18.667969 C 25.566406 18.738281 25.566406 18.78125 25.585938 18.808594 C 25.609375 18.835938 25.605469 18.847656 25.5625 18.859375 C 25.527344 18.867188 25.476562 18.941406 25.429688 19.058594 C 25.367188 19.210938 25.359375 19.246094 25.390625 19.289062 C 25.410156 19.316406 25.421875 19.367188 25.414062 19.394531 C 25.394531 19.464844 25.355469 19.472656 25.355469 19.410156 C 25.355469 19.386719 25.367188 19.367188 25.378906 19.367188 C 25.390625 19.367188 25.394531 19.347656 25.386719 19.324219 C 25.375 19.300781 25.359375 19.277344 25.339844 19.277344 C 25.324219 19.277344 25.324219 19.289062 25.332031 19.308594 C 25.339844 19.324219 25.335938 19.335938 25.316406 19.335938 C 25.296875 19.335938 25.289062 19.359375 25.300781 19.382812 C 25.308594 19.40625 25.304688 19.421875 25.289062 19.414062 C 25.25 19.386719 25.199219 19.53125 25.238281 19.566406 C 25.265625 19.59375 25.261719 19.601562 25.230469 19.585938 C 25.195312 19.574219 25.160156 19.621094 25.09375 19.757812 C 25.039062 19.867188 25.011719 19.953125 25.023438 19.96875 C 25.039062 19.980469 25.039062 20.011719 25.023438 20.039062 C 24.996094 20.074219 24.992188 20.074219 25.007812 20.027344 C 25.015625 20.003906 25.011719 19.980469 25 19.980469 C 24.960938 19.980469 24.757812 20.359375 24.78125 20.394531 C 24.792969 20.410156 24.789062 20.417969 24.769531 20.40625 C 24.753906 20.394531 24.703125 20.449219 24.65625 20.523438 C 24.613281 20.601562 24.527344 20.742188 24.464844 20.832031 L 24.351562 21.003906 L 24.410156 21.117188 C 24.480469 21.25 24.441406 21.304688 24.34375 21.210938 C 24.296875 21.15625 24.292969 21.144531 24.324219 21.101562 C 24.34375 21.078125 24.355469 21.050781 24.347656 21.042969 C 24.332031 21.027344 24.148438 21.28125 24.148438 21.324219 C 24.148438 21.339844 24.171875 21.351562 24.195312 21.339844 C 24.21875 21.328125 24.242188 21.339844 24.253906 21.355469 C 24.269531 21.375 24.261719 21.378906 24.238281 21.363281 C 24.207031 21.347656 24.203125 21.351562 24.21875 21.386719 C 24.226562 21.417969 24.222656 21.4375 24.207031 21.4375 C 24.191406 21.4375 24.179688 21.421875 24.179688 21.40625 C 24.179688 21.390625 24.164062 21.386719 24.144531 21.398438 C 24.125 21.410156 24.121094 21.40625 24.132812 21.386719 C 24.144531 21.363281 24.140625 21.351562 24.125 21.351562 C 24.089844 21.351562 23.996094 21.496094 23.996094 21.546875 C 23.996094 21.566406 23.984375 21.574219 23.972656 21.570312 C 23.960938 21.558594 23.917969 21.601562 23.875 21.652344 C 23.792969 21.761719 23.777344 21.8125 23.839844 21.765625 C 23.859375 21.746094 23.886719 21.742188 23.90625 21.753906 C 23.9375 21.777344 23.949219 21.9375 23.914062 21.914062 C 23.902344 21.910156 23.894531 21.878906 23.90625 21.851562 C 23.917969 21.820312 23.898438 21.828125 23.859375 21.875 C 23.828125 21.914062 23.800781 21.972656 23.796875 22.007812 C 23.792969 22.054688 23.792969 22.054688 23.769531 21.992188 C 23.753906 21.933594 23.765625 21.90625 23.816406 21.859375 C 23.855469 21.824219 23.886719 21.789062 23.886719 21.777344 C 23.886719 21.761719 23.871094 21.765625 23.847656 21.785156 C 23.828125 21.800781 23.804688 21.8125 23.792969 21.800781 C 23.785156 21.792969 23.757812 21.8125 23.726562 21.847656 C 23.6875 21.890625 23.683594 21.914062 23.707031 21.941406 C 23.734375 21.972656 23.730469 21.984375 23.699219 21.984375 C 23.675781 21.984375 23.664062 21.96875 23.671875 21.949219 C 23.683594 21.933594 23.609375 22.003906 23.511719 22.109375 C 23.355469 22.277344 23.289062 22.375 23.355469 22.328125 C 23.371094 22.320312 23.382812 22.332031 23.382812 22.355469 C 23.382812 22.386719 23.371094 22.390625 23.347656 22.371094 C 23.308594 22.339844 23.171875 22.464844 23.207031 22.5 C 23.222656 22.511719 23.214844 22.515625 23.199219 22.511719 C 23.160156 22.5 22.394531 23.257812 22.421875 23.285156 C 22.429688 23.296875 22.476562 23.261719 22.519531 23.214844 L 22.601562 23.125 L 22.589844 23.21875 C 22.582031 23.273438 22.578125 23.324219 22.578125 23.332031 C 22.574219 23.335938 22.558594 23.324219 22.535156 23.308594 C 22.503906 23.28125 22.488281 23.28125 22.472656 23.304688 C 22.457031 23.328125 22.441406 23.328125 22.414062 23.304688 C 22.386719 23.28125 22.339844 23.308594 22.238281 23.402344 C 22.15625 23.46875 21.949219 23.640625 21.773438 23.785156 C 21.597656 23.929688 21.453125 24.0625 21.453125 24.078125 C 21.457031 24.101562 21.441406 24.109375 21.421875 24.101562 C 21.386719 24.085938 20.703125 24.539062 20.683594 24.59375 C 20.675781 24.609375 20.691406 24.621094 20.714844 24.609375 C 20.742188 24.597656 20.753906 24.613281 20.753906 24.65625 C 20.753906 24.699219 20.738281 24.722656 20.707031 24.722656 C 20.679688 24.722656 20.660156 24.703125 20.664062 24.675781 C 20.675781 24.605469 20.648438 24.585938 20.589844 24.617188 C 20.558594 24.632812 20.539062 24.660156 20.546875 24.679688 C 20.558594 24.691406 20.578125 24.695312 20.597656 24.6875 C 20.617188 24.675781 20.621094 24.679688 20.609375 24.703125 C 20.589844 24.726562 20.578125 24.726562 20.546875 24.703125 C 20.523438 24.679688 20.441406 24.714844 20.246094 24.828125 C 20.007812 24.964844 19.914062 25.039062 20.015625 25.011719 C 20.035156 25.011719 20.039062 25.011719 20.027344 25.019531 C 20.015625 25.023438 20.019531 25.042969 20.039062 25.058594 C 20.0625 25.070312 20.066406 25.082031 20.050781 25.082031 C 20.03125 25.082031 20 25.0625 19.980469 25.039062 C 19.949219 25.003906 19.898438 25.023438 19.613281 25.160156 C 19.429688 25.253906 19.289062 25.335938 19.296875 25.347656 C 19.300781 25.359375 19.289062 25.367188 19.269531 25.363281 C 19.214844 25.359375 19.015625 25.441406 19.015625 25.472656 C 19.015625 25.484375 19.039062 25.488281 19.070312 25.476562 C 19.109375 25.460938 19.113281 25.464844 19.082031 25.496094 C 19.058594 25.519531 19.035156 25.523438 19.015625 25.5 C 18.980469 25.464844 18.597656 25.597656 18.621094 25.640625 C 18.632812 25.652344 18.613281 25.65625 18.585938 25.644531 C 18.554688 25.640625 18.511719 25.648438 18.488281 25.671875 C 18.464844 25.691406 18.429688 25.710938 18.414062 25.714844 C 18.269531 25.726562 18.273438 25.722656 18.332031 25.765625 C 18.363281 25.789062 18.40625 25.796875 18.433594 25.789062 C 18.457031 25.78125 18.46875 25.785156 18.457031 25.796875 C 18.425781 25.832031 18.335938 25.832031 18.296875 25.796875 C 18.265625 25.761719 18.234375 25.765625 18.140625 25.796875 C 18.074219 25.820312 17.890625 25.878906 17.730469 25.929688 C 17.53125 25.992188 17.449219 26.03125 17.460938 26.054688 C 17.472656 26.078125 17.472656 26.082031 17.449219 26.058594 C 17.425781 26.039062 17.28125 26.0625 16.976562 26.136719 C 16.503906 26.253906 15.777344 26.382812 15.421875 26.414062 C 15.296875 26.425781 15.195312 26.445312 15.195312 26.460938 C 15.195312 26.472656 15.21875 26.480469 15.25 26.472656 C 15.273438 26.464844 15.316406 26.464844 15.339844 26.480469 C 15.371094 26.5 15.363281 26.507812 15.316406 26.527344 C 15.28125 26.535156 15.261719 26.558594 15.273438 26.578125 C 15.285156 26.597656 15.277344 26.601562 15.257812 26.589844 C 15.238281 26.578125 15.230469 26.554688 15.242188 26.539062 C 15.25 26.519531 15.226562 26.515625 15.175781 26.527344 C 15.109375 26.539062 15.105469 26.539062 15.152344 26.515625 C 15.183594 26.5 15.199219 26.484375 15.179688 26.484375 C 15.144531 26.476562 12.859375 26.476562 12.820312 26.484375 C 12.804688 26.484375 12.816406 26.496094 12.847656 26.511719 C 12.894531 26.53125 12.890625 26.535156 12.8125 26.53125 C 12.761719 26.53125 12.726562 26.519531 12.738281 26.507812 C 12.75 26.476562 12.738281 26.476562 12.671875 26.5 C 12.636719 26.515625 12.636719 26.527344 12.660156 26.542969 C 12.683594 26.554688 12.679688 26.566406 12.648438 26.578125 C 12.621094 26.589844 12.609375 26.578125 12.613281 26.554688 C 12.621094 26.492188 12.691406 26.453125 12.753906 26.472656 C 12.78125 26.480469 12.804688 26.472656 12.804688 26.457031 C 12.804688 26.429688 12.703125 26.417969 12.417969 26.414062 C 12.367188 26.410156 12.316406 26.402344 12.308594 26.390625 C 12.300781 26.378906 12.214844 26.363281 12.117188 26.355469 C 11.894531 26.335938 11.21875 26.195312 10.78125 26.078125 C 10.59375 26.027344 10.425781 25.996094 10.40625 26.003906 C 10.386719 26.015625 10.382812 26.015625 10.394531 25.992188 C 10.429688 25.9375 10.378906 25.953125 10.308594 26.019531 C 10.246094 26.078125 10.242188 26.078125 10.167969 26.03125 C 10.125 26.003906 10.078125 25.992188 10.066406 26.003906 C 10.046875 26.011719 10.042969 26.003906 10.050781 25.976562 C 10.066406 25.9375 10.078125 25.9375 10.128906 25.96875 C 10.207031 26.015625 10.300781 26.015625 10.316406 25.96875 C 10.324219 25.941406 10.183594 25.890625 10.078125 25.886719 C 10.0625 25.886719 10.042969 25.875 10.035156 25.867188 C 10.003906 25.832031 9.820312 25.785156 9.789062 25.804688 C 9.769531 25.8125 9.765625 25.808594 9.78125 25.796875 C 9.804688 25.765625 9.453125 25.632812 9.398438 25.652344 C 9.378906 25.660156 9.367188 25.65625 9.375 25.644531 C 9.382812 25.628906 9.269531 25.566406 9.121094 25.507812 C 8.796875 25.371094 8.109375 25.035156 7.835938 24.875 C 7.730469 24.8125 7.628906 24.769531 7.613281 24.777344 C 7.566406 24.804688 7.605469 24.847656 7.671875 24.835938 C 7.703125 24.828125 7.726562 24.839844 7.71875 24.859375 C 7.71875 24.878906 7.730469 24.890625 7.746094 24.886719 C 7.765625 24.886719 7.777344 24.90625 7.765625 24.9375 C 7.753906 24.996094 7.699219 25.019531 7.699219 24.96875 C 7.699219 24.957031 7.667969 24.949219 7.628906 24.953125 C 7.585938 24.957031 7.546875 24.949219 7.535156 24.933594 C 7.527344 24.921875 7.503906 24.917969 7.488281 24.925781 C 7.460938 24.941406 7.464844 24.933594 7.488281 24.910156 C 7.515625 24.878906 7.515625 24.859375 7.488281 24.824219 C 7.460938 24.785156 7.460938 24.78125 7.496094 24.816406 C 7.554688 24.863281 7.597656 24.859375 7.554688 24.804688 C 7.53125 24.78125 7.527344 24.761719 7.542969 24.769531 C 7.558594 24.773438 7.570312 24.761719 7.570312 24.746094 C 7.570312 24.730469 7.550781 24.722656 7.535156 24.722656 C 7.511719 24.722656 7.5 24.71875 7.511719 24.707031 C 7.523438 24.679688 7.351562 24.574219 7.328125 24.597656 C 7.320312 24.609375 7.328125 24.632812 7.347656 24.65625 C 7.371094 24.6875 7.375 24.703125 7.351562 24.71875 C 7.332031 24.730469 7.324219 24.722656 7.328125 24.710938 C 7.332031 24.691406 7.324219 24.679688 7.304688 24.679688 C 7.292969 24.679688 7.28125 24.691406 7.285156 24.710938 C 7.289062 24.722656 7.28125 24.730469 7.261719 24.71875 C 7.246094 24.707031 7.25 24.679688 7.277344 24.632812 C 7.320312 24.570312 7.316406 24.5625 7.246094 24.515625 C 7.207031 24.492188 7.15625 24.476562 7.140625 24.488281 C 7.121094 24.5 7.117188 24.496094 7.125 24.480469 C 7.15625 24.429688 7.019531 24.359375 6.925781 24.371094 C 6.847656 24.378906 6.84375 24.378906 6.914062 24.359375 C 6.960938 24.34375 6.972656 24.332031 6.949219 24.3125 C 6.929688 24.300781 6.898438 24.300781 6.882812 24.308594 C 6.867188 24.320312 6.855469 24.316406 6.859375 24.300781 C 6.867188 24.269531 6.40625 23.917969 6.359375 23.917969 C 6.339844 23.917969 6.328125 23.90625 6.328125 23.894531 C 6.328125 23.863281 5.917969 23.527344 5.902344 23.546875 C 5.894531 23.554688 5.910156 23.582031 5.933594 23.609375 C 5.980469 23.652344 5.980469 23.652344 5.929688 23.652344 C 5.886719 23.652344 5.886719 23.660156 5.921875 23.679688 C 5.945312 23.699219 5.976562 23.699219 5.992188 23.691406 C 6.007812 23.679688 6.015625 23.683594 6.003906 23.699219 C 5.992188 23.710938 5.996094 23.742188 6.015625 23.769531 C 6.042969 23.804688 6.039062 23.804688 5.992188 23.765625 C 5.914062 23.699219 5.890625 23.699219 5.910156 23.761719 C 5.921875 23.804688 5.921875 23.808594 5.894531 23.769531 C 5.867188 23.734375 5.863281 23.734375 5.863281 23.769531 C 5.863281 23.792969 5.855469 23.800781 5.84375 23.792969 C 5.832031 23.78125 5.84375 23.753906 5.863281 23.726562 C 5.890625 23.691406 5.890625 23.683594 5.859375 23.683594 C 5.828125 23.683594 5.828125 23.675781 5.855469 23.660156 C 5.933594 23.609375 5.863281 23.503906 5.566406 23.226562 C 5.402344 23.070312 5.1875 22.863281 5.09375 22.765625 C 5.003906 22.667969 4.933594 22.617188 4.945312 22.648438 C 4.957031 22.679688 4.957031 22.699219 4.945312 22.6875 C 4.933594 22.675781 4.921875 22.648438 4.917969 22.625 C 4.910156 22.5625 4.605469 22.238281 4.566406 22.25 C 4.550781 22.253906 4.542969 22.25 4.554688 22.238281 C 4.589844 22.207031 4.519531 22.132812 4.484375 22.15625 C 4.46875 22.167969 4.460938 22.160156 4.472656 22.144531 C 4.492188 22.109375 4.230469 21.777344 4.207031 21.800781 C 4.195312 21.8125 4.171875 21.800781 4.152344 21.785156 C 4.121094 21.757812 4.113281 21.761719 4.113281 21.789062 C 4.113281 21.804688 4.140625 21.828125 4.171875 21.835938 C 4.207031 21.847656 4.226562 21.871094 4.222656 21.902344 C 4.21875 21.925781 4.230469 21.945312 4.253906 21.9375 C 4.277344 21.9375 4.285156 21.945312 4.273438 21.960938 C 4.257812 21.984375 4.234375 21.980469 4.203125 21.949219 C 4.171875 21.925781 4.140625 21.902344 4.128906 21.902344 C 4.113281 21.902344 4.078125 21.882812 4.046875 21.855469 C 3.988281 21.800781 3.976562 21.839844 4.03125 21.902344 C 4.0625 21.9375 4.058594 21.9375 4.019531 21.90625 C 3.976562 21.875 3.964844 21.875 3.964844 21.902344 C 3.964844 21.925781 3.957031 21.9375 3.949219 21.925781 C 3.921875 21.894531 3.992188 21.792969 4.058594 21.773438 C 4.105469 21.757812 4.109375 21.746094 4.082031 21.730469 C 4.058594 21.714844 4.039062 21.683594 4.035156 21.660156 C 4.035156 21.632812 4.042969 21.617188 4.058594 21.628906 C 4.070312 21.640625 4.074219 21.660156 4.066406 21.679688 C 4.054688 21.699219 4.054688 21.707031 4.070312 21.695312 C 4.082031 21.683594 4.117188 21.703125 4.144531 21.738281 C 4.171875 21.773438 4.195312 21.792969 4.199219 21.785156 C 4.199219 21.773438 4.097656 21.628906 3.972656 21.460938 C 3.851562 21.292969 3.679688 21.050781 3.589844 20.917969 C 3.503906 20.785156 3.417969 20.679688 3.402344 20.679688 C 3.382812 20.679688 3.382812 20.691406 3.40625 20.707031 C 3.4375 20.726562 3.4375 20.734375 3.398438 20.75 C 3.328125 20.777344 3.289062 20.769531 3.308594 20.738281 C 3.320312 20.71875 3.316406 20.707031 3.304688 20.707031 C 3.269531 20.707031 3.265625 20.597656 3.296875 20.578125 C 3.3125 20.566406 3.324219 20.589844 3.324219 20.632812 C 3.324219 20.671875 3.339844 20.714844 3.359375 20.726562 C 3.378906 20.738281 3.382812 20.734375 3.371094 20.714844 C 3.363281 20.695312 3.367188 20.671875 3.382812 20.664062 C 3.421875 20.640625 3.351562 20.519531 3.253906 20.4375 C 3.222656 20.40625 3.210938 20.394531 3.234375 20.40625 C 3.257812 20.417969 3.230469 20.34375 3.171875 20.238281 C 3.109375 20.136719 2.980469 19.894531 2.882812 19.703125 C 2.785156 19.507812 2.699219 19.347656 2.695312 19.339844 C 2.6875 19.332031 2.664062 19.34375 2.644531 19.367188 C 2.628906 19.386719 2.625 19.394531 2.640625 19.386719 C 2.65625 19.378906 2.6875 19.394531 2.707031 19.429688 C 2.753906 19.5 2.726562 19.496094 2.648438 19.425781 C 2.613281 19.394531 2.597656 19.367188 2.609375 19.367188 C 2.621094 19.367188 2.617188 19.347656 2.597656 19.324219 C 2.574219 19.296875 2.566406 19.269531 2.578125 19.257812 C 2.585938 19.25 2.597656 19.253906 2.597656 19.273438 C 2.597656 19.292969 2.617188 19.308594 2.640625 19.308594 C 2.675781 19.308594 2.671875 19.28125 2.617188 19.167969 C 2.582031 19.09375 2.539062 19.023438 2.527344 19.015625 C 2.515625 19.003906 2.503906 18.988281 2.503906 18.976562 C 2.515625 18.917969 2.503906 18.898438 2.472656 18.917969 C 2.453125 18.929688 2.449219 18.925781 2.460938 18.902344 C 2.488281 18.863281 2.335938 18.460938 2.296875 18.460938 C 2.285156 18.460938 2.277344 18.449219 2.285156 18.4375 C 2.3125 18.394531 2.242188 18.226562 2.207031 18.25 C 2.191406 18.257812 2.1875 18.253906 2.199219 18.234375 C 2.210938 18.21875 2.164062 18.027344 2.097656 17.816406 C 2.027344 17.601562 1.96875 17.414062 1.964844 17.398438 C 1.964844 17.378906 1.914062 17.179688 1.855469 16.945312 C 1.800781 16.710938 1.734375 16.425781 1.71875 16.308594 C 1.699219 16.191406 1.675781 16.109375 1.664062 16.125 C 1.65625 16.140625 1.644531 16.085938 1.644531 16.003906 C 1.640625 15.917969 1.617188 15.679688 1.589844 15.472656 C 1.496094 14.761719 1.496094 13.242188 1.59375 12.472656 C 1.609375 12.359375 1.605469 12.335938 1.5625 12.335938 C 1.535156 12.335938 1.515625 12.324219 1.515625 12.3125 C 1.515625 12.296875 1.539062 12.289062 1.570312 12.300781 C 1.617188 12.3125 1.628906 12.289062 1.644531 12.136719 C 1.65625 12.035156 1.65625 11.945312 1.648438 11.929688 C 1.640625 11.910156 1.640625 11.898438 1.65625 11.898438 C 1.671875 11.898438 1.695312 11.839844 1.707031 11.761719 C 1.722656 11.648438 1.71875 11.621094 1.675781 11.589844 C 1.636719 11.558594 1.632812 11.550781 1.664062 11.550781 C 1.699219 11.550781 1.699219 11.542969 1.664062 11.519531 C 1.632812 11.503906 1.628906 11.492188 1.65625 11.492188 C 1.675781 11.492188 1.691406 11.476562 1.691406 11.460938 C 1.691406 11.445312 1.679688 11.4375 1.667969 11.445312 C 1.65625 11.449219 1.640625 11.433594 1.640625 11.402344 C 1.636719 11.351562 1.640625 11.351562 1.679688 11.386719 C 1.703125 11.414062 1.71875 11.460938 1.710938 11.507812 C 1.699219 11.546875 1.710938 11.578125 1.722656 11.578125 C 1.738281 11.578125 1.75 11.558594 1.75 11.53125 C 1.75 11.480469 1.941406 10.691406 1.972656 10.605469 C 1.984375 10.570312 1.984375 10.554688 1.964844 10.566406 C 1.949219 10.574219 1.933594 10.554688 1.933594 10.519531 C 1.929688 10.472656 1.933594 10.46875 1.953125 10.5 C 1.972656 10.53125 1.984375 10.523438 2.011719 10.460938 C 2.035156 10.398438 2.035156 10.367188 2.011719 10.34375 C 1.988281 10.320312 1.984375 10.324219 1.996094 10.355469 C 2.023438 10.425781 1.957031 10.457031 1.902344 10.402344 C 1.871094 10.371094 1.867188 10.355469 1.890625 10.355469 C 1.910156 10.355469 1.925781 10.367188 1.925781 10.382812 C 1.925781 10.398438 1.941406 10.414062 1.957031 10.414062 C 1.972656 10.414062 1.984375 10.394531 1.972656 10.371094 C 1.964844 10.347656 1.980469 10.3125 2.007812 10.289062 C 2.039062 10.265625 2.046875 10.261719 2.03125 10.285156 C 2.019531 10.308594 2.019531 10.324219 2.035156 10.324219 C 2.050781 10.324219 2.070312 10.289062 2.078125 10.242188 C 2.089844 10.199219 2.105469 10.136719 2.117188 10.109375 C 2.136719 10.066406 2.128906 10.058594 2.097656 10.074219 C 2.066406 10.089844 2.066406 10.085938 2.101562 10.058594 C 2.125 10.035156 2.167969 9.960938 2.195312 9.890625 C 2.234375 9.789062 2.238281 9.753906 2.207031 9.734375 C 2.183594 9.722656 2.1875 9.710938 2.226562 9.710938 C 2.269531 9.710938 2.285156 9.675781 2.285156 9.574219 C 2.28125 9.554688 2.292969 9.539062 2.304688 9.539062 C 2.339844 9.539062 2.425781 9.28125 2.402344 9.242188 C 2.390625 9.222656 2.394531 9.214844 2.410156 9.226562 C 2.425781 9.234375 2.484375 9.136719 2.542969 9.003906 C 2.632812 8.800781 2.640625 8.757812 2.605469 8.730469 C 2.582031 8.710938 2.574219 8.6875 2.589844 8.679688 C 2.609375 8.671875 2.613281 8.636719 2.605469 8.605469 C 2.597656 8.570312 2.605469 8.546875 2.621094 8.546875 C 2.640625 8.546875 2.652344 8.554688 2.652344 8.566406 C 2.640625 8.621094 2.65625 8.664062 2.6875 8.664062 C 2.703125 8.664062 2.710938 8.640625 2.699219 8.617188 C 2.691406 8.59375 2.695312 8.578125 2.710938 8.585938 C 2.75 8.613281 2.800781 8.46875 2.761719 8.433594 C 2.734375 8.40625 2.738281 8.398438 2.769531 8.414062 C 2.804688 8.425781 2.839844 8.378906 2.90625 8.242188 C 2.964844 8.132812 2.988281 8.042969 2.976562 8.035156 C 2.9375 8.011719 2.9375 7.960938 2.976562 7.960938 C 2.992188 7.960938 3 7.972656 2.988281 7.992188 C 2.980469 8.007812 2.980469 8.019531 2.996094 8.019531 C 3.007812 8.019531 3.105469 7.871094 3.210938 7.695312 C 3.394531 7.382812 3.402344 7.363281 3.34375 7.335938 C 3.292969 7.308594 3.269531 7.253906 3.316406 7.269531 C 3.332031 7.273438 3.335938 7.285156 3.332031 7.296875 C 3.328125 7.3125 3.347656 7.320312 3.378906 7.320312 C 3.453125 7.320312 3.523438 7.207031 3.515625 7.109375 C 3.507812 7.0625 3.515625 7.035156 3.527344 7.042969 C 3.542969 7.050781 3.550781 7.078125 3.539062 7.101562 C 3.515625 7.167969 3.546875 7.15625 3.597656 7.074219 C 3.660156 6.984375 3.613281 6.855469 3.527344 6.875 C 3.492188 6.886719 3.472656 6.875 3.472656 6.84375 C 3.472656 6.777344 3.550781 6.761719 3.585938 6.824219 C 3.632812 6.914062 3.71875 6.878906 3.835938 6.730469 C 3.894531 6.652344 3.933594 6.589844 3.921875 6.589844 C 3.90625 6.589844 3.917969 6.574219 3.941406 6.554688 C 4.011719 6.492188 4.207031 6.238281 4.191406 6.222656 C 4.183594 6.214844 4.152344 6.246094 4.117188 6.289062 C 4.070312 6.34375 4.054688 6.351562 4.054688 6.316406 C 4.054688 6.292969 4.070312 6.269531 4.09375 6.269531 C 4.109375 6.269531 4.09375 6.25 4.050781 6.226562 C 3.976562 6.1875 3.921875 6.101562 3.953125 6.074219 C 3.960938 6.0625 3.964844 6.074219 3.964844 6.097656 C 3.964844 6.125 3.976562 6.125 4.019531 6.09375 C 4.058594 6.0625 4.0625 6.0625 4.03125 6.097656 C 3.976562 6.15625 3.988281 6.199219 4.046875 6.148438 C 4.105469 6.097656 4.203125 6.054688 4.238281 6.0625 C 4.25 6.0625 4.257812 6.050781 4.257812 6.03125 C 4.257812 6.015625 4.265625 6.007812 4.277344 6.015625 C 4.289062 6.027344 4.277344 6.054688 4.257812 6.082031 C 4.238281 6.105469 4.230469 6.125 4.246094 6.128906 C 4.261719 6.128906 4.242188 6.140625 4.203125 6.152344 C 4.160156 6.164062 4.125 6.1875 4.117188 6.210938 C 4.105469 6.246094 4.113281 6.25 4.148438 6.222656 C 4.171875 6.199219 4.195312 6.191406 4.207031 6.199219 C 4.230469 6.222656 4.347656 6.0625 4.324219 6.027344 C 4.316406 6.015625 4.320312 6.007812 4.335938 6.015625 C 4.351562 6.027344 4.433594 5.957031 4.515625 5.863281 C 4.65625 5.703125 4.703125 5.632812 4.640625 5.671875 C 4.625 5.683594 4.601562 5.675781 4.59375 5.660156 C 4.578125 5.636719 4.5625 5.636719 4.539062 5.65625 C 4.511719 5.679688 4.5 5.675781 4.5 5.648438 C 4.5 5.613281 4.566406 5.601562 4.601562 5.628906 C 4.65625 5.675781 5.035156 5.359375 4.996094 5.300781 C 4.988281 5.28125 4.992188 5.277344 5.015625 5.289062 C 5.03125 5.300781 5.054688 5.292969 5.058594 5.269531 C 5.101562 5.167969 6.1875 4.21875 6.613281 3.917969 C 6.714844 3.84375 6.789062 3.773438 6.78125 3.761719 C 6.773438 3.746094 6.78125 3.726562 6.796875 3.714844 C 6.820312 3.703125 6.820312 3.691406 6.796875 3.675781 C 6.769531 3.65625 6.777344 3.644531 6.820312 3.632812 C 6.855469 3.621094 6.875 3.597656 6.867188 3.582031 C 6.855469 3.5625 6.859375 3.558594 6.878906 3.570312 C 6.894531 3.582031 6.925781 3.5625 6.949219 3.527344 C 6.992188 3.460938 7.046875 3.453125 7.066406 3.515625 C 7.085938 3.5625 7.082031 3.566406 6.933594 3.617188 C 6.871094 3.632812 6.828125 3.660156 6.835938 3.667969 C 6.84375 3.679688 6.839844 3.703125 6.820312 3.722656 C 6.761719 3.792969 6.820312 3.765625 7.074219 3.597656 C 7.304688 3.445312 7.363281 3.382812 7.289062 3.382812 C 7.273438 3.382812 7.269531 3.394531 7.277344 3.414062 C 7.285156 3.425781 7.28125 3.441406 7.265625 3.441406 C 7.226562 3.441406 7.226562 3.433594 7.25 3.367188 C 7.269531 3.328125 7.273438 3.328125 7.316406 3.367188 C 7.363281 3.40625 7.375 3.402344 7.453125 3.351562 C 7.5 3.320312 7.648438 3.234375 7.78125 3.160156 C 7.914062 3.082031 8.019531 3.011719 8.019531 3 C 8.019531 2.984375 8.003906 2.980469 7.984375 2.992188 C 7.964844 3.003906 7.957031 3.003906 7.96875 2.988281 C 7.980469 2.976562 7.976562 2.941406 7.960938 2.90625 C 7.9375 2.863281 7.949219 2.871094 7.992188 2.921875 L 8.054688 3 L 8.210938 2.925781 C 8.296875 2.882812 8.359375 2.835938 8.351562 2.820312 C 8.339844 2.804688 8.347656 2.800781 8.363281 2.8125 C 8.40625 2.839844 8.546875 2.769531 8.527344 2.734375 C 8.515625 2.714844 8.523438 2.710938 8.535156 2.722656 C 8.554688 2.734375 8.691406 2.683594 8.839844 2.613281 C 8.992188 2.542969 9.210938 2.449219 9.328125 2.40625 C 9.441406 2.359375 9.539062 2.3125 9.539062 2.296875 C 9.539062 2.285156 9.550781 2.277344 9.5625 2.285156 C 9.601562 2.308594 9.945312 2.183594 9.929688 2.152344 C 9.917969 2.136719 9.902344 2.136719 9.886719 2.144531 C 9.871094 2.152344 9.855469 2.148438 9.847656 2.132812 C 9.828125 2.101562 9.882812 2.105469 9.9375 2.136719 C 9.976562 2.164062 10.390625 2.046875 10.40625 2.007812 C 10.414062 1.996094 10.425781 1.988281 10.4375 1.996094 C 10.449219 2.003906 10.523438 1.992188 10.605469 1.972656 C 10.699219 1.945312 10.746094 1.917969 10.738281 1.894531 C 10.730469 1.863281 10.738281 1.859375 10.761719 1.882812 C 10.785156 1.90625 10.886719 1.894531 11.136719 1.835938 C 11.324219 1.789062 11.574219 1.738281 11.6875 1.71875 C 11.804688 1.699219 11.890625 1.675781 11.886719 1.664062 C 11.875 1.648438 11.894531 1.644531 11.921875 1.652344 C 11.949219 1.660156 12.050781 1.652344 12.148438 1.636719 C 12.246094 1.617188 12.394531 1.597656 12.484375 1.59375 C 12.570312 1.582031 12.800781 1.5625 12.992188 1.546875 C 13.1875 1.527344 13.742188 1.515625 14.234375 1.519531 C 15.230469 1.527344 15.203125 1.527344 15.183594 1.492188 C 15.179688 1.480469 15.195312 1.46875 15.226562 1.46875 C 15.253906 1.46875 15.273438 1.480469 15.261719 1.496094 Z M 15.261719 1.496094 " fill="#11A642"/>
<path style=" stroke:none;fill-rule:nonzero;fill-opacity:1;" d="M 7.691406 7.058594 C 7.683594 7.089844 7.660156 7.117188 7.636719 7.113281 C 7.605469 7.113281 7.605469 7.109375 7.636719 7.097656 C 7.71875 7.0625 7.660156 7.03125 7.527344 7.039062 C 7.363281 7.054688 6.984375 7.207031 6.992188 7.257812 C 6.996094 7.273438 6.984375 7.28125 6.960938 7.273438 C 6.902344 7.253906 6.523438 7.609375 6.546875 7.660156 C 6.554688 7.683594 6.550781 7.695312 6.535156 7.683594 C 6.519531 7.675781 6.492188 7.695312 6.476562 7.730469 C 6.457031 7.761719 6.453125 7.789062 6.464844 7.789062 C 6.476562 7.789062 6.464844 7.804688 6.4375 7.824219 C 6.410156 7.84375 6.359375 7.9375 6.324219 8.035156 L 6.257812 8.210938 L 6.246094 13.175781 C 6.246094 15.90625 6.25 18.140625 6.261719 18.140625 C 6.277344 18.140625 6.285156 18.183594 6.289062 18.238281 C 6.292969 18.359375 6.417969 18.640625 6.566406 18.832031 C 6.699219 19.015625 6.984375 19.234375 7.03125 19.203125 C 7.050781 19.191406 7.058594 19.195312 7.050781 19.210938 C 7.027344 19.246094 7.246094 19.347656 7.441406 19.394531 C 7.511719 19.410156 7.960938 19.425781 8.453125 19.425781 L 9.332031 19.425781 L 9.332031 20.898438 C 9.332031 21.707031 9.339844 22.371094 9.34375 22.371094 C 9.394531 22.371094 9.96875 21.980469 9.953125 21.953125 C 9.945312 21.9375 9.953125 21.933594 9.96875 21.945312 C 9.988281 21.957031 10.132812 21.886719 10.292969 21.785156 C 10.519531 21.644531 10.582031 21.59375 10.574219 21.550781 C 10.566406 21.519531 10.574219 21.5 10.585938 21.511719 C 10.601562 21.519531 10.621094 21.511719 10.632812 21.496094 C 10.640625 21.480469 10.664062 21.464844 10.679688 21.464844 C 10.695312 21.464844 10.679688 21.492188 10.644531 21.523438 C 10.539062 21.609375 10.597656 21.59375 10.765625 21.492188 C 10.863281 21.433594 10.902344 21.390625 10.882812 21.371094 C 10.867188 21.355469 10.863281 21.320312 10.875 21.292969 C 10.886719 21.257812 10.882812 21.253906 10.847656 21.28125 C 10.800781 21.320312 10.703125 21.28125 10.742188 21.242188 C 10.757812 21.230469 10.777344 21.238281 10.792969 21.261719 C 10.816406 21.296875 10.824219 21.292969 10.839844 21.238281 C 10.867188 21.140625 10.929688 21.167969 10.910156 21.269531 C 10.90625 21.304688 10.988281 21.296875 11.011719 21.261719 C 11.019531 21.246094 11.042969 21.234375 11.0625 21.234375 C 11.082031 21.234375 11.070312 21.253906 11.035156 21.277344 C 11.007812 21.300781 10.953125 21.320312 10.925781 21.320312 C 10.882812 21.320312 10.875 21.328125 10.898438 21.351562 C 10.921875 21.375 11.082031 21.292969 11.507812 21.027344 C 11.921875 20.765625 12.070312 20.660156 12.046875 20.636719 C 12.023438 20.613281 12.003906 20.621094 11.976562 20.65625 C 11.921875 20.730469 11.910156 20.722656 11.910156 20.625 C 11.910156 20.558594 11.921875 20.546875 11.984375 20.546875 C 12.027344 20.546875 12.058594 20.5625 12.058594 20.582031 C 12.058594 20.660156 12.109375 20.648438 12.273438 20.546875 C 12.390625 20.476562 12.445312 20.425781 12.441406 20.394531 C 12.429688 20.328125 12.453125 20.292969 12.484375 20.316406 C 12.503906 20.328125 12.503906 20.347656 12.480469 20.375 C 12.433594 20.429688 12.464844 20.429688 12.582031 20.355469 C 12.683594 20.292969 12.726562 20.25 12.648438 20.28125 C 12.625 20.289062 12.613281 20.269531 12.613281 20.226562 C 12.613281 20.183594 12.625 20.164062 12.652344 20.175781 C 12.683594 20.1875 12.683594 20.199219 12.660156 20.210938 C 12.636719 20.226562 12.636719 20.238281 12.671875 20.253906 C 12.738281 20.277344 12.785156 20.246094 12.75 20.199219 C 12.730469 20.179688 12.726562 20.152344 12.738281 20.140625 C 12.75 20.125 12.734375 20.125 12.703125 20.136719 C 12.65625 20.152344 12.652344 20.152344 12.679688 20.121094 C 12.722656 20.078125 12.8125 20.0625 12.785156 20.097656 C 12.777344 20.113281 12.792969 20.125 12.816406 20.125 C 12.839844 20.125 12.867188 20.109375 12.878906 20.097656 C 12.886719 20.078125 12.910156 20.066406 12.929688 20.066406 C 12.945312 20.066406 12.933594 20.085938 12.902344 20.109375 C 12.875 20.132812 12.820312 20.152344 12.792969 20.152344 C 12.75 20.152344 12.742188 20.164062 12.765625 20.1875 C 12.808594 20.226562 13.71875 19.671875 13.6875 19.621094 C 13.679688 19.601562 13.683594 19.601562 13.703125 19.613281 C 13.722656 19.625 13.8125 19.585938 13.90625 19.53125 L 14.074219 19.425781 L 17.253906 19.425781 C 20.746094 19.425781 20.59375 19.429688 20.941406 19.246094 C 21.144531 19.140625 21.285156 19.027344 21.414062 18.863281 C 21.480469 18.78125 21.492188 18.75 21.457031 18.761719 C 21.425781 18.773438 21.410156 18.773438 21.421875 18.753906 C 21.433594 18.738281 21.460938 18.726562 21.480469 18.726562 C 21.503906 18.726562 21.558594 18.660156 21.597656 18.578125 C 21.765625 18.246094 21.757812 18.527344 21.757812 13.234375 C 21.757812 8.410156 21.753906 8.042969 21.664062 8.097656 C 21.644531 8.109375 21.640625 8.101562 21.65625 8.082031 C 21.667969 8.0625 21.652344 7.992188 21.625 7.925781 L 21.570312 7.8125 L 21.535156 7.886719 C 21.488281 7.976562 21.480469 7.980469 21.476562 7.902344 C 21.472656 7.871094 21.480469 7.851562 21.492188 7.859375 C 21.507812 7.867188 21.523438 7.847656 21.535156 7.820312 C 21.550781 7.75 21.480469 7.640625 21.414062 7.640625 C 21.375 7.640625 21.375 7.636719 21.402344 7.617188 C 21.503906 7.550781 20.789062 7.050781 20.664062 7.097656 C 20.636719 7.109375 20.625 7.105469 20.636719 7.089844 C 20.644531 7.074219 20.601562 7.054688 20.542969 7.050781 C 20.480469 7.039062 20.410156 7.027344 20.386719 7.027344 C 20.363281 7.023438 17.5 7.015625 14.027344 7.007812 C 7.722656 7 7.707031 7 7.691406 7.058594 Z M 20.074219 8.480469 C 20.089844 8.5 15.933594 8.5 10.105469 8.480469 C 8.90625 8.476562 10.652344 8.46875 13.992188 8.464844 C 17.332031 8.460938 20.070312 8.46875 20.074219 8.480469 Z M 20.242188 13.226562 L 20.242188 17.910156 L 16.933594 17.910156 C 13.625 17.910156 13.625 17.910156 13.523438 17.96875 C 13.464844 18.003906 13.421875 18.042969 13.429688 18.054688 C 13.441406 18.066406 13.421875 18.074219 13.394531 18.070312 C 13.371094 18.070312 13.34375 18.082031 13.339844 18.097656 C 13.332031 18.117188 13.359375 18.128906 13.402344 18.128906 C 13.472656 18.128906 13.488281 18.105469 13.476562 18.039062 C 13.472656 18.023438 13.480469 18.019531 13.492188 18.035156 C 13.503906 18.046875 13.515625 18.082031 13.515625 18.121094 C 13.519531 18.171875 13.503906 18.1875 13.441406 18.183594 C 13.398438 18.183594 13.347656 18.167969 13.328125 18.152344 C 13.292969 18.125 13.25 18.140625 13.128906 18.21875 C 13.039062 18.269531 12.957031 18.332031 12.949219 18.347656 C 12.9375 18.367188 12.917969 18.378906 12.902344 18.382812 C 12.890625 18.386719 12.878906 18.398438 12.882812 18.410156 C 12.890625 18.421875 12.875 18.425781 12.855469 18.417969 C 12.8125 18.402344 12.394531 18.660156 12.394531 18.703125 C 12.394531 18.714844 12.382812 18.722656 12.371094 18.714844 C 12.335938 18.691406 12.15625 18.808594 12.175781 18.839844 C 12.183594 18.851562 12.171875 18.878906 12.148438 18.898438 C 12.125 18.921875 12.113281 18.949219 12.125 18.96875 C 12.132812 18.984375 12.128906 18.988281 12.109375 18.976562 C 12.066406 18.949219 12.066406 18.972656 12.105469 19.054688 C 12.132812 19.109375 12.128906 19.105469 12.078125 19.046875 C 12.015625 18.96875 11.996094 18.914062 12.042969 18.941406 C 12.054688 18.949219 12.089844 18.933594 12.117188 18.898438 C 12.1875 18.824219 12.152344 18.828125 12.027344 18.902344 L 11.925781 18.964844 L 12.003906 19.035156 C 12.042969 19.070312 12.074219 19.109375 12.074219 19.121094 C 12.074219 19.132812 12.039062 19.105469 12 19.0625 C 11.910156 18.972656 11.898438 18.972656 11.824219 19.035156 C 11.773438 19.074219 11.773438 19.078125 11.820312 19.0625 C 11.851562 19.054688 11.867188 19.058594 11.855469 19.070312 C 11.847656 19.085938 11.859375 19.105469 11.875 19.117188 C 11.898438 19.121094 11.886719 19.128906 11.851562 19.121094 C 11.816406 19.117188 11.777344 19.105469 11.765625 19.097656 C 11.738281 19.070312 11.546875 19.195312 11.570312 19.230469 C 11.578125 19.246094 11.574219 19.25 11.554688 19.238281 C 11.507812 19.210938 11.082031 19.480469 11.101562 19.527344 C 11.109375 19.546875 11.101562 19.574219 11.082031 19.585938 C 11.066406 19.59375 11.054688 19.59375 11.058594 19.578125 C 11.070312 19.519531 11.046875 19.511719 10.988281 19.554688 C 10.953125 19.578125 10.914062 19.601562 10.902344 19.601562 C 10.886719 19.601562 10.878906 19.21875 10.878906 18.753906 L 10.878906 17.910156 L 7.757812 17.910156 L 7.757812 8.546875 L 20.242188 8.546875 Z M 20.242188 13.226562 " fill="#11A642"/>
<path style=" stroke:none;fill-rule:nonzero;fill-opacity:1;" d="M 10.121094 11.667969 L 10.121094 12.425781 L 17.089844 12.425781 L 17.089844 10.910156 L 10.121094 10.910156 Z M 10.121094 11.667969 " fill="#11A642"/>
<path style=" stroke:none;fill-rule:nonzero;fill-opacity:1;" d="M 10.121094 14.773438 L 10.121094 15.546875 L 15.546875 15.546875 L 15.546875 14 L 10.121094 14 Z M 14.125 15.480469 C 13.414062 15.484375 12.253906 15.484375 11.542969 15.480469 C 10.832031 15.476562 11.414062 15.472656 12.832031 15.472656 C 14.253906 15.472656 14.835938 15.476562 14.125 15.480469 Z M 14.125 15.480469 " fill="#11A642"/>
</g>
</svg>
