<?xml version="1.0" standalone="no"?>
<!DOCTYPE svg PUBLIC "-//W3C//DTD SVG 20010904//EN"
 "http://www.w3.org/TR/2001/REC-SVG-20010904/DTD/svg10.dtd">
<svg version="1.0" xmlns="http://www.w3.org/2000/svg"
 width="104.000000pt" height="100.000000pt" viewBox="0 0 104.000000 100.000000"
 preserveAspectRatio="xMidYMid meet">
<metadata>
Created by potrace 1.16, written by Peter Selinger 2001-2019
</metadata>
<g transform="translate(0.000000,100.000000) scale(0.100000,-0.100000)"
fill="#000000" stroke="none">
<path d="M210 785 l0 -75 -30 0 -30 0 0 -65 0 -65 30 0 30 0 0 -125 c0 -143
12 -185 59 -209 31 -16 114 -21 170 -10 l31 7 0 72 0 72 -30 -5 c-51 -7 -60
10 -60 109 l0 89 45 0 45 0 0 65 0 65 -45 0 -45 0 0 75 0 75 -85 0 -85 0 0
-75z" fill="#0562D0"/>
<path d="M580 775 l0 -75 -30 0 -30 0 0 -65 0 -65 30 0 30 0 0 -140 c0 -140 0
-140 29 -172 25 -29 35 -32 95 -36 66 -4 151 12 162 30 4 6 1 36 -6 69 l-13
58 -42 -6 c-55 -7 -62 5 -63 115 l-1 82 50 0 49 0 0 65 0 65 -49 0 c-47 0 -49
1 -48 28 0 15 -1 48 -2 75 l-1 47 -80 0 -80 0 0 -75z" fill="#0562D0"/>
</g>
</svg>
