<?xml version="1.0" encoding="UTF-8"?> <svg xmlns="http://www.w3.org/2000/svg" width="74" height="74" viewBox="0 0 74 74" fill="none"> <path fill-rule="evenodd" clip-rule="evenodd" d="M32.381 6.9375C18.3321 6.9375 6.94336 18.3263 6.94336 32.3751C6.94336 46.4237 18.3321 57.8126 32.381 57.8126C38.5717 57.8126 44.2488 55.5985 48.6585 51.9232L64.5689 67.8335C65.472 68.7366 66.9362 68.7366 67.8394 67.8335C68.7422 66.9303 68.7422 65.4661 67.8394 64.563L51.929 48.6527C55.6044 44.2429 57.8185 38.5658 57.8185 32.3751C57.8185 18.3263 46.4296 6.9375 32.381 6.9375ZM11.5684 32.3751C11.5684 20.8805 20.8864 11.5625 32.381 11.5625C43.8754 11.5625 53.1935 20.8805 53.1935 32.3751C53.1935 38.1228 50.8665 43.3228 47.0975 47.0916C43.3287 50.8606 38.1287 53.1876 32.381 53.1876C20.8864 53.1876 11.5684 43.8695 11.5684 32.3751Z" fill="white"></path> </svg> 