<svg width="187" height="42" viewBox="0 0 187 42" fill="none" xmlns="http://www.w3.org/2000/svg">
<path d="M18.54 28.34L23.62 12.58H25.8L20.7 28.34H18.54Z" fill="#1CA5D3"/>
<path d="M36.2664 27.5V14.68H31.2064V13.44H42.6864V14.68H37.6464V27.5H36.2664ZM42.3548 27.5V17.44H43.6948V19.22C43.6948 19.66 43.6548 20.02 43.6548 20.02H43.6948C44.1748 18.5 45.2948 17.34 46.8748 17.34C47.1548 17.34 47.4148 17.4 47.4148 17.4V18.74C47.4148 18.74 47.1748 18.7 46.9148 18.7C45.4948 18.7 44.4348 19.82 43.9948 21.3C43.7948 21.94 43.7148 22.62 43.7148 23.26V27.5H42.3548ZM48.6638 24.76C48.6638 21.36 53.0838 21.28 54.8238 21.28H55.3838V21.02C55.3838 19.08 54.3238 18.42 52.8838 18.42C51.2238 18.42 50.0438 19.38 50.0438 19.38L49.4038 18.34C49.4038 18.34 50.7238 17.2 52.9837 17.2C55.4038 17.2 56.7438 18.54 56.7438 21.06V27.5H55.4438V26.4C55.4438 25.9 55.4838 25.56 55.4838 25.56H55.4438C55.4438 25.56 54.6038 27.74 52.0838 27.74C50.4038 27.74 48.6638 26.76 48.6638 24.76ZM50.0638 24.68C50.0638 25.62 50.8038 26.58 52.3038 26.58C54.2238 26.58 55.3838 24.58 55.3838 22.84V22.4H54.8038C53.2238 22.4 50.0638 22.46 50.0638 24.68ZM59.8344 15.14V13.44H61.2544V15.14H59.8344ZM59.8744 27.5V17.44H61.2344V27.5H59.8744ZM64.5228 27.5V17.44H65.8628V18.94C65.8628 19.38 65.8228 19.74 65.8228 19.74H65.8628C66.2228 18.82 67.5028 17.2 69.8828 17.2C72.3628 17.2 73.2428 18.62 73.2428 21.1V27.5H71.8828V21.46C71.8828 19.88 71.6428 18.48 69.7028 18.48C67.9828 18.48 66.5028 19.66 66.0428 21.32C65.9228 21.74 65.8828 22.2 65.8828 22.68V27.5H64.5228ZM76.3383 15.14V13.44H77.7583V15.14H76.3383ZM76.3783 27.5V17.44H77.7383V27.5H76.3783ZM81.0267 27.5V17.44H82.3667V18.94C82.3667 19.38 82.3267 19.74 82.3267 19.74H82.3667C82.7267 18.82 84.0067 17.2 86.3867 17.2C88.8667 17.2 89.7467 18.62 89.7467 21.1V27.5H88.3867V21.46C88.3867 19.88 88.1467 18.48 86.2067 18.48C84.4867 18.48 83.0067 19.66 82.5467 21.32C82.4267 21.74 82.3867 22.2 82.3867 22.68V27.5H81.0267ZM93.6422 29.78C93.6422 29.78 94.8822 30.48 96.3622 30.48C98.3222 30.48 99.8822 29.56 99.8822 27.32V26.4C99.8822 26.02 99.9222 25.68 99.9222 25.68H99.8822C99.2822 26.8 98.2622 27.44 96.7022 27.44C94.0022 27.44 92.2222 25.3 92.2222 22.28C92.2222 19.26 93.8822 17.2 96.5822 17.2C99.2422 17.2 99.9022 18.88 99.9022 18.88H99.9422C99.9422 18.88 99.9222 18.76 99.9222 18.54V17.44H101.242V27.26C101.242 30.46 98.8822 31.7 96.4222 31.7C95.2622 31.7 94.1022 31.4 93.1222 30.9L93.6422 29.78ZM96.9222 26.22C98.5022 26.22 99.9022 25.24 99.9022 22.28C99.9022 19.34 98.5022 18.44 96.7222 18.44C94.7622 18.44 93.6222 19.86 93.6222 22.26C93.6222 24.66 94.9222 26.22 96.9222 26.22ZM109.354 20.38C109.354 16.3 112.394 13.2 116.414 13.2C119.774 13.2 121.474 15.02 121.474 15.02L120.734 16.04C120.734 16.04 119.094 14.48 116.454 14.48C113.154 14.48 110.794 17.04 110.794 20.36C110.794 23.72 113.154 26.46 116.494 26.46C119.334 26.46 121.054 24.58 121.054 24.58L121.854 25.56C121.854 25.56 119.934 27.74 116.474 27.74C112.314 27.74 109.354 24.48 109.354 20.38ZM123.745 22.48C123.745 19.18 125.985 17.2 128.705 17.2C131.485 17.2 132.905 19.34 132.905 21.84C132.905 22.08 132.865 22.54 132.865 22.54H125.145C125.205 25.12 126.965 26.52 129.045 26.52C130.885 26.52 132.105 25.3 132.105 25.3L132.725 26.34C132.725 26.34 131.265 27.74 129.005 27.74C126.005 27.74 123.745 25.58 123.745 22.48ZM125.205 21.42H131.525C131.445 19.32 130.165 18.34 128.665 18.34C126.985 18.34 125.525 19.4 125.205 21.42ZM135.499 27.5V17.44H136.839V18.94C136.839 19.38 136.799 19.74 136.799 19.74H136.839C137.199 18.82 138.479 17.2 140.859 17.2C143.339 17.2 144.219 18.62 144.219 21.1V27.5H142.859V21.46C142.859 19.88 142.619 18.48 140.679 18.48C138.959 18.48 137.479 19.66 137.019 21.32C136.899 21.74 136.859 22.2 136.859 22.68V27.5H135.499ZM147.735 23.84V18.7H146.415V17.56H147.755V14.66H149.095V17.56H151.615V18.7H149.095V23.7C149.095 26.06 150.595 26.36 151.355 26.36C151.635 26.36 151.815 26.32 151.815 26.32V27.54C151.815 27.54 151.595 27.58 151.235 27.58C150.075 27.58 147.735 27.2 147.735 23.84ZM153.354 22.48C153.354 19.18 155.594 17.2 158.314 17.2C161.094 17.2 162.514 19.34 162.514 21.84C162.514 22.08 162.474 22.54 162.474 22.54H154.754C154.814 25.12 156.574 26.52 158.654 26.52C160.494 26.52 161.714 25.3 161.714 25.3L162.334 26.34C162.334 26.34 160.874 27.74 158.614 27.74C155.614 27.74 153.354 25.58 153.354 22.48ZM154.814 21.42H161.134C161.054 19.32 159.774 18.34 158.274 18.34C156.594 18.34 155.134 19.4 154.814 21.42ZM165.109 27.5V17.44H166.449V19.22C166.449 19.66 166.409 20.02 166.409 20.02H166.449C166.929 18.5 168.049 17.34 169.629 17.34C169.909 17.34 170.169 17.4 170.169 17.4V18.74C170.169 18.74 169.929 18.7 169.669 18.7C168.249 18.7 167.189 19.82 166.749 21.3C166.549 21.94 166.469 22.62 166.469 23.26V27.5H165.109Z" fill="#1D1E26"/>
</svg>
