<svg id="Слой_1" data-name="Слой 1" xmlns="http://www.w3.org/2000/svg" viewBox="0 0 50 50"><defs><style>.cls-1,.cls-3{fill:#fff;}.cls-1{fill-opacity:0;}.cls-2{fill:#2c85f2;}</style></defs><title>1</title><rect id="Rectangle-695" class="cls-1" width="50" height="50"/><path d="M49,22H42V1a1,1,0,0,0-1-1H1A1,1,0,0,0,0,1V33a1,1,0,0,0,1,1H8v7a1,1,0,0,0,1.56.83L21.3,34H22v7a1,1,0,0,0,1,1h5.7l11.75,7.83A1,1,0,0,0,42,49V42h7a1,1,0,0,0,1-1V23a1,1,0,0,0-1-1Z"/><path class="cls-2" d="M21,32a1,1,0,0,0-.56.17L10,39.13V33a1,1,0,0,0-1-1H2V2H40V32Z"/><path class="cls-3" d="M48,40H41a1,1,0,0,0-1,1v6.13l-10.44-7A1,1,0,0,0,29,40H24V34H41a1,1,0,0,0,1-1V24h6V40Z"/></svg>