<svg id="Layer_1" data-name="Layer 1" xmlns="http://www.w3.org/2000/svg" viewBox="0 0 100.75 100.75"><defs><style>.cls-1{fill:#2c85f2;}</style></defs><title>25fn_moneybox</title><path d="M26.83,41.65a5,5,0,1,0,5-5A5,5,0,0,0,26.83,41.65Zm7.15,0a2.12,2.12,0,1,1-2.12-2.12A2.12,2.12,0,0,1,34,41.65Z"/><path d="M76.43,26A1.45,1.45,0,1,0,75,28.6C85,34,91,42.84,91,52.12,91,60.67,87.56,67,79.9,72.59a1.47,1.47,0,0,0-.56.86l-2.86,12.9H71.11l-1.71-6.57a1.45,1.45,0,0,0-1.91-1c-4.76,1.77-8.36,2.33-14.83,2.33-6.15,0-10.54-.43-16.14-2.71a1.45,1.45,0,0,0-2,1l-1.65,6.94H27.59L24.77,72.43a1.45,1.45,0,0,0-.61-.92C12.06,63.37,5.93,56.33,5.93,50.61V45.13a4,4,0,0,1,3.72-4.27h6.74a1.46,1.46,0,0,0,1.39-.7,31,31,0,0,1,9-9.35,1.45,1.45,0,0,0,.62-1.19V17.54a12.5,12.5,0,0,1,10.24,7.27,1.45,1.45,0,1,0,2.68-1.12,15.53,15.53,0,0,0-14.37-9.13A1.45,1.45,0,0,0,24.49,16V28.87A33.92,33.92,0,0,0,15.72,38H9.64A6.92,6.92,0,0,0,3,45.13v5.49c0,9.84,13.76,19.42,19,23L25,88.09a1.45,1.45,0,0,0,1.42,1.16h7.65a1.45,1.45,0,0,0,1.41-1.12L37,81.7C42.31,83.63,46.72,84,52.66,84,58.14,84,62,83.7,67,82l1.59,6.13A1.45,1.45,0,0,0,70,89.26h7.65a1.45,1.45,0,0,0,1.42-1.14l3-13.51c8.06-6.06,11.83-13.22,11.83-22.49C93.89,41.76,87.36,32,76.43,26Z"/><path d="M47.67,30.17a1.42,1.42,0,0,0,1.14-.47,11.53,11.53,0,0,1,8.46-3.45,11.3,11.3,0,0,1,8.4,3.53,1.45,1.45,0,0,0,1.07.48h.06a1.45,1.45,0,0,0,1.09-.57,13.27,13.27,0,0,0,2.78-8.17A13.4,13.4,0,1,0,46.58,29.6,1.45,1.45,0,0,0,47.67,30.17Z"/><path class="cls-1" d="M57.27,11A10.51,10.51,0,0,1,67.76,21.51a10.38,10.38,0,0,1-1.28,5,14.45,14.45,0,0,0-9.21-3.21A14.67,14.67,0,0,0,48,26.47,10.5,10.5,0,0,1,57.27,11Z"/></svg>