<svg id="Layer_1" data-name="Layer 1" xmlns="http://www.w3.org/2000/svg" viewBox="0 0 100.4 100.4"><defs><style>.cls-1{fill:#2c85f2;}.cls-2{fill:#fff;stroke:#000;stroke-miterlimit:10;}</style></defs><title>3st_man</title><path d="M50,54.1A37.94,37.94,0,0,0,12.1,92a1.54,1.54,0,0,0,1.5,1.5H86.3A1.54,1.54,0,0,0,87.8,92,37.79,37.79,0,0,0,50,54.1Z"/><path class="cls-1" d="M50,57.1a33.65,33.65,0,0,1,13.1,2.6L50.5,69,37,59.7A33.16,33.16,0,0,1,50,57.1Z"/><path class="cls-2" d="M15.2,90.5A35.16,35.16,0,0,1,33.8,61.1L49.7,72a1.6,1.6,0,0,0,.8.3,1.61,1.61,0,0,0,.9-.3L66.2,61.1A34.69,34.69,0,0,1,84.8,90.5Z"/><path d="M49.4,50A21.8,21.8,0,1,0,27.6,28.2,21.85,21.85,0,0,0,49.4,50Zm0-40.5a18.75,18.75,0,0,1,17.5,12c-.9-.5-2-1.1-3-1.7-4.2-2.5-7.1-4.1-9-3.9-3.8.3-6,1.8-8.4,3.3a30,30,0,0,1-4.4,2.4l-.5.2c-3.7,1.5-6,2.5-10.5,3A18.51,18.51,0,0,1,49.4,9.5ZM30.6,27.8a33.35,33.35,0,0,0,12-3.3l.5-.2A27.62,27.62,0,0,0,48,21.6c2.2-1.4,4.1-2.6,7.1-2.8,1.1-.1,4.9,2.2,7.2,3.5a27.43,27.43,0,0,0,5.6,2.9,15.26,15.26,0,0,1,.3,3,18.8,18.8,0,1,1-37.6,0Z"/></svg>