<svg id="Layer_1" data-name="Layer 1" xmlns="http://www.w3.org/2000/svg" viewBox="0 0 100.35 100.35"><defs><style>.cls-1{fill:#2c85f2;}.cls-2{fill:#fff;stroke:#000;stroke-miterlimit:10;}</style></defs><title>5ev_couple</title><path d="M31.28,52A17.11,17.11,0,1,0,14.16,34.93,17.13,17.13,0,0,0,31.28,52Zm0-31.22A14.11,14.11,0,1,1,17.17,34.93,14.13,14.13,0,0,1,31.28,20.82Z"/><path d="M31.27,45.43a7.27,7.27,0,0,0,6.95-5.06,1.5,1.5,0,1,0-2.86-.92,4.3,4.3,0,0,1-8.18,0,1.5,1.5,0,0,0-2.86.91A7.26,7.26,0,0,0,31.27,45.43Z"/><path d="M71.24,47.28A26.7,26.7,0,0,0,49.35,58.72l-.07.11-.6,1A29.51,29.51,0,0,0,2.23,84.06a1.5,1.5,0,0,0,1.5,1.5H59.79a1.5,1.5,0,0,0,1.5-1.5A29.44,29.44,0,0,0,60,75.44H96.39a1.5,1.5,0,0,0,1.5-1.5A26.69,26.69,0,0,0,71.24,47.28Z"/><path class="cls-1" d="M5.28,82.56a26.53,26.53,0,0,1,53,0Z"/><path class="cls-2" d="M58.91,72.44a29.68,29.68,0,0,0-7.84-10.7l.78-1.35a23.66,23.66,0,0,1,43,12.06Z"/><path d="M70.8,45.36A15.51,15.51,0,1,0,55.29,29.85,15.53,15.53,0,0,0,70.8,45.36Zm0-28A12.51,12.51,0,1,1,58.29,29.85,12.53,12.53,0,0,1,70.8,17.34Z"/><path d="M70.8,39.42a5.83,5.83,0,0,0,5.57-4.06,1.5,1.5,0,0,0-2.86-.92,2.85,2.85,0,0,1-5.43,0,1.5,1.5,0,1,0-2.86.92A5.83,5.83,0,0,0,70.8,39.42Z"/></svg>