<?xml version="1.0" encoding="UTF-8"?> <svg xmlns="http://www.w3.org/2000/svg" width="512" height="512" viewBox="0 0 512 512" fill="none"> <path d="M382.5 234.868H335.5C327.216 234.868 320.5 228.152 320.5 219.868C320.5 211.584 327.216 204.868 335.5 204.868H382.5C390.784 204.868 397.5 211.584 397.5 219.868C397.5 228.152 390.784 234.868 382.5 234.868Z" fill="#2C85F2"></path> <path d="M459.5 294.868H335.5C327.216 294.868 320.5 288.152 320.5 279.868C320.5 271.584 327.216 264.868 335.5 264.868H459.5C467.784 264.868 474.5 271.584 474.5 279.868C474.5 288.152 467.784 294.868 459.5 294.868Z" fill="#2C85F2"></path> <path d="M422.665 354.868H335.5C327.216 354.868 320.5 348.152 320.5 339.868C320.5 331.584 327.216 324.868 335.5 324.868H422.665C430.949 324.868 437.665 331.584 437.665 339.868C437.665 348.152 430.949 354.868 422.665 354.868Z" fill="#2C85F2"></path> <path d="M474.5 71.5H448.239C444.096 71.5 440.739 74.857 440.739 79C440.739 83.143 444.096 86.5 448.239 86.5H474.5C486.906 86.5 497 96.594 497 109V143.5H15V109C15 96.594 25.093 86.5 37.5 86.5H415.309C419.452 86.5 422.809 83.143 422.809 79C422.809 74.857 419.452 71.5 415.309 71.5H37.5C16.822 71.5 0 88.322 0 109V191.681C0 195.824 3.358 199.181 7.5 199.181C11.642 199.181 15 195.824 15 191.681V158.5H497V351.866C497 356.009 500.357 359.366 504.5 359.366C508.643 359.366 512 356.009 512 351.866V109C512 88.322 495.178 71.5 474.5 71.5V71.5Z" fill="black"></path> <path d="M504.5 375.994C500.357 375.994 497 379.351 497 383.494V403C497 415.406 486.906 425.5 474.5 425.5H37.5C25.093 425.5 15 415.406 15 403V223.867C15 219.724 11.642 216.367 7.5 216.367C3.358 216.367 0 219.724 0 223.867V403C0 423.678 16.822 440.5 37.5 440.5H474.5C495.178 440.5 512 423.678 512 403V383.494C512 379.352 508.643 375.994 504.5 375.994Z" fill="black"></path> <path d="M108.482 234.457C105.553 231.529 100.804 231.529 97.8764 234.457L52.8064 279.527C51.3994 280.934 50.6094 282.841 50.6094 284.831C50.6094 286.821 51.3994 288.727 52.8064 290.135L97.2804 334.609C98.7444 336.073 100.664 336.805 102.583 336.805C104.502 336.805 106.422 336.073 107.886 334.609C110.815 331.679 110.815 326.931 107.886 324.002L68.7154 284.832L108.482 245.065C111.412 242.135 111.412 237.387 108.482 234.457V234.457Z" fill="black"></path> <path d="M209.344 334.608C210.808 336.072 212.728 336.804 214.647 336.804C216.566 336.804 218.486 336.072 219.95 334.608L264.425 290.134C265.831 288.727 266.621 286.82 266.621 284.83C266.621 282.84 265.831 280.934 264.425 279.526L219.354 234.456C216.425 231.528 211.676 231.528 208.748 234.456C205.819 237.386 205.819 242.134 208.748 245.063L248.516 284.83L209.345 324C206.415 326.931 206.415 331.679 209.344 334.608V334.608Z" fill="black"></path> <path d="M131.99 362.234C135.015 362.234 137.866 360.39 139.003 357.393L192.297 216.995C193.767 213.122 191.819 208.791 187.947 207.321C184.075 205.85 179.743 207.799 178.274 211.671L124.98 352.071C123.51 355.943 125.458 360.274 129.33 361.744C130.206 362.077 131.105 362.234 131.99 362.234V362.234Z" fill="black"></path> <path d="M33.0059 115.371C33.0059 127.777 43.0989 137.871 55.5059 137.871C67.9129 137.871 78.0059 127.777 78.0059 115.371C78.0059 102.965 67.9129 92.8711 55.5059 92.8711C43.0989 92.8711 33.0059 102.965 33.0059 115.371V115.371ZM63.0059 115.371C63.0059 119.507 59.6419 122.871 55.5059 122.871C51.3699 122.871 48.0059 119.507 48.0059 115.371C48.0059 111.235 51.3699 107.871 55.5059 107.871C59.6419 107.871 63.0059 111.235 63.0059 115.371Z" fill="black"></path> <path d="M91.166 115.371C91.166 127.777 101.259 137.871 113.666 137.871C126.073 137.871 136.166 127.777 136.166 115.371C136.166 102.965 126.073 92.8711 113.666 92.8711C101.259 92.8711 91.166 102.965 91.166 115.371V115.371ZM121.166 115.371C121.166 119.507 117.802 122.871 113.666 122.871C109.53 122.871 106.166 119.507 106.166 115.371C106.166 111.235 109.53 107.871 113.666 107.871C117.802 107.871 121.166 111.235 121.166 115.371Z" fill="black"></path> <path d="M149.325 115.371C149.325 127.777 159.418 137.871 171.825 137.871C184.232 137.871 194.325 127.777 194.325 115.371C194.325 102.965 184.232 92.8711 171.825 92.8711C159.418 92.8711 149.325 102.965 149.325 115.371V115.371ZM179.325 115.371C179.325 119.507 175.961 122.871 171.825 122.871C167.689 122.871 164.325 119.507 164.325 115.371C164.325 111.235 167.689 107.871 171.825 107.871C175.961 107.871 179.325 111.235 179.325 115.371Z" fill="black"></path> <path d="M335.5 242.368H382.5C394.906 242.368 405 232.274 405 219.868C405 207.462 394.906 197.368 382.5 197.368H335.5C323.094 197.368 313 207.462 313 219.868C313 232.274 323.094 242.368 335.5 242.368ZM335.5 212.368H382.5C386.636 212.368 390 215.732 390 219.868C390 224.004 386.636 227.368 382.5 227.368H335.5C331.364 227.368 328 224.004 328 219.868C328 215.732 331.364 212.368 335.5 212.368Z" fill="black"></path> <path d="M335.5 302.368H459.5C471.906 302.368 482 292.274 482 279.868C482 267.462 471.906 257.368 459.5 257.368H335.5C323.094 257.368 313 267.462 313 279.868C313 292.274 323.094 302.368 335.5 302.368ZM335.5 272.368H459.5C463.636 272.368 467 275.732 467 279.868C467 284.004 463.636 287.368 459.5 287.368H335.5C331.364 287.368 328 284.004 328 279.868C328 275.732 331.364 272.368 335.5 272.368Z" fill="black"></path> <path d="M335.5 362.368H422.665C435.071 362.368 445.165 352.274 445.165 339.868C445.165 327.462 435.071 317.368 422.665 317.368H335.5C323.094 317.368 313 327.462 313 339.868C313 352.274 323.094 362.368 335.5 362.368ZM335.5 332.368H422.665C426.801 332.368 430.165 335.732 430.165 339.868C430.165 344.004 426.801 347.368 422.665 347.368H335.5C331.364 347.368 328 344.004 328 339.868C328 335.732 331.364 332.368 335.5 332.368Z" fill="black"></path> </svg> 