<?xml version="1.0" encoding="UTF-8"?> <svg xmlns="http://www.w3.org/2000/svg" width="311" height="119" viewBox="0 0 311 119" fill="none"> <path fill-rule="evenodd" clip-rule="evenodd" d="M52.6446 63.0603C57.7158 59.5415 70.0315 54.8843 82.9682 55.2983L82.8647 96.0748C73.7573 96.2817 66.9267 97.3167 58.8542 100.318C56.4738 101.249 54.9214 101.974 52.5411 103.216L52.6446 63.0603ZM19.2161 55.4018C31.5319 54.9878 39.1904 58.0926 49.5398 63.1638V103.216C47.3664 102.284 45.2965 101.146 42.9162 100.215C34.8437 97.2132 28.2201 96.3852 19.2161 96.0748V55.4018ZM16.1113 98.5586C30.8074 98.2481 45.814 103.112 51.1957 107.77C60.4066 100.215 73.8608 98.7656 85.9695 98.5586V52.7109C63.3044 51.055 52.5411 60.266 51.1957 60.3695C48.2978 58.7136 34.3262 50.9515 16.1113 52.7109V98.5586Z" fill="white"></path> <path fill-rule="evenodd" clip-rule="evenodd" d="M23.9766 88.511C23.9766 88.511 35.4644 89.2354 45.3997 93.2717V91.2018C45.3997 91.2018 35.6713 87.062 23.9766 86.4411C23.9766 86.3376 23.9766 88.511 23.9766 88.511Z" fill="white"></path> <path fill-rule="evenodd" clip-rule="evenodd" d="M23.9766 65.0249C23.9766 65.0249 35.4644 65.7494 45.3997 69.7856V67.6123C45.3997 67.6123 35.6713 63.4725 23.9766 62.8516C23.9766 62.8516 23.9766 65.0249 23.9766 65.0249Z" fill="white"></path> <path fill-rule="evenodd" clip-rule="evenodd" d="M23.9766 72.8921C23.9766 72.8921 35.4644 73.6166 45.3997 77.6528V75.4795C45.3997 75.4795 35.6713 71.3397 23.9766 70.7188C23.9766 70.7188 23.9766 72.8921 23.9766 72.8921Z" fill="white"></path> <path fill-rule="evenodd" clip-rule="evenodd" d="M23.9766 80.7515C23.9766 80.7515 35.4644 81.4759 45.3997 85.5122V83.3388C45.3997 83.3388 35.6713 79.1991 23.9766 78.5781C23.9766 78.5781 23.9766 80.7515 23.9766 80.7515Z" fill="white"></path> <path fill-rule="evenodd" clip-rule="evenodd" d="M78.4075 88.523C78.4075 88.523 66.9198 89.2475 56.9844 93.2837V91.2138C56.9844 91.2138 66.7128 87.0741 78.4075 86.4531V88.523Z" fill="white"></path> <path fill-rule="evenodd" clip-rule="evenodd" d="M78.4075 65.0249C78.4075 65.0249 66.9198 65.7494 56.9844 69.7856V67.6123C56.9844 67.6123 66.7128 63.4725 78.4075 62.8516V65.0249Z" fill="white"></path> <path fill-rule="evenodd" clip-rule="evenodd" d="M78.4075 72.8921C78.4075 72.8921 66.9198 73.6166 56.9844 77.6528V75.4795C56.9844 75.4795 66.7128 71.3397 78.4075 70.7188V72.8921Z" fill="white"></path> <path fill-rule="evenodd" clip-rule="evenodd" d="M78.4075 80.7515C78.4075 80.7515 66.9198 81.4759 56.9844 85.5122V83.3388C56.9844 83.3388 66.7128 79.1991 78.4075 78.5781V80.7515Z" fill="white"></path> <path d="M51.0883 11L7 27.8695L51.0883 38.4258L95.1765 27.8695L51.0883 11Z" fill="white"></path> <path d="M50.9846 40.6979L77.7894 34.2812V44.6306C63.4038 48.7704 64.6457 48.5634 51.0881 52.2891C33.4941 47.7354 39.3933 49.3913 24.2832 45.3551V34.2812L50.9846 40.6979Z" fill="white"></path> <path d="M86.1719 34.7995H86.7928V28.7969H86.1719V34.7995Z" fill="white"></path> <path d="M86.7963 34.4922L88.5556 45.359H83.8984L86.1753 34.4922H86.7963Z" fill="white"></path> <path d="M225.684 61.3985L229.617 81.2693H221.337L225.684 61.3985ZM220.716 52.7051L209.85 98.4492H217.612L219.888 88.3069H231.169L233.55 98.4492H241.726L231.066 52.7051H220.716ZM245.658 52.7051V98.4492H253.627V79.6134H257.043C258.595 79.6134 259.734 80.1309 260.354 81.0623C260.975 81.9937 261.286 83.6496 261.389 85.823C261.493 88.6173 261.493 91.1012 261.493 93.1711C261.493 95.2409 261.7 97.0003 262.01 98.4492H270.393C269.979 97.0003 269.669 95.5514 269.565 93.999C269.462 92.4466 269.358 90.7907 269.358 88.9278C269.358 88.5138 269.358 88.2034 269.462 87.7894C269.462 87.3754 269.462 87.0649 269.462 86.651C269.462 84.9951 269.358 83.4427 269.255 82.2007C269.151 80.9588 268.841 79.9239 268.427 79.0959C268.013 78.268 267.496 77.5435 266.668 77.0261C265.943 76.5086 264.908 76.0946 263.563 75.6806C265.633 75.0597 267.082 73.8178 267.91 72.0584C268.737 70.1955 269.151 67.6081 269.151 64.2963C269.151 61.916 268.944 59.9496 268.427 58.5007C268.013 56.9483 267.289 55.8099 266.357 54.8784C265.426 54.0505 264.184 53.4295 262.631 53.119C261.079 52.8085 259.216 52.6016 257.043 52.6016H245.658V52.7051ZM255.697 72.4723H253.627V59.7426H255.801C256.836 59.7426 257.767 59.8461 258.492 59.9496C259.216 60.1566 259.837 60.4671 260.251 60.9845C260.665 61.3985 260.975 62.0195 261.182 62.8474C261.389 63.6754 261.493 64.6068 261.493 65.8487C261.493 68.3326 261.079 70.092 260.148 71.0234C259.216 72.0584 257.767 72.4723 255.697 72.4723ZM287.78 91.3082H284.365V59.6391H287.78C289.229 59.6391 290.471 59.9496 291.403 60.5706C292.231 61.1915 292.955 62.123 293.472 63.4684C293.886 64.8138 294.197 66.4697 294.404 68.4361C294.507 70.4025 294.611 72.7828 294.611 75.4737C294.611 78.1645 294.507 80.5448 294.404 82.5112C294.3 84.4776 293.99 86.1335 293.472 87.3754C292.955 88.7208 292.334 89.6523 291.403 90.2732C290.471 90.9977 289.229 91.3082 287.78 91.3082ZM276.189 52.7051V98.4492H288.815C291.403 98.4492 293.472 98.0353 295.232 97.2073C296.991 96.3794 298.337 95.0339 299.372 93.1711C300.407 91.3082 301.131 88.9278 301.648 86.1335C302.062 83.2357 302.373 79.7169 302.373 75.6806C302.373 71.5409 302.166 68.0221 301.648 65.1243C301.234 62.2265 300.407 59.8461 299.372 58.0867C298.337 56.2238 296.991 54.8784 295.232 54.0505C293.576 53.2225 291.403 52.8086 288.815 52.8086L276.189 52.7051Z" fill="white"></path> <path d="M181.172 52.7109V86.7603H189.141V78.2739H197.834V98.4551H205.907V52.7109H197.834V70.5118H189.141V52.7109H181.172Z" fill="white"></path> <path d="M226.926 61.1913L231.169 82.6144H219.681L225.684 55.0851L226.926 61.1913ZM228.064 79.9236L225.684 67.7114L222.993 79.9236H228.064ZM221.751 54.0502L211.505 97.2071H216.576L218.853 87.0647H232.204L234.584 97.2071H240.069L230.03 54.0502H221.751ZM208.607 98.1385L219.681 51.3594H231.997C235.723 67.5044 239.552 83.6494 243.278 99.6909H232.514L230.134 89.5485H220.923L218.646 99.6909H208.193L208.607 98.1385ZM246.9 54.0502V97.2071H252.282V78.2677H256.939C257.87 78.2677 258.802 78.4747 259.526 78.7852C260.354 79.0957 260.975 79.7166 261.389 80.4411C261.803 81.062 262.114 81.7865 262.32 82.7179C262.527 83.5459 262.631 84.5808 262.631 85.8228C262.631 87.1682 262.734 88.5136 262.734 89.7555C262.734 91.2044 262.734 92.3428 262.734 93.1708C262.734 94.2057 262.734 95.1372 262.838 95.9651C262.838 96.3791 262.941 96.7931 263.045 97.2071H268.737L268.634 96.5861C268.53 95.8616 268.427 95.0337 268.323 94.2057C268.22 93.3778 268.22 92.5498 268.116 91.7219C268.116 90.7904 268.013 89.9625 268.013 89.0311C268.013 88.6171 268.013 88.2031 268.116 87.7891V86.7542C268.116 85.8227 268.116 85.0983 268.116 84.3738C268.116 83.7529 268.013 83.0284 268.013 82.4075C267.909 81.89 267.909 81.3725 267.702 80.9585C267.599 80.5446 267.392 80.1306 267.288 79.7166C267.185 79.4061 266.978 79.0957 266.771 78.8887C266.564 78.6817 266.253 78.3712 265.943 78.1642C265.632 77.9572 265.322 77.7503 264.804 77.5433C264.39 77.3363 263.769 77.1293 263.252 77.0258L258.595 75.8874L263.148 74.5419C263.976 74.335 264.701 73.921 265.322 73.4035C265.943 72.886 266.357 72.2651 266.667 71.5406C266.978 70.7127 267.288 69.7812 267.495 68.5393C267.702 67.2974 267.806 65.8485 267.806 64.2961C267.806 63.1576 267.702 62.1227 267.599 61.1913C267.495 60.2598 267.392 59.5354 267.185 58.8109C266.978 58.19 266.771 57.569 266.46 57.0515C266.15 56.5341 265.839 56.1201 265.425 55.8096C265.011 55.4991 264.597 55.1886 264.08 54.8782C263.562 54.6712 262.941 54.4642 262.32 54.2572C261.596 54.1537 260.872 53.9467 259.94 53.9467C259.009 53.8432 258.077 53.8432 257.042 53.8432L246.9 54.0502ZM244.313 98.449V51.3594H257.042C258.181 51.3594 259.216 51.3594 260.147 51.4629C261.079 51.5664 262.01 51.6699 262.838 51.8768C263.666 52.0838 264.494 52.2908 265.218 52.7048C265.943 53.0153 266.667 53.5327 267.185 54.0502C267.806 54.5677 268.323 55.1886 268.737 55.9131C269.151 56.6376 269.462 57.362 269.669 58.2934C269.876 59.1214 270.083 60.0528 270.186 61.0878C270.29 62.1227 270.393 63.2611 270.393 64.5031C270.393 66.2625 270.29 67.8149 270.083 69.1603C269.876 70.6092 269.565 71.7476 269.048 72.7826C268.53 73.921 267.806 74.7489 266.978 75.5769L266.667 75.7839C266.874 75.8874 267.081 75.9909 267.288 76.1978C267.806 76.5083 268.22 76.9223 268.634 77.3363C269.048 77.7502 269.358 78.2677 269.565 78.7852C269.772 79.3027 269.979 79.8201 270.186 80.4411C270.29 81.062 270.496 81.683 270.496 82.304C270.496 82.9249 270.6 83.5459 270.6 84.3738C270.6 85.2018 270.6 86.0297 270.6 86.7542V87.9961C270.6 88.4101 270.6 88.7206 270.6 89.0311C270.6 89.9625 270.6 90.7904 270.6 91.6184C270.6 92.4463 270.703 93.2743 270.703 93.9987C270.807 94.7232 270.91 95.4477 271.014 96.1721C271.117 96.8966 271.324 97.5175 271.531 98.242L272.049 99.8979H260.872L260.665 98.8629C260.458 98.1385 260.354 97.2071 260.251 96.2756C260.147 95.3442 260.147 94.3092 260.147 93.2743C260.147 91.9289 260.147 90.7904 260.147 89.859C260.147 88.6171 260.147 87.3752 260.044 86.0297C260.044 84.9948 259.94 84.1669 259.733 83.4424C259.63 82.8214 259.423 82.304 259.216 81.9935C259.009 81.683 258.802 81.476 258.491 81.3725C258.077 81.1655 257.56 81.1655 256.939 81.1655H254.869V100.001H244.313V98.449ZM255.697 73.8175H252.385V58.5004H255.8C256.318 58.5004 256.835 58.5004 257.353 58.6039C257.87 58.6039 258.284 58.7074 258.698 58.8109C259.216 58.9144 259.63 59.1214 260.044 59.3284C260.458 59.5354 260.872 59.8458 261.182 60.2598C261.493 60.5703 261.7 60.8808 261.907 61.2948C262.114 61.7087 262.217 62.1227 262.424 62.6402C262.527 63.0542 262.631 63.5716 262.734 64.1926C262.838 64.8135 262.838 65.331 262.838 66.0555C262.838 67.4009 262.734 68.5393 262.424 69.5743C262.114 70.6092 261.7 71.4371 261.079 72.0581C260.458 72.6791 259.733 73.1965 258.802 73.507C257.87 73.714 256.835 73.8175 255.697 73.8175ZM254.972 71.2302H255.697C256.628 71.2302 257.353 71.1267 257.974 70.9197C258.491 70.7127 258.905 70.5057 259.216 70.1952C259.526 69.8847 259.733 69.4708 259.94 68.8498C260.147 68.1253 260.251 67.1939 260.251 65.952C260.251 65.331 260.251 64.8135 260.147 64.3996C260.147 63.9856 260.044 63.5716 259.94 63.2611C259.837 62.9507 259.733 62.7437 259.63 62.4332C259.526 62.2262 259.423 62.0192 259.319 61.9157C259.216 61.8122 259.112 61.7087 258.905 61.6052C258.698 61.5018 258.491 61.3983 258.284 61.3983C257.974 61.2948 257.663 61.2948 257.249 61.1913C256.939 61.1913 256.421 61.1913 255.904 61.1913H255.076L254.972 71.2302ZM287.78 92.6533H283.019V58.2934H287.78C288.608 58.2934 289.436 58.3969 290.16 58.6039C290.885 58.8109 291.609 59.1214 292.127 59.5354C292.644 59.9493 293.162 60.4668 293.576 61.0878C293.99 61.7087 294.3 62.3297 294.611 63.0542C294.817 63.7786 295.024 64.6066 295.231 65.4345C295.335 66.2625 295.542 67.2974 295.542 68.3323C295.645 69.2638 295.645 70.4022 295.749 71.6441C295.749 72.9895 295.852 74.2315 295.852 75.4734C295.852 76.7153 295.852 78.0607 295.749 79.3027C295.749 80.5446 295.645 81.683 295.542 82.6144C295.438 83.6494 295.335 84.5808 295.231 85.4088C295.024 86.3402 294.817 87.0647 294.611 87.7891C294.3 88.5136 293.99 89.238 293.576 89.859C293.162 90.48 292.644 90.9974 292.127 91.4114C291.506 91.8254 290.885 92.1359 290.16 92.3428C289.332 92.5498 288.608 92.6533 287.78 92.6533ZM285.607 90.066H287.78C288.401 90.066 289.022 89.9625 289.436 89.859C289.85 89.7555 290.264 89.5485 290.574 89.3415C290.885 89.1345 291.195 88.8241 291.402 88.5136C291.713 88.0996 291.92 87.6856 292.127 87.0647C292.334 86.4437 292.541 85.8228 292.644 85.0983C292.748 84.3738 292.851 83.5459 292.955 82.511C293.058 81.476 293.058 80.4411 293.162 79.3027C293.162 78.2677 293.162 77.0258 293.162 75.4734C293.162 74.0245 293.162 72.7826 293.162 71.6441C293.162 70.5057 293.058 69.4708 292.955 68.4358C292.851 67.5044 292.748 66.5729 292.644 65.8485C292.541 65.124 292.334 64.3996 292.127 63.8821C291.92 63.3646 291.713 62.8472 291.402 62.4332C291.195 62.1227 290.885 61.8122 290.574 61.6052C290.264 61.3983 289.85 61.1913 289.436 61.0878C288.918 60.9843 288.401 60.8808 287.78 60.8808H285.607V90.066ZM277.534 54.0502V97.2071H288.815C290.057 97.2071 291.092 97.1036 292.127 96.8966C293.058 96.6896 293.99 96.4826 294.714 96.0686C295.438 95.6546 296.059 95.2407 296.68 94.6197C297.301 93.9987 297.819 93.3778 298.233 92.5498C298.75 91.7219 299.164 90.687 299.475 89.652C299.785 88.5136 300.096 87.2717 300.303 85.9262C300.51 84.4773 300.717 82.9249 300.82 81.1655C300.924 79.5096 301.027 77.6468 301.027 75.5769C301.027 73.507 300.924 71.6441 300.82 69.9882C300.717 68.2288 300.51 66.6764 300.303 65.2275C300.096 63.8821 299.785 62.6402 299.475 61.5017C299.164 60.3633 298.75 59.4319 298.233 58.6039C297.819 57.776 297.301 57.0515 296.68 56.5341C296.059 55.9131 295.438 55.4991 294.714 55.0851C293.99 54.7747 293.058 54.4642 292.127 54.2572C291.195 54.0502 290.057 53.9467 288.815 53.9467L277.534 54.0502ZM274.947 98.449V51.3594H288.815C290.16 51.3594 291.402 51.4629 292.541 51.6699C293.679 51.8768 294.818 52.2908 295.749 52.7048C296.784 53.2223 297.612 53.8432 298.44 54.5677C299.164 55.2921 299.889 56.2236 300.406 57.2585C300.924 58.2934 301.441 59.4319 301.855 60.6738C302.269 61.9157 302.58 63.2611 302.786 64.8135C302.993 66.2625 303.2 67.9184 303.304 69.7812C303.407 71.5406 303.511 73.507 303.511 75.5769C303.511 77.6468 303.407 79.5096 303.304 81.269C303.2 83.1319 302.993 84.6843 302.786 86.2367C302.58 87.7891 302.269 89.1345 301.855 90.3765C301.441 91.6184 301.027 92.7568 300.406 93.7918C299.889 94.8267 299.164 95.6546 298.44 96.4826C297.612 97.207 296.784 97.9315 295.749 98.3455C294.818 98.7595 293.679 99.1734 292.541 99.3804C291.402 99.5874 290.16 99.6909 288.815 99.6909H274.947V98.449Z" fill="white"></path> <path d="M182.421 54.0502V86.7542H187.803V76.9223H199.187V97.207H204.672V54.0502H199.187V71.8511H187.803V54.0502H182.421ZM179.834 86.7542V51.3594H190.39V69.1603H196.6V51.3594H207.26V99.6909H196.6V79.5096H190.39V86.7542H179.834Z" fill="white"></path> <path d="M143.402 33.151H138.951L141.435 20.8352L143.402 33.151ZM138.02 17.5234L131.293 44.0178H136.675L138.227 37.1872H143.919L145.161 44.0178H150.646L144.747 17.5234C144.747 17.5234 138.02 17.5234 138.02 17.5234ZM157.27 31.3916V23.94H152.716V43.9143H157.27V38.2222L158.305 36.1523L161.099 43.9143H166.067L161.306 31.909L166.067 23.8365H161.306L157.27 31.3916ZM168.447 30.4601H172.897V30.0462C172.897 29.1147 173.104 28.4938 173.622 28.0798C174.036 27.6658 174.657 27.4588 175.278 27.4588C176.727 27.4588 177.451 28.0798 177.451 29.2182C177.451 29.6322 177.348 30.0462 177.141 30.3566C176.934 30.6671 176.623 30.9776 176.209 31.2881C175.795 31.5986 175.381 31.8056 174.864 32.0125C174.346 32.2195 173.829 32.4265 173.311 32.737C172.38 33.0475 171.655 33.4615 171.035 33.8754C170.414 34.1859 169.896 34.7034 169.482 35.1174C169.068 35.6348 168.758 36.1523 168.551 36.7732C168.344 37.3942 168.24 38.1187 168.24 39.0501C168.24 40.913 168.758 42.3619 169.689 43.2933C170.621 44.2248 171.862 44.6388 173.311 44.6388C174.553 44.6388 175.485 44.4318 176.106 43.9143C176.727 43.5003 177.244 42.8794 177.762 42.0514C177.762 42.3619 177.762 42.6724 177.865 43.0864C177.865 43.5003 177.969 43.8108 178.176 44.0178H182.936C182.626 43.7073 182.522 43.2933 182.419 42.8794C182.315 42.3619 182.315 41.8444 182.315 41.12V29.0112C182.315 28.0798 182.108 27.3553 181.798 26.6309C181.487 26.0099 180.97 25.389 180.349 24.975C179.728 24.561 179.004 24.2505 178.176 24.0435C177.348 23.8365 176.416 23.7331 175.485 23.7331C174.553 23.7331 173.622 23.8365 172.794 24.147C171.966 24.4575 171.241 24.8715 170.724 25.389C170.103 25.9064 169.689 26.5274 169.275 27.1483C168.965 27.8728 168.758 28.5973 168.758 29.4252L168.447 30.4601ZM174.45 35.9453L177.451 34.0824V38.6361C177.451 39.5676 177.244 40.1885 176.727 40.6025C176.209 41.0165 175.588 41.2235 174.967 41.2235C174.243 41.2235 173.725 40.913 173.415 40.3955C173.104 39.8781 173.001 39.2571 173.001 38.4291C173.001 38.0152 173.104 37.4977 173.311 37.0837C173.518 36.6698 173.932 36.2558 174.45 35.9453ZM195.873 27.5623V40.499H190.802C191.009 39.9816 191.216 39.4641 191.423 38.9466C191.63 38.4291 191.733 37.9117 191.837 37.2907C191.94 36.6698 192.044 35.9453 192.147 35.1174C192.251 34.2894 192.251 33.358 192.251 32.2195V27.5623H195.873ZM186.145 40.3955H184.903V48.7785H189.146V43.9143H197.736V48.7785H201.979V40.3955H200.323V23.94H187.904V30.5636C187.904 31.909 187.904 33.0475 187.8 34.0824C187.8 35.0139 187.697 35.9453 187.49 36.6698C187.283 37.3942 187.18 38.1187 186.869 38.6361C186.766 39.2571 186.455 39.8781 186.145 40.3955ZM213.881 31.7021H209.12V29.7357C209.12 29.0112 209.327 28.4938 209.741 28.0798C210.155 27.6658 210.776 27.5623 211.501 27.5623C212.225 27.5623 212.742 27.7693 213.26 28.0798C213.674 28.4938 213.881 29.0112 213.881 29.7357V31.7021ZM209.12 34.9104H218.435V30.2532C218.435 29.1147 218.228 28.1833 217.917 27.3553C217.607 26.5274 217.089 25.9064 216.468 25.389C215.847 24.8715 215.123 24.561 214.295 24.2505C213.467 24.0435 212.535 23.94 211.501 23.94C210.466 23.94 209.534 24.0435 208.706 24.2505C207.878 24.4575 207.154 24.8715 206.533 25.389C205.912 25.9064 205.394 26.5274 205.084 27.3553C204.773 28.1833 204.566 29.1147 204.566 30.2532V38.1187C204.566 39.2571 204.773 40.292 205.084 41.0165C205.394 41.8444 205.912 42.4654 206.533 42.9829C207.154 43.5003 207.878 43.8108 208.706 44.1213C209.534 44.3283 210.466 44.4318 211.501 44.4318C212.535 44.4318 213.467 44.3283 214.295 44.1213C215.123 43.9143 215.847 43.5003 216.468 42.9829C217.089 42.4654 217.607 41.7409 217.917 41.0165C218.228 40.1885 218.435 39.2571 218.435 38.1187V37.6012H213.881V38.7396C213.881 39.4641 213.674 39.9815 213.26 40.3955C212.846 40.8095 212.225 41.0165 211.501 41.0165C210.776 41.0165 210.155 40.8095 209.741 40.499C209.327 40.1885 209.12 39.5676 209.12 38.8431V34.9104ZM227.956 23.94H221.85V43.9143H226.3V29.8392L229.508 44.0178H232.406L235.615 29.8392V44.0178H240.065V23.94H233.959L230.854 37.3942L227.956 23.94ZM248.034 23.94H243.584V43.9143H248.034L252.794 32.116V43.9143H257.245V23.94H252.898L248.034 35.9453V23.94ZM267.905 36.3593H269.664V43.9143H274.218V23.94H266.766C266.042 23.94 265.317 24.0435 264.593 24.354C263.868 24.6645 263.247 24.975 262.626 25.4924C262.005 26.0099 261.591 26.6309 261.177 27.4588C260.763 28.2868 260.66 29.1147 260.66 30.2532C260.66 31.5986 260.97 32.737 261.488 33.5649C262.005 34.4964 262.73 35.1173 263.661 35.7383L260.039 44.1213H264.903C264.903 44.0178 267.905 36.3593 267.905 36.3593ZM269.664 27.4588V32.944H267.698C266.973 32.944 266.352 32.737 265.938 32.2195C265.524 31.7021 265.317 31.0811 265.317 30.1497C265.317 29.2182 265.524 28.5973 266.042 28.0798C266.559 27.6658 267.077 27.3553 267.801 27.3553C267.905 27.4588 269.664 27.4588 269.664 27.4588Z" fill="white"></path> <path d="M117.226 71.2304H112.672V59.6391H117.226C118.778 59.6391 120.02 60.1566 120.848 61.088C121.676 62.0195 122.09 63.3649 122.09 65.1243C121.987 69.264 120.434 71.2304 117.226 71.2304ZM116.501 91.4117H112.672V78.3715H116.708C118.675 78.3715 120.02 78.8889 120.952 79.9239C121.883 80.9588 122.401 82.6147 122.401 84.8916C122.401 87.1684 121.883 88.8243 120.952 89.8593C120.02 90.7907 118.571 91.4117 116.501 91.4117ZM104.91 52.7051V98.5527H118.778C122.711 98.5527 125.609 97.5178 127.575 95.5514C129.542 93.4815 130.473 90.1697 130.473 85.616C130.473 82.6147 129.852 80.1309 128.61 78.1645C127.368 76.3016 125.712 75.1632 123.539 74.6457C125.505 74.4387 127.058 73.4038 128.196 71.4374C129.335 69.471 129.956 66.8837 129.956 63.7789C129.956 59.9496 129.024 57.1553 127.161 55.2924C125.298 53.533 122.504 52.6016 118.675 52.6016L104.91 52.7051ZM136.476 52.7051V98.5527H157.692V91.1012H144.238V77.7505H156.243V70.7129H144.238V59.7426H157.278V52.6016L136.476 52.7051Z" fill="white"></path> <path d="M163.178 52.7109V98.5586H183.049V90.4861H171.25V52.7109H163.178Z" fill="white"></path> <path d="M117.226 72.5756H111.43V58.3969H117.226C118.157 58.3969 119.089 58.5004 119.813 58.8109C120.641 59.1214 121.262 59.6389 121.779 60.2598C122.297 60.8808 122.711 61.6052 122.918 62.4332C123.125 63.2611 123.228 64.0891 123.228 65.124C123.228 67.5044 122.711 69.2638 121.779 70.5057C120.744 71.8511 119.192 72.5756 117.226 72.5756ZM113.914 69.9882H117.122C118.261 69.9882 119.192 69.6777 119.709 68.9533C120.33 68.1253 120.641 66.8834 120.641 65.2275C120.641 64.5031 120.537 63.7786 120.434 63.2611C120.33 62.7437 120.123 62.3297 119.813 62.0192C119.606 61.7087 119.192 61.5017 118.778 61.2948C118.364 61.0878 117.743 60.9843 117.122 60.9843H113.914V69.9882ZM116.501 92.6533H111.326V77.0258H116.708C117.847 77.0258 118.778 77.2328 119.606 77.5433C120.537 77.8537 121.262 78.3712 121.883 79.0957C122.504 79.7166 122.918 80.6481 123.228 81.5795C123.539 82.5109 123.642 83.6494 123.642 84.8913C123.642 86.1332 123.539 87.2716 123.228 88.2031C122.918 89.238 122.504 90.066 121.883 90.6869C121.262 91.3079 120.434 91.8254 119.502 92.1358C118.675 92.5498 117.64 92.6533 116.501 92.6533ZM113.914 90.066H116.501C117.329 90.066 118.157 89.9625 118.675 89.7555C119.192 89.5485 119.709 89.3415 120.02 88.9275C120.33 88.6171 120.641 88.0996 120.744 87.4786C120.951 86.7542 121.055 85.9262 121.055 84.8913C121.055 83.8564 120.951 83.0284 120.744 82.304C120.537 81.683 120.33 81.1655 119.916 80.855C119.606 80.5446 119.192 80.2341 118.675 80.0271C118.157 79.8201 117.433 79.7166 116.605 79.7166H113.914V90.066ZM106.255 53.9467V97.207H118.778C120.641 97.207 122.193 97 123.539 96.4826C124.781 96.0686 125.816 95.4476 126.644 94.6197C127.472 93.7917 128.092 92.5498 128.506 91.1009C128.92 89.5485 129.127 87.6856 129.127 85.5123C129.127 84.0633 129.024 82.8214 128.713 81.683C128.403 80.5446 127.989 79.6131 127.472 78.7852C126.954 77.9572 126.333 77.3363 125.609 76.8188C124.884 76.3013 124.056 75.9908 123.125 75.7839L115.57 74.0245L123.228 73.1965C123.953 73.093 124.677 72.886 125.298 72.4721C125.919 72.0581 126.437 71.4371 126.954 70.6092C127.472 69.7812 127.885 68.7463 128.092 67.6079C128.403 66.4694 128.506 65.124 128.506 63.5716C128.506 61.8122 128.299 60.2598 127.885 59.0179C127.472 57.776 126.851 56.8445 126.126 56.0166C125.298 55.2921 124.367 54.6712 123.125 54.2572C121.883 53.8432 120.33 53.6362 118.571 53.6362L106.255 53.9467ZM103.668 98.5524V51.3594H118.571C120.537 51.3594 122.4 51.5664 123.849 52.0838C125.402 52.6013 126.747 53.3258 127.885 54.3607C129.024 55.3956 129.748 56.741 130.369 58.3969C130.887 59.9493 131.197 61.7087 131.197 63.7786C131.197 65.4345 130.99 66.9869 130.68 68.3323C130.369 69.7812 129.852 71.0232 129.231 72.0581C128.61 73.093 127.782 74.0245 126.954 74.6454L127.161 74.7489C128.196 75.4734 129.024 76.3013 129.748 77.4398C130.473 78.4747 130.99 79.7166 131.301 81.062C131.611 82.4074 131.818 83.8564 131.818 85.5123C131.818 87.8926 131.611 90.066 131.094 91.8254C130.576 93.6882 129.748 95.2407 128.61 96.3791C127.472 97.5175 126.126 98.3455 124.47 98.9664C122.918 99.4839 121.055 99.7944 118.882 99.7944H103.668V98.5524ZM137.717 53.9467V97.207H156.346V92.4463H142.892V76.4048H154.897V71.9546H142.892V58.5004H155.932V53.9467H137.717ZM135.13 98.5524V51.3594H158.52V61.0878H145.479V69.4708H157.485V79.0957H145.479V89.859H158.934V99.8979H135.13V98.5524ZM164.419 53.9467V97.207H181.702V91.7219H169.904V53.9467H164.419ZM161.831 98.5524V51.3594H172.491V89.1345H184.289V99.7944H161.831V98.5524Z" fill="white"></path> <path d="M164.423 54.0502V97.3105H181.707V91.8254H169.908V54.0502H164.423ZM161.836 98.5524V51.3594H172.496V89.1345H190.4V99.7944L161.836 99.8979V98.5524Z" fill="white"></path> </svg> 