<?xml version="1.0" encoding="UTF-8"?> <svg xmlns="http://www.w3.org/2000/svg" xmlns:xlink="http://www.w3.org/1999/xlink" viewBox="0 0 638.8 110.33"> <defs> <style>.cls-1{fill:#1d51fd;}.cls-2{fill:url(#Безымянный_градиент_29);}</style> <linearGradient id="Безымянный_градиент_29" x1="66.47" y1="68.97" x2="20.72" y2="95.34" gradientUnits="userSpaceOnUse"> <stop offset="0" stop-color="#fff"></stop> <stop offset="0.74" stop-color="#b5cbef" stop-opacity="0"></stop> </linearGradient> </defs> <title>Asset 1</title> <g id="Layer_2" data-name="Layer 2"> <g id="Слой_1" data-name="Слой 1"> <path class="cls-1" d="M105.18,108.62h25.07L67.54,0,51.4,27.94a16.48,16.48,0,0,0,0,16.47L80.12,94.15A28.94,28.94,0,0,0,105.18,108.62Z"></path> <path class="cls-1" d="M20.76,72.67,0,108.62H32.86a15.45,15.45,0,0,0,13.37-7.73L60.06,77a2.86,2.86,0,0,0-2.48-4.28Z"></path> <path class="cls-2" d="M20.76,72.67,0,108.62H32.86a15.45,15.45,0,0,0,13.37-7.73L60.06,77a2.86,2.86,0,0,0-2.48-4.28Z"></path> <path class="cls-1" d="M194.63,96.3l-5.18,13.46H168.74L202,31.06h18.53l33.13,78.7H242.8a14.29,14.29,0,0,1-13.3-9.06l-1.73-4.4ZM211.2,53.72l-10.13,26h20.25Z"></path> <path class="cls-1" d="M281.51,87.09v22.67H262.06V31.52h34.29c19.33,0,32.33,10.58,32.33,27.5a26.32,26.32,0,0,1-15,24.28l20.14,26.46H317.58A14.32,14.32,0,0,1,306.1,104L293.59,87.09ZM295.89,69.6c7.48,0,13.46-4.14,13.46-10.58s-6-10.36-13.46-10.36H281.51V69.6Z"></path> <path class="cls-1" d="M363.09,96.3l-5.18,13.46H337.2l33.25-78.7H389l33.14,78.7H411.25A14.3,14.3,0,0,1,398,100.7l-1.73-4.4Zm16.56-42.58-10.12,26h20.25Z"></path> <path class="cls-1" d="M458,48.89v60.87H438.57V48.89h-25V31.52h69.26V48.89Z"></path> <path class="cls-1" d="M511.07,62.7H545.7V79.27H511.07V92.85h39.69v16.91H491.62V31.52h59.14V48.43H511.07Z"></path> <path class="cls-1" d="M615.67,54.53a14.73,14.73,0,0,0-6.27-6.16,20.54,20.54,0,0,0-9.61-2.13q-9.56,0-15.31,6.27t-5.75,16.75q0,11.16,6,17.43T601.4,93a20.12,20.12,0,0,0,12.25-3.68A20.93,20.93,0,0,0,621,78.69H596V64.19H638.8v18.3a39.07,39.07,0,0,1-20.72,23.93,41.05,41.05,0,0,1-18.18,3.91,43,43,0,0,1-21.34-5.23,37.22,37.22,0,0,1-14.62-14.56,42.7,42.7,0,0,1-5.23-21.28,43,43,0,0,1,5.23-21.35A37.42,37.42,0,0,1,578.5,33.29a42.81,42.81,0,0,1,21.29-5.23q14.49,0,24.45,7a33.11,33.11,0,0,1,13.18,19.45Z"></path> </g> </g> </svg> 