<?xml version="1.0" encoding="UTF-8"?> <svg xmlns="http://www.w3.org/2000/svg" viewBox="0 0 230.08 113.78"> <defs> <style>.cls-1{fill:#3270b7;}.cls-2{fill:#fff;}.cls-3{fill:#7aaedd;}.cls-4{fill:#a6a8ab;}</style> </defs> <title>Asset 1</title> <g id="Layer_2" data-name="Layer 2"> <g id="Layer_1-2" data-name="Layer 1"> <rect class="cls-1" width="230.08" height="113.78"></rect> <path class="cls-2" d="M52.23,89.81l.53-1.73c.18-.57.35-1.15.53-1.72l1.33-4.15h1c-.5,1.51-1,3-1.47,4.49s-1,3-1.45,4.49h-1l-2.92-9h1c.22.72.44,1.42.67,2.13s.44,1.41.67,2.12l1.07,3.35Z"></path> <path class="cls-2" d="M60.1,88.22H58.2l-.51,0a1.32,1.32,0,0,0-.51.16,1.09,1.09,0,0,0-.39.35,1.12,1.12,0,0,0-.15.62,1,1,0,0,0,.37.84,1.55,1.55,0,0,0,.93.27,2.28,2.28,0,0,0,.55-.08,4.3,4.3,0,0,0,.57-.2,5.52,5.52,0,0,0,.55-.26l.49-.27Zm0,2.27a5.79,5.79,0,0,1-1.39.63,3.81,3.81,0,0,1-.91.14,2.17,2.17,0,0,1-1.47-.49,1.78,1.78,0,0,1-.56-1.39A1.62,1.62,0,0,1,56,88.5a1.83,1.83,0,0,1,.56-.58,2.26,2.26,0,0,1,.73-.32,2.89,2.89,0,0,1,.73-.1h2.1v-.57a1.38,1.38,0,0,0-.41-1.1,1.85,1.85,0,0,0-1.22-.35,4.15,4.15,0,0,0-.88.11,2.65,2.65,0,0,0-1,.49l-.43-.65a3.35,3.35,0,0,1,1.18-.59,4.77,4.77,0,0,1,1.18-.15,2.53,2.53,0,0,1,1.85.57A2.26,2.26,0,0,1,61,86.9v4.29h-.73l-.12-.69Z"></path> <path class="cls-2" d="M63.54,89.57c0,.38.08.62.23.72a1.28,1.28,0,0,0,.76.13l0,.79-.28,0H64a1.2,1.2,0,0,1-1-.4,2.07,2.07,0,0,1-.28-1.16V81.86h.85Z"></path> <path class="cls-2" d="M70,91.19l-.12-.78c-.28.17-.52.31-.74.42a4.66,4.66,0,0,1-.59.26,2,2,0,0,1-.47.13,2.85,2.85,0,0,1-.4,0,2.12,2.12,0,0,1-1.57-.57A2.3,2.3,0,0,1,65.59,89V84.75h.84v4.14a1.62,1.62,0,0,0,.37,1.21,1.33,1.33,0,0,0,1,.36,2.4,2.4,0,0,0,1-.25,6.89,6.89,0,0,0,1.14-.67V84.75h.87v6.44Z"></path> <path class="cls-2" d="M76.24,87.21a2.1,2.1,0,0,0-.13-.8,1.6,1.6,0,0,0-.38-.53,1.46,1.46,0,0,0-.53-.3,1.87,1.87,0,0,0-.62-.1,1.9,1.9,0,0,0-.63.11,1.57,1.57,0,0,0-.55.31,1.71,1.71,0,0,0-.38.52,1.94,1.94,0,0,0-.14.76v.41h3.36Zm-3.36,1.1v.51a1.79,1.79,0,0,0,.15.77,1.43,1.43,0,0,0,.4.53,1.54,1.54,0,0,0,.57.29,2.39,2.39,0,0,0,.66.09,2.42,2.42,0,0,0,.86-.16,2.21,2.21,0,0,0,.81-.51l.54.59a2.62,2.62,0,0,1-1,.64,3.68,3.68,0,0,1-1.2.2,3.31,3.31,0,0,1-1-.15,2.21,2.21,0,0,1-.83-.44,2.13,2.13,0,0,1-.55-.73,2.4,2.4,0,0,1-.21-1V87.16a2.8,2.8,0,0,1,.19-1,2.16,2.16,0,0,1,.53-.78,2.41,2.41,0,0,1,.8-.5,3.13,3.13,0,0,1,1-.17,2.8,2.8,0,0,1,1,.17,2.07,2.07,0,0,1,.79.49,2,2,0,0,1,.52.76,2.57,2.57,0,0,1,.18,1v1.21Z"></path> <path class="cls-2" d="M86.73,85.26a2.67,2.67,0,0,0-.19-1,2.05,2.05,0,0,0-.51-.71,2,2,0,0,0-.73-.41,2.91,2.91,0,0,0-.89-.14,3,3,0,0,0-.91.14,2,2,0,0,0-.73.41,2,2,0,0,0-.5.71,2.67,2.67,0,0,0-.18,1v2.91a2.5,2.5,0,0,0,.2,1,1.86,1.86,0,0,0,.52.7,2.07,2.07,0,0,0,.74.41,3.09,3.09,0,0,0,.86.13,3.24,3.24,0,0,0,.89-.13,2.14,2.14,0,0,0,.74-.41,2.17,2.17,0,0,0,.5-.71,2.67,2.67,0,0,0,.19-1Zm.91,3a3.13,3.13,0,0,1-.24,1.25,2.65,2.65,0,0,1-.67.94,2.92,2.92,0,0,1-1,.6,3.85,3.85,0,0,1-1.3.21,3.73,3.73,0,0,1-1.32-.22,2.92,2.92,0,0,1-1-.6,2.79,2.79,0,0,1-.66-.95,3.22,3.22,0,0,1-.23-1.24V85.13a3,3,0,0,1,.23-1.22,2.6,2.6,0,0,1,.65-1,3.06,3.06,0,0,1,1-.62,4.07,4.07,0,0,1,2.64,0,3.06,3.06,0,0,1,1,.62,2.78,2.78,0,0,1,.67,1,3.23,3.23,0,0,1,.23,1.22Z"></path> <path class="cls-2" d="M90.33,85.55v5.64h-.85V85.55h-.8v-.8h.8V83.46a2,2,0,0,1,.12-.71,1.39,1.39,0,0,1,.34-.5,1.19,1.19,0,0,1,.51-.3,1.79,1.79,0,0,1,.62-.1h1.05v.75h-.93a1.12,1.12,0,0,0-.44.08.63.63,0,0,0-.26.22.66.66,0,0,0-.13.31,1.54,1.54,0,0,0,0,.38v1.16h1.79v.8Z"></path> <polygon class="cls-2" points="98.87 83.06 98.87 91.19 97.96 91.19 97.96 83.06 95.25 83.06 95.25 82.21 101.56 82.21 101.56 83.06 98.87 83.06"></polygon> <path class="cls-2" d="M105.83,88.22h-1.9l-.51,0a1.22,1.22,0,0,0-.51.16,1,1,0,0,0-.39.35,1,1,0,0,0-.16.62,1,1,0,0,0,.38.84,1.54,1.54,0,0,0,.92.27,2.15,2.15,0,0,0,.55-.08,4.3,4.3,0,0,0,.57-.2,5.69,5.69,0,0,0,.56-.26l.49-.27Zm0,2.27a5.76,5.76,0,0,1-1.38.63,3.89,3.89,0,0,1-.91.14,2.17,2.17,0,0,1-1.47-.49,1.75,1.75,0,0,1-.56-1.39,1.62,1.62,0,0,1,.22-.88,1.76,1.76,0,0,1,.57-.58,2.26,2.26,0,0,1,.73-.32,2.78,2.78,0,0,1,.73-.1h2.1v-.57a1.35,1.35,0,0,0-.42-1.1,1.82,1.82,0,0,0-1.21-.35,4.31,4.31,0,0,0-.89.11,2.81,2.81,0,0,0-1,.49l-.42-.65a3.35,3.35,0,0,1,1.18-.59,4.69,4.69,0,0,1,1.17-.15,2.51,2.51,0,0,1,1.85.57,2.22,2.22,0,0,1,.56,1.64v4.29h-.73l-.11-.69Z"></path> <path class="cls-2" d="M109.27,89.57c0,.38.07.62.22.72a1.33,1.33,0,0,0,.77.13l0,.79-.27,0h-.26a1.23,1.23,0,0,1-1.06-.4,2.07,2.07,0,0,1-.27-1.16V81.86h.85Z"></path> <path class="cls-2" d="M115.56,87.21a2.08,2.08,0,0,0-.14-.8,1.58,1.58,0,0,0-.37-.53,1.59,1.59,0,0,0-.54-.3,1.81,1.81,0,0,0-.61-.1,2,2,0,0,0-.64.11,1.62,1.62,0,0,0-.54.31,1.43,1.43,0,0,0-.38.52,1.78,1.78,0,0,0-.14.76v.41h3.36Zm-3.36,1.1v.51a1.79,1.79,0,0,0,.15.77,1.41,1.41,0,0,0,.39.53,1.71,1.71,0,0,0,.57.29,2.45,2.45,0,0,0,1.53-.07,2.29,2.29,0,0,0,.81-.51l.53.59a2.48,2.48,0,0,1-1,.64,3.68,3.68,0,0,1-1.2.2,3.4,3.4,0,0,1-1-.15,2.09,2.09,0,0,1-.82-.44,2,2,0,0,1-.55-.73,2.4,2.4,0,0,1-.21-1V87.16a2.61,2.61,0,0,1,.19-1,2.14,2.14,0,0,1,.52-.78,2.57,2.57,0,0,1,.81-.5,3,3,0,0,1,1-.17,2.8,2.8,0,0,1,1,.17,2.15,2.15,0,0,1,.79.49,2.12,2.12,0,0,1,.51.76,2.57,2.57,0,0,1,.18,1v1.21Z"></path> <path class="cls-2" d="M120.68,84.69a1.94,1.94,0,0,1,1.48.57,2.45,2.45,0,0,1,.52,1.68v4.25h-.84v-4.1a1.68,1.68,0,0,0-.36-1.22,1.29,1.29,0,0,0-1-.35,2.67,2.67,0,0,0-1,.24,7.11,7.11,0,0,0-1.14.62v4.81h-.85V84.75h.73l.12.81a7.16,7.16,0,0,1,1.4-.7,2.87,2.87,0,0,1,.92-.17"></path> <path class="cls-2" d="M127.67,91.07a3.13,3.13,0,0,1-.69.14,4.72,4.72,0,0,1-.53.05,1.86,1.86,0,0,1-1.41-.45,2.18,2.18,0,0,1-.42-1.51V85.55h-1v-.8h1l.22-1.51h.61v1.51h1.85v.8h-1.85v3.52a1.68,1.68,0,0,0,.27,1.1,1.08,1.08,0,0,0,.82.29l.46,0c.16,0,.34,0,.52-.07Z"></path> <path class="cls-2" d="M128.53,90.59a.64.64,0,0,1,.17-.42.6.6,0,0,1,.47-.19.62.62,0,0,1,.48.19.64.64,0,0,1,.17.42.71.71,0,0,1-.17.47.6.6,0,0,1-.48.2.63.63,0,0,1-.47-.19.69.69,0,0,1-.17-.48"></path> <path class="cls-2" d="M139.53,85.32a2.57,2.57,0,0,0-.2-1.06,2,2,0,0,0-.51-.7,1.83,1.83,0,0,0-.71-.39,2.73,2.73,0,0,0-.8-.13h-2.26v7.35h2.19a2.92,2.92,0,0,0,.81-.11,2,2,0,0,0,.74-.4,2.12,2.12,0,0,0,.53-.7,2.41,2.41,0,0,0,.21-1.06Zm.93,3a3,3,0,0,1-.22,1.19,2.89,2.89,0,0,1-.63.93,2.78,2.78,0,0,1-1,.59,3.36,3.36,0,0,1-1.2.21h-3.33v-9h3.35a3.34,3.34,0,0,1,1.21.21,2.68,2.68,0,0,1,1.56,1.51,3.38,3.38,0,0,1,.21,1.21Z"></path> <path class="cls-2" d="M146,87.21a1.91,1.91,0,0,0-.14-.8,1.45,1.45,0,0,0-.37-.53,1.59,1.59,0,0,0-.54-.3,1.81,1.81,0,0,0-.61-.1,1.9,1.9,0,0,0-.63.11,1.51,1.51,0,0,0-.93.83,1.94,1.94,0,0,0-.14.76v.41H146Zm-3.36,1.1v.51a1.79,1.79,0,0,0,.15.77,1.43,1.43,0,0,0,.4.53,1.57,1.57,0,0,0,.56.29,2.46,2.46,0,0,0,.67.09,2.42,2.42,0,0,0,.86-.16,2.21,2.21,0,0,0,.81-.51l.54.59a2.62,2.62,0,0,1-1,.64,3.78,3.78,0,0,1-1.2.2,3.31,3.31,0,0,1-1-.15,2.14,2.14,0,0,1-.83-.44,2,2,0,0,1-.55-.73,2.4,2.4,0,0,1-.21-1V87.16a2.8,2.8,0,0,1,.19-1,2.16,2.16,0,0,1,.53-.78,2.41,2.41,0,0,1,.8-.5,3.09,3.09,0,0,1,1-.17,2.8,2.8,0,0,1,1,.17,2.07,2.07,0,0,1,.79.49,2.12,2.12,0,0,1,.51.76,2.4,2.4,0,0,1,.19,1v1.21Z"></path> <path class="cls-2" d="M149.28,89.57c0,.38.08.62.23.72a1.33,1.33,0,0,0,.77.13l0,.79-.27,0h-.26a1.22,1.22,0,0,1-1.06-.4,2.07,2.07,0,0,1-.27-1.16V81.86h.84Z"></path> <path class="cls-2" d="M151.64,84.75h.85v6.44h-.85Zm1-2a.55.55,0,0,1-.55.55.51.51,0,0,1-.38-.16.56.56,0,0,1,0-.78.54.54,0,0,1,.38-.15.56.56,0,0,1,.39.15.53.53,0,0,1,.16.39"></path> <path class="cls-2" d="M156.32,90l.81-2.45,1-2.82H159l-2.3,6.42h-.86c-.39-1.07-.77-2.14-1.15-3.21l-1.15-3.21h.92l.94,2.76c.08.26.17.51.26.77s.16.49.24.71.13.43.19.61.11.32.14.42Z"></path> <path class="cls-2" d="M164,87.21a2.08,2.08,0,0,0-.14-.8,1.45,1.45,0,0,0-.37-.53,1.59,1.59,0,0,0-.54-.3,1.81,1.81,0,0,0-.61-.1,1.9,1.9,0,0,0-.63.11,1.57,1.57,0,0,0-.55.31,1.71,1.71,0,0,0-.38.52,1.94,1.94,0,0,0-.14.76v.41H164Zm-3.36,1.1v.51a1.79,1.79,0,0,0,.15.77,1.43,1.43,0,0,0,.4.53,1.57,1.57,0,0,0,.56.29,2.52,2.52,0,0,0,.67.09,2.42,2.42,0,0,0,.86-.16,2.21,2.21,0,0,0,.81-.51l.53.59a2.48,2.48,0,0,1-1,.64,3.67,3.67,0,0,1-1.19.2,3.42,3.42,0,0,1-1-.15,2.17,2.17,0,0,1-.82-.44,1.91,1.91,0,0,1-.55-.73,2.4,2.4,0,0,1-.21-1V87.16a2.61,2.61,0,0,1,.19-1,2.16,2.16,0,0,1,.53-.78,2.41,2.41,0,0,1,.8-.5,3.09,3.09,0,0,1,1-.17,2.8,2.8,0,0,1,1,.17,2.07,2.07,0,0,1,.79.49,2.12,2.12,0,0,1,.51.76,2.4,2.4,0,0,1,.19,1v1.21Z"></path> <path class="cls-2" d="M169.42,85.61A4.89,4.89,0,0,0,168,86a6.42,6.42,0,0,0-.89.46v4.77h-.85V84.75H167l.1,1h0a3,3,0,0,1,.45-.36,4.38,4.38,0,0,1,1.21-.56,2.16,2.16,0,0,1,.65-.11Z"></path> <path class="cls-2" d="M174.3,87.21a2.08,2.08,0,0,0-.14-.8,1.45,1.45,0,0,0-.37-.53,1.59,1.59,0,0,0-.54-.3,1.86,1.86,0,0,0-.61-.1,2,2,0,0,0-.64.11,1.62,1.62,0,0,0-.54.31,1.56,1.56,0,0,0-.38.52,1.94,1.94,0,0,0-.14.76v.41h3.36Zm-3.36,1.1v.51a1.79,1.79,0,0,0,.15.77,1.43,1.43,0,0,0,.4.53,1.57,1.57,0,0,0,.56.29,2.46,2.46,0,0,0,.67.09,2.42,2.42,0,0,0,.86-.16,2.21,2.21,0,0,0,.81-.51l.53.59a2.51,2.51,0,0,1-1,.64,3.78,3.78,0,0,1-1.2.2,3.42,3.42,0,0,1-1-.15,2.17,2.17,0,0,1-.82-.44,2,2,0,0,1-.55-.73,2.4,2.4,0,0,1-.21-1V87.16a2.61,2.61,0,0,1,.19-1,2.16,2.16,0,0,1,.53-.78,2.41,2.41,0,0,1,.8-.5,3,3,0,0,1,1-.17,2.8,2.8,0,0,1,1,.17,2.07,2.07,0,0,1,.79.49,2.12,2.12,0,0,1,.51.76,2.57,2.57,0,0,1,.19,1v1.21Z"></path> <path class="cls-2" d="M180.58,86a5.06,5.06,0,0,0-2-.53,1.44,1.44,0,0,0-1.09.38,1.67,1.67,0,0,0-.4,1.23v1.84a1.66,1.66,0,0,0,.35,1.19,1.29,1.29,0,0,0,.95.34,2.68,2.68,0,0,0,1-.25,6.79,6.79,0,0,0,1.15-.63Zm.11,5.18-.11-.76a8,8,0,0,1-.75.43,3.4,3.4,0,0,1-.6.24,2.79,2.79,0,0,1-.48.12,3.18,3.18,0,0,1-.4,0,2.12,2.12,0,0,1-1.51-.55,2.23,2.23,0,0,1-.57-1.69V87a2.18,2.18,0,0,1,.63-1.68,2.25,2.25,0,0,1,1.62-.59,4.93,4.93,0,0,1,.86.09,6.28,6.28,0,0,1,1.2.37V81.86h.84v9.33Z"></path> <path class="cls-2" d="M75.14,49.25v.93a.87.87,0,0,1-.28.74,1.5,1.5,0,0,1-.83.2H71.14a1.27,1.27,0,0,1-.77-.25.88.88,0,0,1-.22-.66,1,1,0,0,1,.22-.71,1.37,1.37,0,0,1,.83-.25Zm-9.53-9.14v3.75h7.54a2,2,0,0,1,1.71.59,1.68,1.68,0,0,1,.28,1v.22H68.56a4.16,4.16,0,0,0-2.67.66c-1.19.91-1.3,2.49-1.3,3.8s.06,3.18,1.22,4.23a3.81,3.81,0,0,0,2.75.79h8.85A3.35,3.35,0,0,0,80,54.36a3.28,3.28,0,0,0,.74-2.42V45.65a5.8,5.8,0,0,0-1.42-4.23,5.16,5.16,0,0,0-3.71-1.31Z"></path> <path class="cls-2" d="M48.83,55.15H59.58a3.77,3.77,0,0,0,2.47-.71,3.94,3.94,0,0,0,1.25-3.2,5.08,5.08,0,0,0-.77-2.9c-.71-1.05-1.87-1.5-3.46-2L55.27,45c-.65-.22-.45-.2-1.13-.42-.17-.06-.31-.12-.31-.35s.11-.22.25-.25a2.94,2.94,0,0,1,.65,0h8.18V40.11h-10c-1.56,0-2.69.23-3.49,1.42a4.76,4.76,0,0,0-.71,2.7,5.42,5.42,0,0,0,.57,2.52,5.54,5.54,0,0,0,3.09,2l3.24,1a14.69,14.69,0,0,1,1.7.59.39.39,0,0,1,.25.34.31.31,0,0,1-.14.29l-.34.11h-8.2Z"></path> <path class="cls-2" d="M82.33,55.15h5.56V45a1.56,1.56,0,0,1,.14-.77,1,1,0,0,1,.74-.22H90.9V55.15h5.56V44h.62a2.44,2.44,0,0,1,1.79.65,3.16,3.16,0,0,1,.6,2.13v8.34H105V45.67a5.8,5.8,0,0,0-1.59-4.05,7.05,7.05,0,0,0-4.67-1.51H85.85c-1.19,0-2.22.06-3,1a2.58,2.58,0,0,0-.54,1.67Z"></path> <path class="cls-2" d="M48.83,71.71H59.58A3.83,3.83,0,0,0,62.05,71a3.94,3.94,0,0,0,1.25-3.21,5.07,5.07,0,0,0-.77-2.89c-.71-1.05-1.87-1.5-3.46-2l-3.8-1.28c-.65-.23-.45-.2-1.13-.42-.17-.06-.31-.12-.31-.35s.11-.22.25-.25a2.43,2.43,0,0,1,.65,0h8.18V56.67h-10c-1.56,0-2.69.23-3.49,1.42a4.76,4.76,0,0,0-.71,2.7,5.45,5.45,0,0,0,.57,2.52,5.54,5.54,0,0,0,3.09,2l3.24,1a14.69,14.69,0,0,1,1.7.59.38.38,0,0,1,.25.34.29.29,0,0,1-.14.28l-.34.12h-8.2Z"></path> <path class="cls-2" d="M69.69,64.19a4.54,4.54,0,0,1,.53-2.69,3.5,3.5,0,0,1,4.84,0,4.59,4.59,0,0,1,.53,2.69A4.59,4.59,0,0,1,75,66.83a2.69,2.69,0,0,1-2.39,1,2.74,2.74,0,0,1-2.42-1,4.52,4.52,0,0,1-.53-2.64m3-7.69c-2.34,0-5,.09-6.57,1.54-1.83,1.67-1.95,4.65-1.95,6.15s.12,4.48,1.95,6.16c1.61,1.45,4.23,1.53,6.57,1.53s5-.08,6.57-1.53c1.83-1.68,2-4.66,2-6.16s-.12-4.48-2-6.15C77.6,56.59,75,56.5,72.64,56.5"></path> <path class="cls-2" d="M93.05,56.67v8.2c0,2.27.34,4.28,1.9,5.56a6.29,6.29,0,0,0,4.2,1.28H106A3.91,3.91,0,0,0,108.4,71a2.81,2.81,0,0,0,.93-2.39v-12h-5.55v9.79a1.16,1.16,0,0,1-.29.91,1.34,1.34,0,0,1-1,.31h-1a2.74,2.74,0,0,1-2.36-.94,4.45,4.45,0,0,1-.53-2.58V56.67Z"></path> <path class="cls-2" d="M122.44,71.71v-4h-.83a3.49,3.49,0,0,1-2.44-.71,3.89,3.89,0,0,1-1-3V60.53h4.28V56.67h-4.28V51.85h-5.56v4.82h-2.13v3.86h2.13V67a4.52,4.52,0,0,0,1.9,3.69,8.43,8.43,0,0,0,4.65,1Z"></path> <rect class="cls-2" x="124.09" y="56.67" width="5.56" height="15.04"></rect> <path class="cls-2" d="M149.29,71.71h5.56v-10a1,1,0,0,1,.26-.86,1.19,1.19,0,0,1,.76-.22h1a2.61,2.61,0,0,1,2.3.91,4,4,0,0,1,.62,2.58v7.63h5.56V62.46A5.32,5.32,0,0,0,163.48,58a7.62,7.62,0,0,0-5-1.34h-5.22c-.94,0-2.44,0-3.29.86a2.31,2.31,0,0,0-.63,1.84Z"></path> <path class="cls-2" d="M166.76,71.71h10.75A3.86,3.86,0,0,0,180,71a3.94,3.94,0,0,0,1.25-3.21,5.07,5.07,0,0,0-.77-2.89c-.71-1.05-1.87-1.5-3.46-2l-3.8-1.28c-.65-.23-.45-.2-1.14-.42-.17-.06-.31-.12-.31-.35s.11-.22.25-.25a2.49,2.49,0,0,1,.66,0h8.17V56.67h-10c-1.56,0-2.7.23-3.49,1.42a4.76,4.76,0,0,0-.71,2.7,5.33,5.33,0,0,0,.57,2.52,5.5,5.5,0,0,0,3.09,2l3.23,1a14.69,14.69,0,0,1,1.7.59.37.37,0,0,1,.26.34.31.31,0,0,1-.14.28l-.34.12h-8.2Z"></path> <path class="cls-2" d="M92.12,71.71v-4H91.3A3.47,3.47,0,0,1,88.86,67a3.86,3.86,0,0,1-1-3V56.67H82.33V67a4.52,4.52,0,0,0,1.9,3.69,8.46,8.46,0,0,0,4.66,1Z"></path> <path class="cls-2" d="M136.66,64.19a4.63,4.63,0,0,1,.53-2.69,3.5,3.5,0,0,1,4.84,0,4.59,4.59,0,0,1,.53,2.69,4.59,4.59,0,0,1-.56,2.64,2.69,2.69,0,0,1-2.39,1,2.74,2.74,0,0,1-2.42-1,4.52,4.52,0,0,1-.53-2.64m3-7.69c-2.34,0-5,.09-6.57,1.54-1.84,1.67-1.95,4.65-1.95,6.15s.11,4.48,1.95,6.16c1.61,1.45,4.23,1.53,6.57,1.53s5-.08,6.57-1.53c1.84-1.68,1.95-4.66,1.95-6.16S148,59.71,146.18,58c-1.61-1.45-4.23-1.54-6.57-1.54"></path> <path class="cls-3" d="M101.2,29.85l6.37-2.32a2,2,0,0,1,2.49,1.16l2.33,6.38a2,2,0,0,1-1.17,2.49l-6.37,2.32a1.94,1.94,0,0,1-2.49-1.16L100,32.34a2,2,0,0,1,1.16-2.49"></path> <path class="cls-3" d="M134.76,17.64l6.38-2.33a2,2,0,0,1,2.49,1.17L146,22.85a1.94,1.94,0,0,1-1.16,2.49l-6.38,2.33a2,2,0,0,1-2.49-1.17l-2.32-6.37a2,2,0,0,1,1.16-2.49"></path> <path class="cls-3" d="M145.25,46.44l6.37-2.32a1.94,1.94,0,0,1,2.49,1.16l2.32,6.38a1.94,1.94,0,0,1-1.16,2.49l-6.37,2.32a2,2,0,0,1-2.5-1.17l-2.32-6.37a2,2,0,0,1,1.17-2.49"></path> <path class="cls-2" d="M136.6,46.22l-.33.14-10.78,3.93a3.29,3.29,0,0,1-4.21-2l-3.55-9.73.33-.15,10.78-3.92a3.29,3.29,0,0,1,4.22,2Z"></path> <path class="cls-3" d="M131.22,29.21a3.34,3.34,0,0,0-1.12.19l-10.78,3.93a3.29,3.29,0,0,0-2,4.21l.38,1.05.33-.15,10.78-3.92a3.44,3.44,0,0,1,1.12-.2,3.29,3.29,0,0,1,3.1,2.17l3.54,9.72a3.29,3.29,0,0,0,1.64-4.06l-3.93-10.78a3.29,3.29,0,0,0-3.09-2.16"></path> <path class="cls-3" d="M117.74,38.6a3.29,3.29,0,0,0-1.64,4.06L120,53.44a3.32,3.32,0,0,0,3.1,2.17,3.39,3.39,0,0,0,1.12-.2L135,51.48a3.29,3.29,0,0,0,2-4.21l-.38-1.05-.32.14-10.79,3.93a3.35,3.35,0,0,1-1.12.2,3.3,3.3,0,0,1-3.09-2.17Z"></path> <path class="cls-4" d="M117.74,38.6h0l3.54,9.72a3.3,3.3,0,0,0,3.09,2.17,3.35,3.35,0,0,0,1.12-.2l10.78-3.93-10.78,3.93a3.35,3.35,0,0,1-1.12.2,3.3,3.3,0,0,1-3.09-2.17Z"></path> </g> </g> </svg> 