<?xml version="1.0" encoding="UTF-8"?> <svg xmlns="http://www.w3.org/2000/svg" width="160" height="160" viewBox="0 0 160 160" fill="none"> <g clip-path="url(#clip0_901_4)"> <rect width="160" height="160" fill="white"></rect> <rect width="160" height="160" fill="#004225"></rect> <g clip-path="url(#clip1_901_4)"> <path d="M25.9108 110.175H14.3594V115.444H16.9636V130.529H14.3594V135.805H26.2033C30.1418 135.805 33.2597 134.61 35.4787 132.242C37.6976 129.873 38.8392 126.725 38.8392 122.87C38.8392 119.015 37.769 116.005 35.6 113.688C33.4309 111.37 30.1632 110.175 25.9108 110.175ZM22.8784 115.444H25.7752C30.3415 115.444 32.5605 117.893 32.5605 122.943C32.5605 125.632 31.9754 127.592 30.8267 128.773C29.678 129.953 27.9728 130.529 25.7752 130.529H22.8784V115.444Z" fill="white"></path> <path d="M57.4262 131.87C57.2424 131.934 57.0495 131.966 56.8554 131.965C56.5058 131.965 56.1419 131.899 56.1419 131.112V123.664C56.2004 122.753 56.0353 121.841 55.6615 121.011C55.2878 120.182 54.7171 119.46 54.0014 118.913C52.5415 117.866 50.7903 117.327 49.007 117.375C47.7956 117.363 46.5861 117.475 45.3967 117.711C44.1184 118.024 42.8678 118.446 41.658 118.971L41.4155 119.073L40.545 124.269L45.2612 124.787L45.9747 122.17C46.2578 122.046 46.5549 121.958 46.8594 121.908C47.2843 121.843 47.7139 121.813 48.1437 121.821C49.8418 121.821 50.0344 122.506 50.0986 122.732C50.3185 123.528 50.4289 124.352 50.4268 125.18V125.224C49.7562 125.158 48.9999 125.122 48.1365 125.122C46.2513 125.117 44.3831 125.486 42.6355 126.208C40.8019 126.936 39.8672 128.518 39.8672 130.828C39.8672 132.788 40.5022 134.195 41.7579 135.018C42.87 135.769 44.1706 136.177 45.5038 136.192C46.8174 136.242 48.1077 135.827 49.1568 135.018C49.7143 134.571 50.2195 134.06 50.6623 133.495C51.1974 135.251 52.5388 136.177 54.5793 136.177C55.7103 136.172 56.8219 135.876 57.8114 135.317L58.0612 135.186L58.0112 131.702L57.4262 131.87ZM50.4126 128.532C50.3632 129.441 49.9721 130.295 49.3209 130.915C48.7561 131.439 48.022 131.733 47.2589 131.739C47.0486 131.766 46.8352 131.744 46.634 131.676C46.4328 131.608 46.249 131.495 46.096 131.345C45.8562 131.03 45.7347 130.637 45.7535 130.238C45.7535 129.247 46.153 128.933 46.467 128.78C47.106 128.5 47.7982 128.368 48.4933 128.394C48.8773 128.393 49.2611 128.417 49.642 128.467L50.4126 128.532Z" fill="white"></path> <path d="M77.9955 123.781C77.9955 121.595 77.3533 119.984 76.0762 118.927C74.8275 117.897 73.2644 117.348 71.6597 117.375C70.7474 117.327 69.8357 117.48 68.9863 117.823C68.1368 118.166 67.3696 118.692 66.7366 119.365V117.718H58.5957V122.396H61.0144V131.178H58.7669V135.805H68.9627V131.178H66.7295V125.479C66.7069 124.559 67.0081 123.662 67.5785 122.95C67.8698 122.631 68.2275 122.383 68.6251 122.224C69.0227 122.065 69.4502 122 69.876 122.032C70.2104 122.005 70.5463 122.06 70.8554 122.194C71.1646 122.327 71.4379 122.534 71.6526 122.797C72.1471 123.662 72.3665 124.663 72.2804 125.661V131.156H70.0115V135.783H80.2287V131.178H77.9955V123.781Z" fill="white"></path> <path d="M92.9646 129.079C92.8173 129.628 92.5597 130.139 92.2083 130.58C91.8444 131.083 91.0881 131.309 89.9608 131.309C87.9915 131.309 86.8999 130.318 86.5503 128.197H97.3953L97.4738 127.818C97.6532 126.973 97.7441 126.111 97.745 125.246C97.7684 124.173 97.5702 123.107 97.1633 122.117C96.7564 121.128 96.1499 120.237 95.3833 119.503C93.7396 118.012 91.5942 117.228 89.3971 117.317C88.1659 117.261 86.9383 117.49 85.8056 117.986C84.6728 118.482 83.6641 119.232 82.8544 120.181C81.2784 122.113 80.4508 124.569 80.5284 127.082C80.5284 130.077 81.406 132.373 83.1255 133.903C84.9398 135.461 87.2567 136.274 89.6254 136.184C92.1298 136.184 94.1204 135.558 95.5403 134.319C96.2023 133.79 96.7528 133.13 97.1587 132.379C97.5645 131.628 97.8174 130.8 97.9019 129.946V129.516L93.0145 128.591L92.9646 129.079ZM86.6074 124.444C86.7429 123.784 87.0316 123.167 87.4493 122.644C87.6918 122.366 87.9935 122.149 88.3311 122.008C88.6688 121.868 89.0335 121.809 89.3971 121.835C89.7823 121.785 90.1737 121.842 90.5294 122.001C90.8851 122.16 91.1916 122.415 91.4163 122.739C91.7341 123.249 91.9048 123.84 91.9086 124.444H86.6074Z" fill="white"></path> <path d="M106.336 108.718H98.1953V113.389H100.614V131.17H98.3808V135.805H108.569V131.17H106.336V108.718Z" fill="white"></path> <path d="M121.519 129.079C121.374 129.629 121.117 130.141 120.763 130.58C120.399 131.083 119.642 131.309 118.515 131.309C116.546 131.309 115.454 130.318 115.105 128.197H125.957L126.035 127.818C126.215 126.973 126.306 126.111 126.306 125.246C126.33 124.173 126.132 123.107 125.725 122.117C125.318 121.128 124.711 120.237 123.945 119.503C122.301 118.012 120.156 117.228 117.959 117.317C116.724 117.258 115.492 117.485 114.355 117.981C113.219 118.477 112.206 119.229 111.395 120.181C109.82 122.114 108.995 124.569 109.076 127.082C109.076 130.077 109.946 132.373 111.673 133.903C113.484 135.462 115.799 136.275 118.166 136.184C120.677 136.184 122.668 135.557 124.087 134.319C124.749 133.79 125.298 133.13 125.703 132.379C126.108 131.627 126.359 130.8 126.442 129.946V129.516L121.562 128.591L121.519 129.079ZM115.176 124.444C115.312 123.785 115.598 123.169 116.011 122.644C116.255 122.366 116.558 122.148 116.896 122.008C117.235 121.868 117.601 121.809 117.966 121.835C118.349 121.79 118.737 121.852 119.088 122.013C119.44 122.175 119.742 122.431 119.964 122.753C120.285 123.262 120.456 123.854 120.456 124.459L115.176 124.444Z" fill="white"></path> <path d="M143.024 131.134L139.092 126.332L141.597 124.466C142.651 123.704 143.576 122.771 144.337 121.704C144.706 121.185 144.943 120.58 145.026 119.944C145.11 119.308 145.037 118.66 144.815 118.06L144.7 117.74H138.607L138.75 118.33C138.995 119.291 138.96 120.304 138.65 121.245C138.227 122.279 137.572 123.198 136.738 123.927L135.575 122.396H135.839L137.266 121.136L137.694 117.718H128.611L127.184 118.986L126.756 122.389H129.004L132.799 126.805C131.175 127.934 129.61 129.151 128.112 130.449C127.388 131.031 126.874 131.842 126.652 132.756C126.429 133.669 126.511 134.632 126.885 135.492L126.999 135.805H133.113L132.935 135.2C132.617 134.144 132.6 133.016 132.885 131.95C133.28 130.813 134.032 129.842 135.026 129.188L136.502 131.134H136.31L134.883 132.402L134.455 135.813H143.823L145.25 134.552L145.678 131.134H143.024Z" fill="white"></path> </g> </g> <defs> <clipPath id="clip0_901_4"> <rect width="160" height="160" fill="white"></rect> </clipPath> <clipPath id="clip1_901_4"> <rect width="131.282" height="27.6923" fill="white" transform="translate(14.3594 108.718)"></rect> </clipPath> </defs> </svg> 