<?xml version="1.0" encoding="UTF-8"?> <!-- Generator: Adobe Illustrator 26.0.2, SVG Export Plug-In . SVG Version: 6.00 Build 0) --> <svg xmlns="http://www.w3.org/2000/svg" xmlns:xlink="http://www.w3.org/1999/xlink" id="Layer_1" x="0px" y="0px" viewBox="0 0 300 78" style="enable-background:new 0 0 300 78;" xml:space="preserve"> <style type="text/css"> .st0{clip-path:url(#SVGID_00000078732680872855331640000005849769592414434731_);} .st1{fill-rule:evenodd;clip-rule:evenodd;fill:#62BE00;} .st2{fill-rule:evenodd;clip-rule:evenodd;fill:#40403F;} </style> <g> <defs> <rect id="SVGID_1_" width="300" height="78"></rect> </defs> <clipPath id="SVGID_00000011716492113364855530000015376581860312564154_"> <use xlink:href="#SVGID_1_" style="overflow:visible;"></use> </clipPath> <g style="clip-path:url(#SVGID_00000011716492113364855530000015376581860312564154_);"> <path class="st1" d="M21.76,35.282H6.603l0.033,6.41h13.224v4.925H6.637l0.1,6.761h15.877l-0.109,5.25H0V29.998h21.794 L21.76,35.282z"></path> <path class="st1" d="M31.235,44.012c0,6.394,2.025,9.657,7.223,9.657c1.339,0,2.787,0,3.934-0.109v-7.003h-5.197V41.65h11.809 v16.927H38.499c-7.206,0-13.843-2.245-13.843-14.657c0-5.968,1.732-13.947,12.914-13.947h10.78l-0.728,5.283h-9.064 C33.754,35.273,31.235,37.143,31.235,44.012z"></path> <path class="st1" d="M66.453,29.347c11.24,0,13.157,7.203,13.157,15.083c0,8.171-1.858,14.941-13.106,14.941 c-11.248,0-13.299-6.769-13.299-14.941C53.204,36.55,55.238,29.347,66.453,29.347z M66.453,34.48 c-5.859,0-6.695,5.108-6.695,9.949c0,6.243,0.887,9.807,6.695,9.807c5.808,0,6.503-3.564,6.503-9.807 C73.006,39.588,72.228,34.48,66.453,34.48z"></path> <path class="st2" d="M96.156,41.166l-0.469-0.075c-2.879-0.459-5.172-0.968-5.172-2.98c0-2.404,3.063-2.304,4.327-2.304h8.645 l0.72-5.843h-9.842c-7.156,0-11.223,2.721-11.223,8.155c0,6.402,4.586,7.888,9.7,8.956l0.561,0.117 c2.226,0.442,5.365,1.068,5.34,3.105c0,2.679-4.57,2.412-4.921,2.412c-2.963,0.058-9.064,0-9.064,0l-0.728,5.843h9.524 c3.791,0,12.554-0.384,12.554-8.347C106.14,43.378,101.42,42.034,96.156,41.166z"></path> <path class="st2" d="M117.096,47.042h12.721v-5.809h-12.721v-5.434h14.588v-5.818H109.63v28.621h22.74v-5.818h-15.274V47.042z"></path> <path class="st2" d="M157.152,52.008h-8.947c-4.252,0-6.302-1.753-6.302-7.954c0-5.935,1.925-7.512,6.318-7.512h8.211l0.72-6.552 h-9.793c-8.503,0-12.922,4.44-12.922,13.989c0,13.789,8.838,14.607,12.655,14.607h10.796L157.152,52.008z"></path> <path class="st2" d="M178.1,44.53c0,5.901-0.837,8.18-5.306,8.18c-4.469,0-5.348-2.279-5.348-8.18V29.981h-7.466v14.398 c0,6.919,1.457,14.865,12.814,14.865c11.357,0,12.772-7.512,12.772-14.865V29.981H178.1V44.53z"></path> <path class="st2" d="M214.139,39.53c0-6.427-3.951-9.549-12.086-9.549h-11.717v28.613h7.466v-9.307h5.239l4.595,9.315h7.817 l-5.499-10.984C212.733,46.049,214.139,43.328,214.139,39.53z M206.682,39.572c0,2.946-1.038,3.89-4.244,3.89h-4.628v-7.671h4.319 c3.531,0,4.594,0.843,4.594,3.781H206.682z"></path> <path class="st2" d="M226.082,52.785v-5.743h12.729v-5.809h-12.729v-5.434h14.587v-5.818h-22.053v28.621h22.74v-5.818H226.082z"></path> <path class="st2" d="M260.12,11.435c-0.81,1.568-1.348,3.261-1.59,5.008c0.443,0,0.535,0.259,0.979,0.284 C259.392,14.448,259.768,13.664,260.12,11.435z"></path> <path class="st2" d="M275.285,16.243c-0.293,0.618-0.561,1.219-0.837,1.82c0.77,0.259,1.549,0.517,2.31,0.835 c0.251-0.835,0.519-1.594,0.837-2.404c0.444-1.402,0.837-2.813,1.348-4.173c-0.54-0.191-1.103-0.309-1.674-0.351 C276.557,13.321,275.913,14.79,275.285,16.243z"></path> <path class="st2" d="M283.78,1.711c-2.169,2.413-4.004,5.106-5.457,8.004c0.458,0.096,0.911,0.216,1.356,0.359 C280.698,7.13,282.075,4.321,283.78,1.711L283.78,1.711z"></path> <path class="st2" d="M272.08,14.231c0.168,0.022,0.332,0.07,0.485,0.142c0.761-2.394,1.663-4.741,2.704-7.028 c-0.373-0.018-0.745-0.057-1.114-0.117c-0.069-0.012-0.136-0.031-0.2-0.058c-0.864,1.679-1.641,3.4-2.327,5.158 c-0.209,0.551-0.41,1.11-0.628,1.669C271.354,14.101,271.715,14.179,272.08,14.231L272.08,14.231z"></path> <path class="st2" d="M269.134,8.121c0.678-2.729,1.255-4.858,2.033-8.121c-1.644,2.349-2.935,4.924-3.833,7.646 c0,0.117-0.075,0.242-0.117,0.367l1.515,0.042C268.869,8.054,269.005,8.076,269.134,8.121L269.134,8.121z"></path> <path class="st2" d="M276.189,5.091c0.502-1.202,0.979-2.421,1.398-3.664c-0.914,1.161-1.753,2.38-2.511,3.648h0.276 C275.637,5.1,275.93,5.091,276.189,5.091z"></path> <path class="st2" d="M295.824,45.039c-0.914-0.033-1.82-0.181-2.695-0.442c0.054,0.312,0.054,0.631,0,0.943 C294.033,45.364,294.945,45.231,295.824,45.039z"></path> <path class="st2" d="M291.522,39.463c0.217,0.768,0.494,1.719,0.661,2.304c1.858-0.676,4.586-1.669,5.499-2.153 C295.636,39.389,293.576,39.339,291.522,39.463L291.522,39.463z"></path> <path class="st2" d="M291.338,10.058c-1.172,0.509-3.289,2.437-5.139,4.299l0.695,0.701 C288.22,13.26,289.707,11.586,291.338,10.058L291.338,10.058z"></path> <path class="st2" d="M283.722,27.319c0.995-1.194,2.912-3.431,3.883-4.374l0.335-0.284c-0.201-0.225-0.469-0.526-0.745-0.835 l-0.126,0.083l-0.1,0.075c-1.08,0.793-3.432,2.863-4.511,3.798C282.809,26.301,283.32,26.901,283.722,27.319z"></path> <path class="st2" d="M282.692,21.359c0.837-1.377,1.674-2.855,2.302-3.789l0.703-0.96c-0.268-0.259-0.586-0.568-0.887-0.835 l-0.645,0.693l-0.05,0.05c-0.711,0.835-1.891,2.329-2.98,3.723C281.654,20.625,282.215,21.017,282.692,21.359z"></path> <path class="st2" d="M290.518,25.716c1.673-1.419,3.347-2.88,4.444-3.981c-1.82,0.829-3.557,1.827-5.189,2.98L290.518,25.716z"></path> <path class="st2" d="M293.882,28.971c1.038-0.634,2.092-1.285,2.661-1.669c-1.005,0.254-1.981,0.612-2.912,1.068L293.882,28.971z"></path> <path class="st2" d="M294.769,35.482l1.54-0.492l-0.661-1.469c-0.561,0.043-1.12,0.116-1.674,0.217 c-0.552,0.092-1.255,0.234-1.992,0.392l1.122,1.987C293.765,35.874,294.309,35.649,294.769,35.482z"></path> <path class="st2" d="M288.852,21.868c1.548-1.285,3.657-3.03,4.67-3.856c-1.205,0.609-3.582,2.07-5.289,3.147L288.852,21.868z"></path> <path class="st2" d="M289.48,26.601l-0.837-1.093c-0.837,0.559-1.557,1.11-2.235,1.619l0.887,1.327L289.48,26.601z"></path> <path class="st2" d="M290.3,31.208l1.08-0.709l1.23-0.751l-0.327-0.743c-0.56,0.275-1.062,0.534-1.431,0.726 c-0.661,0.384-1.314,0.768-1.975,1.118l-1.389,0.743l0.711,0.835C288.618,32.151,290.04,31.359,290.3,31.208z"></path> <path class="st2" d="M267.895,14.49c0.109-0.785,0.226-1.577,0.36-2.362c0.109-0.601,0.226-1.193,0.36-1.786 c-0.686,0-1.389-0.1-2.084-0.058c-0.134,0.492-0.26,0.993-0.394,1.486c-0.167,0.651-0.334,1.302-0.493,1.962 c-0.26,1.052-0.887,3.188-1.214,4.173c0.938,0.125,2.076,0.918,3.021,0.943C267.535,18.012,267.82,15.366,267.895,14.49z"></path> <path class="st2" d="M260.036,31.083c-0.228-0.005-0.452,0.058-0.644,0.181c-0.192,0.123-0.343,0.3-0.434,0.509 c-0.09,0.209-0.116,0.44-0.074,0.664c0.042,0.224,0.15,0.43,0.31,0.592c0.161,0.162,0.366,0.273,0.589,0.318 c0.224,0.045,0.456,0.023,0.667-0.064c0.211-0.087,0.391-0.235,0.517-0.425c0.126-0.19,0.192-0.413,0.191-0.64 c0.001-0.148-0.027-0.295-0.083-0.432c-0.056-0.137-0.138-0.262-0.242-0.367s-0.228-0.189-0.365-0.247 C260.331,31.114,260.185,31.084,260.036,31.083z"></path> <path class="st2" d="M260.095,35.098c-0.545,0-1.077-0.161-1.53-0.463c-0.453-0.302-0.806-0.731-1.014-1.232 c-0.209-0.502-0.263-1.054-0.157-1.587c0.106-0.533,0.369-1.022,0.754-1.406c0.385-0.384,0.875-0.646,1.41-0.752 c0.534-0.106,1.087-0.052,1.591,0.156c0.503,0.208,0.933,0.56,1.235,1.011c0.303,0.452,0.464,0.982,0.464,1.526 c0,0.728-0.29,1.427-0.806,1.942C261.525,34.809,260.825,35.098,260.095,35.098L260.095,35.098z M292.869,56.657 c-1.674-0.876-2.1-1.836-2.812-3.08c-0.898-1.826-1.23-3.878-0.954-5.893c0.028-0.22,0.111-0.429,0.241-0.608 c0.13-0.179,0.303-0.323,0.504-0.418c0.36-0.2,1.406-0.634,1.791-0.776c-0.159-0.259,0.117-1.26,0.167-1.444 c-0.004-0.047-0.004-0.095,0-0.142c-0.267,0-1.498-0.134-1.782-0.117c-0.525,0.008-1.028,0.214-1.406,0.576 c0.295-0.52,0.677-0.986,1.129-1.377c0.4-0.397,0.844-0.747,1.323-1.043l-0.67-2.612l-0.117-0.434l-2.009,0.242 c-0.528,0.094-1.051,0.22-1.565,0.376c0.358-0.473,0.774-0.899,1.239-1.269c0.522-0.378,1.067-0.724,1.632-1.035l1.892-0.776 l-0.929-2.362l-2.084,0.459l-0.193,0.058l-0.301,0.092c-0.678,0.242-1.306,0.501-1.867,0.76c-0.511,0.232-1.009,0.494-1.489,0.785 c0.708-1.253,1.619-2.381,2.695-3.339c-0.31-0.342-0.67-0.726-0.963-1.035c-1.816,0.918-3.716,1.895-3.808,1.886 c0.522-1.148,1.242-2.196,2.126-3.097c0.469-0.518,0.996-1.052,1.557-1.594c-0.159-0.275-0.553-0.835-0.929-1.386l-1.599,1.319 c-1.214,1.01-2.343,1.945-3.348,2.679c0.661-1.103,1.384-2.168,2.168-3.188l0,0c-0.439-0.611-0.923-1.189-1.448-1.728 c-1.824,1.753-3.138,3.021-3.348,3.005c1.097-1.836,2.252-3.931,3.474-6.093c0.05-0.092,0.108-0.192,0.175-0.292 c-0.544-0.384-1.263-0.835-1.883-1.277l-0.226,0.3l-0.167,0.225c-2.344,3.122-4.009,5.467-4.185,5.117 c0.161-2.368,0.571-4.712,1.222-6.995c-0.837-0.334-1.674-0.618-2.511-0.893c-0.042,0.1-0.083,0.209-0.117,0.309 c-1.004,2.504-1.23,4.006-2.511,6.085c-0.232-3.057,0.028-6.131,0.77-9.106c0.076-0.317,0.159-0.634,0.243-0.952 c-0.577-0.075-1.138-0.184-1.674-0.309c-1.029,3.272-1.925,6.552-2.82,9.515c-0.215-1.719-0.254-3.456-0.117-5.183 c-1.139-0.042-2.419-0.718-3.541-0.885c-0.719,1.928-1.33,3.188-2.234,5.083c-0.896-1.269-1.808-4.691-2.101-6.143l-0.494-0.05 c-0.339-0.037-0.68-0.054-1.021-0.05c-0.209,1.77-0.385,5.626-0.544,7.387c-0.656-0.981-1.05-2.113-1.147-3.289 c-0.142,1.995-0.284,3.998-0.284,6.01c-0.837-0.434-0.837-1.436-1.431-2.028c0.101,0.412,0.173,0.83,0.217,1.252 c0.059,0.91,0.21,1.911-0.51,2.696c-0.383,0.351-0.741,0.727-1.071,1.127c-0.96,1.175-1.651,2.546-2.026,4.015 c-0.193,1.278,0.061,2.584,0.72,3.698c2.235,2.888,6.528,3.247,8.721,1.544c0.84-0.785,1.478-1.762,1.858-2.846 c0.07,0.674-0.034,1.355-0.301,1.978c-1.248,2.112-2.88,2.345-3.164,2.345c3.582,0.718,6.026,0.835,6.771,4.34 c0.134,0.342,0.268,0.684,0.385,1.043c1.489,4.173,2.126,4.524,2.678,6.853c0.385,1.669,0.703,2.145,0.686,2.504 c-0.201,0.434-0.602,0.509-0.971,0.835c-0.203,0.169-0.391,0.356-0.56,0.559h6.101c0.033-0.171,0.033-0.347,0-0.518 c-0.05-0.455-0.05-0.914,0-1.369c0,0.042,0,0,0,0.042c0,0.042,0-0.743,0-1.377l1.255,0.543c0,1.027-0.276,2.087-0.242,2.679h5.306 l-0.494-0.926l0.276-1.544l0.728-0.067l0.586,2.504h4.185c0,0-0.561-0.584-0.544-0.618c-0.043-0.62-0.043-1.242,0-1.861 c1.548,1.185,2.854,2.504,4.235,2.504c1.766,0,2.67,0,3.866,0c1.197,0,6.83,0.175,6.403,0c-1.214-0.459-5.08-1.052-6.813-1.936 V56.657z"></path> <path class="st2" d="M296.619,33.429l0.36,1.26c1.021-0.367,2.51-0.926,3.021-1.185C298.877,33.39,297.746,33.364,296.619,33.429 L296.619,33.429z"></path> <path class="st1" d="M170.551,67.108l-3.766,5.993v4.674h-1.431v-4.524l-3.775-6.143h1.565l2.929,4.774l2.963-4.774H170.551z M160.123,77.775h-1.758l-5.072-9.54v9.54h-1.322V67.108h2.201l4.62,8.714v-8.714h1.331V77.775z M147.334,73.601l-1.866-5.217 l-1.875,5.217H147.334z M150.347,77.775h-1.523l-1.046-2.963h-4.662l-1.046,2.963h-1.439l3.891-10.667h1.942L150.347,77.775z M138.932,70.371c0.007-0.327-0.059-0.652-0.193-0.952c-0.129-0.273-0.332-0.504-0.586-0.668c-0.241-0.15-0.508-0.254-0.787-0.309 c-0.363-0.074-0.733-0.107-1.104-0.1h-1.431v4.223h1.196c0.468,0.012,0.935-0.038,1.39-0.15c0.316-0.086,0.605-0.253,0.837-0.484 c0.207-0.203,0.37-0.448,0.477-0.718C138.847,70.947,138.915,70.662,138.932,70.371L138.932,70.371z M140.421,70.329 c0.002,0.452-0.083,0.899-0.251,1.319c-0.159,0.393-0.395,0.75-0.694,1.052c-0.369,0.371-0.815,0.656-1.306,0.835 c-0.61,0.2-1.25,0.294-1.892,0.275h-1.422v3.973h-1.432V67.108h2.905c0.546-0.008,1.091,0.048,1.623,0.167 c0.423,0.097,0.825,0.266,1.189,0.501c0.391,0.26,0.715,0.609,0.945,1.018c0.229,0.479,0.335,1.006,0.31,1.536H140.421z M130.562,77.775h-1.423v-9.181l-2.971,6.26h-0.837l-2.954-6.26v9.181h-1.322V67.108h1.933l2.854,5.943l2.753-5.943h1.967V77.775z M117.297,72.449c0.075-1.145-0.257-2.28-0.938-3.205c-0.304-0.366-0.689-0.657-1.125-0.851c-0.435-0.194-0.909-0.286-1.385-0.268 c-0.485-0.022-0.968,0.067-1.412,0.261c-0.444,0.194-0.837,0.487-1.15,0.858c-0.664,0.932-0.989,2.063-0.92,3.205 c-0.08,1.147,0.256,2.284,0.946,3.205c0.322,0.349,0.713,0.628,1.149,0.819c0.436,0.191,0.906,0.289,1.382,0.289 c0.476,0,0.947-0.099,1.383-0.289c0.436-0.191,0.827-0.47,1.149-0.819c0.662-0.932,0.974-2.067,0.879-3.205H117.297z M117.431,68.335c0.451,0.513,0.793,1.112,1.004,1.761c0.242,0.761,0.36,1.556,0.351,2.354c0.01,0.799-0.112,1.594-0.359,2.354 c-0.209,0.644-0.548,1.237-0.996,1.744c-0.436,0.469-0.966,0.839-1.557,1.085c-0.656,0.253-1.355,0.378-2.059,0.367 c-0.702,0.01-1.398-0.118-2.05-0.376c-0.597-0.236-1.132-0.604-1.566-1.077c-0.451-0.505-0.79-1.1-0.995-1.744 c-0.469-1.529-0.469-3.162,0-4.691c0.202-0.656,0.541-1.262,0.995-1.778c0.434-0.474,0.973-0.84,1.574-1.068 c0.65-0.256,1.343-0.383,2.042-0.376c0.704-0.012,1.404,0.116,2.059,0.376c0.576,0.243,1.093,0.608,1.515,1.068H117.431z M107.412,76.998l-0.719,0.326c-0.272,0.122-0.551,0.226-0.837,0.309c-0.309,0.1-0.626,0.179-0.946,0.234 c-0.372,0.069-0.751,0.103-1.13,0.1c-0.719,0.009-1.434-0.101-2.117-0.325c-0.629-0.208-1.201-0.556-1.674-1.018 c-0.478-0.494-0.846-1.082-1.08-1.728c-0.272-0.786-0.402-1.614-0.385-2.446c-0.012-0.8,0.115-1.597,0.377-2.354 c0.224-0.658,0.593-1.257,1.08-1.753c0.472-0.473,1.044-0.836,1.674-1.06c0.689-0.251,1.418-0.375,2.151-0.367 c0.579,0.002,1.155,0.075,1.716,0.217c0.661,0.171,1.301,0.414,1.908,0.726v1.669h-0.109c-0.522-0.444-1.113-0.802-1.749-1.06 c-0.592-0.227-1.223-0.341-1.858-0.334c-0.5-0.009-0.998,0.079-1.464,0.259c-0.443,0.189-0.838,0.474-1.155,0.835 c-0.349,0.389-0.612,0.847-0.77,1.344c-0.194,0.61-0.287,1.247-0.277,1.886c-0.015,0.655,0.087,1.308,0.302,1.928 c0.174,0.486,0.441,0.934,0.786,1.319c0.327,0.344,0.728,0.61,1.172,0.776c0.453,0.168,0.932,0.253,1.415,0.25 c0.658,0.005,1.311-0.114,1.925-0.351c0.617-0.242,1.185-0.595,1.673-1.043h0.101L107.412,76.998z M91.586,77.775h-7.223v-1.502 c0.494-0.434,1.004-0.835,1.507-1.285c0.502-0.451,0.971-0.835,1.406-1.285c0.701-0.638,1.332-1.349,1.883-2.12 c0.332-0.494,0.509-1.075,0.511-1.669c0.013-0.243-0.031-0.486-0.126-0.711c-0.096-0.224-0.241-0.424-0.426-0.583 c-0.432-0.338-0.975-0.504-1.523-0.467c-0.48,0.007-0.956,0.082-1.414,0.225c-0.525,0.166-1.023,0.405-1.481,0.709h-0.075v-1.502 c0.436-0.197,0.89-0.351,1.356-0.459c0.547-0.139,1.109-0.209,1.674-0.209c0.93-0.041,1.842,0.256,2.569,0.835 c0.307,0.262,0.551,0.591,0.712,0.961c0.161,0.37,0.235,0.772,0.217,1.175c0.005,0.384-0.049,0.767-0.159,1.135 c-0.102,0.354-0.254,0.691-0.452,1.002c-0.195,0.295-0.414,0.574-0.653,0.835c-0.251,0.284-0.552,0.601-0.912,0.943 c-0.511,0.509-1.038,0.993-1.582,1.461l-1.523,1.31h5.741L91.586,77.775z M79.526,73.601v-4.799l-4.135,4.799H79.526z M82.497,74.745h-1.59v3.005h-1.398v-3.005h-5.105v-1.669l5.181-6.018h1.322v6.519h1.59V74.745z M73.366,67.082l-3.691,5.275 l3.691,5.392h-1.674l-2.929-4.39l-2.979,4.39h-1.557l3.724-5.325l-3.641-5.342h1.674l2.879,4.34l2.938-4.34H73.366z M62.77,77.775 h-4.185V76.69h1.398v-8.489h-1.398v-1.093h4.185v1.093h-1.398v8.489h1.398V77.775z M54.326,70.154 c0.011-0.287-0.043-0.572-0.159-0.835c-0.117-0.245-0.303-0.451-0.536-0.593c-0.224-0.145-0.474-0.245-0.736-0.292 c-0.328-0.061-0.662-0.089-0.996-0.084h-1.674v4.006h1.431c0.396,0.004,0.792-0.035,1.18-0.117 c0.313-0.072,0.601-0.225,0.837-0.442c0.205-0.193,0.367-0.426,0.477-0.684C54.265,70.807,54.324,70.482,54.326,70.154z M57.673,77.808h-1.841l-3.582-4.24h-2.034v4.24h-1.423V67.108h3.005c0.541-0.004,1.081,0.038,1.615,0.125 c0.413,0.076,0.807,0.229,1.163,0.451c0.374,0.232,0.687,0.55,0.912,0.926c0.233,0.43,0.346,0.914,0.326,1.402 c0.02,0.692-0.186,1.371-0.586,1.936c-0.413,0.53-0.967,0.935-1.599,1.169L57.673,77.808z M47.387,68.41h-3.867v9.398H42.09 v-9.432h-3.825v-1.269h9.072L47.387,68.41z M35.988,73.576l-1.866-5.217l-1.875,5.217H35.988z M39.001,77.75h-1.515l-1.046-2.963 h-4.637l-1.046,2.963h-1.465l3.883-10.667h1.9L39.001,77.75z M27.694,77.75h-1.431v-9.181l-2.971,6.26h-0.837l-2.946-6.26v9.181 h-1.322V67.108h1.9l2.846,5.943l2.753-5.943h1.983L27.694,77.75z M8.369,73.576L6.503,68.36L4.62,73.576H8.369z M11.382,77.75 H9.859l-1.046-2.963H4.185L3.139,77.75H1.674l3.892-10.667h1.9L11.382,77.75z"></path> </g> </g> </svg> 