<?xml version="1.0" encoding="UTF-8"?> <svg xmlns="http://www.w3.org/2000/svg" width="64" height="80" viewBox="0 0 64 80" fill="none"> <path fill-rule="evenodd" clip-rule="evenodd" d="M64 38.2593C64 32.4063 63.9495 27.608 62.5575 21.8549C58.4502 4.87937 38.4331 -3.44905 21.9367 1.33976C19.9413 1.92099 17.9996 2.6609 16.1316 3.55185C13.6927 4.71057 11.8643 6.12992 9.76649 7.79777C9.54928 7.9645 9.34218 8.15193 9.14161 8.33347L9.10978 8.36227C5.74202 11.3955 2.93556 15.1674 1.44954 19.3971C0.270824 22.7625 0.0364839 26.7302 2.03048 30.1199C4.10586 33.6474 8.9863 34.7399 12.7231 33.3935C15.9112 32.2456 18.1424 29.1165 18.1733 26.4493C18.2165 22.7155 17.2753 21.5792 16.0133 20.0554C15.8411 19.8475 15.6629 19.6324 15.4805 19.4025C15.4992 19.3774 15.5303 19.3268 15.5752 19.254C16.0808 18.433 18.3315 14.7781 24.304 12.7513C32.9423 9.82079 42.184 11.6493 48.0691 18.6003C52.4949 23.828 52.9103 30.1199 52.7194 36.6589L0 37.0816V48.5689C0 50.9228 1.46918 54.0356 3.61052 55.1741L50.4448 80H64V38.2593ZM52.7559 66.144L17.8688 48.5472L52.7559 48.5662V66.144Z" fill="#302B44"></path> </svg> 