<?xml version="1.0" encoding="UTF-8"?> <svg xmlns="http://www.w3.org/2000/svg" width="200" height="173" viewBox="0 0 200 173" fill="none"> <g clip-path="url(#clip0_646_42)"> <path d="M183.25 111.12L200 133.71H164.43L160.21 128C151.686 131.778 142.464 133.723 133.14 133.71H81.23V81.07H28.56V133.71H0V0H28.56V52.51H81.23V0H109.79V105.14H131.79C135.274 105.045 138.732 104.507 142.08 103.54L122.77 77.44H158.3L165.25 86.83C169.176 80.8909 171.314 73.949 171.41 66.83C171.41 45.83 153.5 28.54 131.79 28.54H115.62V0H133.14C146.011 0.000576027 158.608 3.71616 169.419 10.7006C180.23 17.6851 188.795 27.6416 194.086 39.3747C199.377 51.1077 201.169 64.1186 199.247 76.8452C197.325 89.5717 191.77 101.473 183.25 111.12Z" fill="#1168D3"></path> <path d="M0 168.18L3.63 163.85C5.77253 165.641 8.46775 166.637 11.26 166.67C13.01 166.67 13.95 166.07 13.95 164.99C13.95 163.91 13.18 163.48 9.95 162.74C4.95 161.6 1.08 160.19 1.08 155.28C1.08 150.91 4.54 147.75 10.19 147.75C13.685 147.618 17.1142 148.726 19.87 150.88L16.61 155.48C14.6923 154.055 12.3874 153.246 10 153.16C8.42 153.16 7.65 153.83 7.65 154.74C7.65 155.82 8.46 156.29 11.72 157.02C17.13 158.2 20.49 159.94 20.49 164.41C20.49 169.22 16.69 172.07 10.98 172.07C6.96774 172.158 3.06208 170.774 0 168.18H0Z" fill="#1168D3"></path> <path d="M22.8799 159.91C22.8911 158.267 23.2308 156.643 23.8789 155.134C24.527 153.624 25.4705 152.259 26.6538 151.12C27.8371 149.98 29.2364 149.089 30.7693 148.498C32.3023 147.907 33.9379 147.629 35.5799 147.68C42.8399 147.68 48.2099 153.09 48.2099 159.91C48.1987 161.553 47.859 163.177 47.2109 164.686C46.5628 166.196 45.6193 167.56 44.436 168.7C43.2526 169.84 41.8533 170.731 40.3204 171.322C38.7875 171.912 37.1519 172.191 35.5099 172.14C28.2599 172.15 22.8799 166.73 22.8799 159.91ZM41.5599 159.91C41.592 159.097 41.4613 158.285 41.1755 157.523C40.8897 156.761 40.4546 156.064 39.8957 155.473C39.3368 154.881 38.6654 154.407 37.9208 154.079C37.1762 153.75 36.3736 153.574 35.5599 153.56C31.9999 153.56 29.6099 156.45 29.6099 159.91C29.5778 160.723 29.7085 161.534 29.9943 162.296C30.28 163.058 30.7151 163.756 31.2741 164.347C31.833 164.939 32.5044 165.413 33.249 165.741C33.9935 166.07 34.7962 166.246 35.6099 166.26C39.1799 166.26 41.5599 163.37 41.5599 159.91Z" fill="#1168D3"></path> <path d="M51.6001 148.15H70.4201V153.86H58.1201V157.86H69.2401V163.27H58.1201V171.67H51.6001V148.15Z" fill="#1168D3"></path> <path d="M79.1201 153.86H72.0601V148.15H92.7001V153.86H85.6401V171.67H79.1201V153.86Z" fill="#1168D3"></path> <path d="M94 148.15H100.89L104.99 161.76L109.53 148.08H115.14L119.68 161.76L123.78 148.15H130.53L122.67 171.84H117L112.26 158.3L107.56 171.84H101.88L94 148.15Z" fill="#1168D3"></path> <path d="M138.18 148H144.46L154.46 171.69H147.46L145.75 167.49H136.7L135.02 171.69H128.17L138.18 148ZM143.89 162.42L141.27 155.73L138.62 162.42H143.89Z" fill="#1168D3"></path> <path d="M156.76 148.15H167.88C171.48 148.15 173.96 149.09 175.54 150.67C176.399 151.619 177.019 152.758 177.35 153.994C177.681 155.23 177.713 156.527 177.444 157.778C177.174 159.029 176.61 160.198 175.799 161.187C174.988 162.177 173.953 162.96 172.78 163.47L178.39 171.67H170.86L166.12 164.55H163.26V171.67H156.74L156.76 148.15ZM167.58 159.44C169.8 159.44 171.07 158.36 171.07 156.58C171.07 154.8 169.73 153.79 167.54 153.79H163.27V159.44H167.58Z" fill="#1168D3"></path> <path d="M180.91 148.15H199.83V153.69H187.36V157.25H198.65V162.39H187.36V166.12H200V171.66H180.91V148.15Z" fill="#1168D3"></path> </g> <defs> <clipPath id="clip0_646_42"> <rect width="200" height="172.15" fill="white"></rect> </clipPath> </defs> </svg> 