<?xml version="1.0" encoding="UTF-8"?> <svg xmlns="http://www.w3.org/2000/svg" width="250" height="48" viewBox="0 0 250 48" fill="none"> <path d="M174.677 10.0762C174.414 10.0762 174.157 10.1013 173.894 10.1156V16.3626C174.152 16.3393 174.414 16.3259 174.677 16.3259C176.992 16.3259 179.173 17.2185 180.819 18.8692C182.466 20.5199 183.358 22.7056 183.358 25.0275C183.358 27.3476 182.466 29.5351 180.819 31.1858C179.173 32.7926 176.992 33.7317 174.677 33.7317C172.363 33.7317 170.182 32.7935 168.534 31.1858C167.132 29.7797 166.282 27.9821 166.062 26.0455H159.816C160.34 33.8249 166.785 39.9779 174.677 39.9779C182.913 39.9779 189.588 33.2855 189.588 25.0275C189.588 16.7713 182.913 10.0762 174.677 10.0762Z" fill="#3386D9"></path> <path d="M23.6145 10.9727V39.98H16.6699V10.9727H23.6145Z" fill="#3386D9"></path> <path d="M71.6833 17.9339V39.98H64.7387V17.9339H57.2168V10.9727H79.2061V17.9339H71.6833V17.9339Z" fill="#3386D9"></path> <path d="M88.4252 33.733H101.69V39.9791H81.4824V10.9727H101.69V17.2206H88.4252V22.351H99.6871V28.5998H88.4252V33.733Z" fill="#3386D9"></path> <path d="M122.701 25.4759L132.27 35.0709L127.329 39.98L117.759 30.385L112.862 25.4759L103.293 15.8817L108.233 10.9727L117.76 20.522L127.33 10.9727L132.271 15.8817L122.701 25.4759Z" fill="#3386D9"></path> <path d="M140.541 39.131C139.115 38.5503 137.959 37.7017 136.891 36.7661C133.508 33.6413 133.953 29.4921 133.953 29.0906L140.052 29.1802V29.1354C140.052 29.1354 140.052 30.7843 140.763 31.8588C141.652 33.1959 143.301 33.8662 145.704 33.8662C149.709 33.8662 151.492 32.8392 151.492 31.1428C151.492 29.3586 149.221 28.242 145.526 27.8405C143.256 27.5735 141.255 27.0815 139.651 26.4138C138.139 25.7874 136.891 24.9415 135.956 23.9136C134.622 22.4412 133.953 20.7009 133.953 18.7375C133.953 16.0159 135.022 14.185 135.956 13.1132C138.003 10.7913 141.297 9.58691 145.839 9.58691C151.803 9.58691 154.741 12.2207 156.166 14.4064C157.678 16.7713 157.767 19.4947 157.767 19.941H151.669V19.9858C151.669 19.9858 151.714 18.6461 151.002 17.7087C150.11 16.4595 148.332 15.7013 145.839 15.7013C143.256 15.7013 140.274 16.3698 140.274 18.3333C140.274 20.208 142.232 21.3237 146.194 21.77C150.6 22.2611 153.851 23.6448 155.807 25.9201C157.099 27.4372 157.766 29.2224 157.766 31.141C157.766 32.0784 157.766 34.4451 155.853 36.586C154.873 37.7008 153.537 38.5494 151.891 39.1302C150.199 39.7091 148.152 39.9779 145.704 39.9779C143.791 39.9788 142.054 39.71 140.541 39.131Z" fill="#3386D9"></path> <path d="M198.532 17.2206V22.351H206.678V28.5998H198.532V39.9791H191.588V10.9727H195.059H198.532H209.483V17.2206H198.532Z" fill="#3386D9"></path> <path d="M227.664 17.9339V39.98H220.719V17.9339H213.195V10.9727H235.186V17.9339H227.664V17.9339Z" fill="#3386D9"></path> <path d="M46.7242 10.9727V25.7877L28.2402 11.5139V21.5275L53.6669 39.98V10.9727H46.7242Z" fill="#3386D9"></path> </svg> 