<?xml version="1.0" encoding="UTF-8"?> <svg xmlns="http://www.w3.org/2000/svg" width="1600" height="640" viewBox="0 0 1600 640" fill="none"> <path fill-rule="evenodd" clip-rule="evenodd" d="M671.219 104.041C660.803 109.701 652.635 117.129 646.717 126.326V98.3808H585.992V389.863H586.013V409.313C579.858 400.116 571.335 392.805 560.445 387.381C549.792 381.957 537.955 379.245 524.934 379.245C508.599 379.245 493.802 383.372 480.545 391.626C467.287 399.88 456.752 411.672 448.94 427C441.364 442.329 437.576 460.134 437.576 480.415C437.576 500.696 441.364 518.619 448.94 534.184C456.752 549.513 467.287 561.422 480.545 569.912C493.802 578.166 508.599 582.293 524.934 582.293C538.902 582.293 551.094 579.463 561.511 573.803C572.164 568.143 580.332 560.596 586.013 551.163V579.463H646.738V317.694H646.717V268.176C652.635 277.138 660.803 284.448 671.219 290.108C681.873 295.768 694.065 298.598 707.796 298.598C724.131 298.598 738.928 294.471 752.185 286.217C765.443 277.727 775.859 265.818 783.435 250.489C791.248 234.925 795.154 217.002 795.154 196.721C795.154 176.44 791.248 158.635 783.435 143.306C775.859 127.977 765.443 116.186 752.185 107.932C738.928 99.6779 724.131 95.5509 707.796 95.5509C693.828 95.5509 681.636 98.3808 671.219 104.041ZM720.58 161.347C729.103 169.836 733.364 181.628 733.364 196.721C733.364 211.814 729.103 223.841 720.58 232.802C712.057 241.528 701.759 245.891 689.685 245.891C677.611 245.891 667.313 241.528 658.79 232.802C650.505 224.077 646.362 212.167 646.362 197.074C646.362 181.982 650.505 170.072 658.79 161.347C667.313 152.621 677.611 148.258 689.685 148.258C701.996 148.258 712.294 152.621 720.58 161.347ZM573.229 445.041C581.752 453.767 586.013 465.676 586.013 480.769C586.013 495.862 581.752 507.771 573.229 516.497C564.943 525.222 554.763 529.585 542.69 529.585C530.616 529.585 520.317 525.222 511.795 516.497C503.509 507.535 499.366 495.508 499.366 480.415C499.366 465.322 503.509 453.531 511.795 445.041C520.317 436.316 530.616 431.953 542.69 431.953C554.763 431.953 564.943 436.316 573.229 445.041Z" fill="white" fill-opacity="0.2"></path> <path fill-rule="evenodd" clip-rule="evenodd" d="M671.219 104.041C660.803 109.701 652.635 117.129 646.717 126.326V98.3808H585.992V389.863H586.013V409.313C579.858 400.116 571.335 392.805 560.445 387.381C549.792 381.957 537.955 379.245 524.934 379.245C508.599 379.245 493.802 383.372 480.545 391.626C467.287 399.88 456.752 411.672 448.94 427C441.364 442.329 437.576 460.134 437.576 480.415C437.576 500.696 441.364 518.619 448.94 534.184C456.752 549.513 467.287 561.422 480.545 569.912C493.802 578.166 508.599 582.293 524.934 582.293C538.902 582.293 551.094 579.463 561.511 573.803C572.164 568.143 580.332 560.596 586.013 551.163V579.463H646.738V317.694H646.717V268.176C652.635 277.138 660.803 284.448 671.219 290.108C681.873 295.768 694.065 298.598 707.796 298.598C724.131 298.598 738.928 294.471 752.185 286.217C765.443 277.727 775.859 265.818 783.435 250.489C791.248 234.925 795.154 217.002 795.154 196.721C795.154 176.44 791.248 158.635 783.435 143.306C775.859 127.977 765.443 116.186 752.185 107.932C738.928 99.6779 724.131 95.5509 707.796 95.5509C693.828 95.5509 681.636 98.3808 671.219 104.041ZM720.58 161.347C729.103 169.836 733.364 181.628 733.364 196.721C733.364 211.814 729.103 223.841 720.58 232.802C712.057 241.528 701.759 245.891 689.685 245.891C677.611 245.891 667.313 241.528 658.79 232.802C650.505 224.077 646.362 212.167 646.362 197.074C646.362 181.982 650.505 170.072 658.79 161.347C667.313 152.621 677.611 148.258 689.685 148.258C701.996 148.258 712.294 152.621 720.58 161.347ZM573.229 445.041C581.752 453.767 586.013 465.676 586.013 480.769C586.013 495.862 581.752 507.771 573.229 516.497C564.943 525.222 554.763 529.585 542.69 529.585C530.616 529.585 520.317 525.222 511.795 516.497C503.509 507.535 499.366 495.508 499.366 480.415C499.366 465.322 503.509 453.531 511.795 445.041C520.317 436.316 530.616 431.953 542.69 431.953C554.763 431.953 564.943 436.316 573.229 445.041Z" fill="#2D2D2D"></path> <path d="M887.736 295.768V34H827.011V295.768H887.736Z" fill="white" fill-opacity="0.2"></path> <path d="M887.736 295.768V34H827.011V295.768H887.736Z" fill="#2D2D2D"></path> <path fill-rule="evenodd" clip-rule="evenodd" d="M931.032 143.306C923.456 158.635 919.668 176.44 919.668 196.721C919.668 217.002 923.456 234.925 931.032 250.489C938.844 265.818 949.379 277.727 962.637 286.217C975.894 294.471 990.572 298.598 1006.67 298.598C1020.64 298.598 1032.83 295.768 1043.25 290.108C1053.9 284.448 1062.19 277.02 1068.11 267.823V295.768H1128.83V98.3808H1068.11V126.326C1062.42 117.129 1054.26 109.701 1043.6 104.041C1033.19 98.3808 1020.99 95.5509 1007.03 95.5509C990.691 95.5509 975.894 99.6779 962.637 107.932C949.379 116.186 938.844 127.977 931.032 143.306ZM1055.32 161.347C1063.84 170.072 1068.11 181.982 1068.11 197.074C1068.11 212.167 1063.84 224.077 1055.32 232.802C1047.04 241.528 1036.86 245.891 1024.78 245.891C1012.71 245.891 1002.41 241.528 993.887 232.802C985.601 223.841 981.458 211.814 981.458 196.721C981.458 181.628 985.601 169.836 993.887 161.347C1002.41 152.621 1012.71 148.258 1024.78 148.258C1036.86 148.258 1047.04 152.621 1055.32 161.347Z" fill="white" fill-opacity="0.2"></path> <path fill-rule="evenodd" clip-rule="evenodd" d="M931.032 143.306C923.456 158.635 919.668 176.44 919.668 196.721C919.668 217.002 923.456 234.925 931.032 250.489C938.844 265.818 949.379 277.727 962.637 286.217C975.894 294.471 990.572 298.598 1006.67 298.598C1020.64 298.598 1032.83 295.768 1043.25 290.108C1053.9 284.448 1062.19 277.02 1068.11 267.823V295.768H1128.83V98.3808H1068.11V126.326C1062.42 117.129 1054.26 109.701 1043.6 104.041C1033.19 98.3808 1020.99 95.5509 1007.03 95.5509C990.691 95.5509 975.894 99.6779 962.637 107.932C949.379 116.186 938.844 127.977 931.032 143.306ZM1055.32 161.347C1063.84 170.072 1068.11 181.982 1068.11 197.074C1068.11 212.167 1063.84 224.077 1055.32 232.802C1047.04 241.528 1036.86 245.891 1024.78 245.891C1012.71 245.891 1002.41 241.528 993.887 232.802C985.601 223.841 981.458 211.814 981.458 196.721C981.458 181.628 985.601 169.836 993.887 161.347C1002.41 152.621 1012.71 148.258 1024.78 148.258C1036.86 148.258 1047.04 152.621 1055.32 161.347Z" fill="#2D2D2D"></path> <path d="M1250.89 389.509L1375.18 98.3808H1309.48L1264.02 221.836L1218.22 98.3808H1150.39L1231 289.047L1185.54 389.509H1250.89Z" fill="white" fill-opacity="0.2"></path> <path d="M1250.89 389.509L1375.18 98.3808H1309.48L1264.02 221.836L1218.22 98.3808H1150.39L1231 289.047L1185.54 389.509H1250.89Z" fill="#2D2D2D"></path> <path d="M1431.58 289.755C1445.07 295.65 1460.46 298.598 1477.74 298.598C1493.84 298.598 1507.93 296.004 1520 290.816C1532.31 285.628 1541.66 278.553 1548.06 269.591C1554.69 260.394 1558 250.018 1558 238.462C1557.76 224.784 1554.09 213.936 1546.99 205.918C1540.13 197.664 1532.08 191.768 1522.84 188.231C1513.61 184.458 1501.66 180.684 1486.98 176.911C1474.19 174.081 1464.72 171.251 1458.57 168.421C1452.65 165.592 1449.69 161.347 1449.69 155.687C1449.69 150.97 1451.58 147.315 1455.37 144.721C1459.16 141.891 1464.61 140.476 1471.71 140.476C1479.99 140.476 1486.62 142.48 1491.59 146.49C1496.8 150.499 1499.88 155.923 1500.83 162.762H1556.93C1554.8 142.48 1546.52 126.208 1532.08 113.945C1517.87 101.682 1498.34 95.5509 1473.48 95.5509C1456.67 95.5509 1442.11 98.2629 1429.8 103.687C1417.73 109.111 1408.5 116.54 1402.11 125.973C1395.95 135.17 1392.87 145.428 1392.87 156.748C1392.87 170.19 1396.31 180.92 1403.17 188.938C1410.04 196.721 1418.2 202.499 1427.67 206.272C1437.14 209.809 1448.98 213.229 1463.18 216.53C1476.44 219.832 1486.03 222.898 1491.95 225.727C1497.87 228.322 1500.83 232.449 1500.83 238.108C1500.83 242.825 1498.7 246.716 1494.43 249.782C1490.41 252.612 1484.61 254.027 1477.03 254.027C1468.75 254.027 1461.76 251.904 1456.08 247.659C1450.4 243.415 1447.2 237.873 1446.49 231.034H1386.48C1387.43 243.768 1391.81 255.324 1399.62 265.7C1407.43 275.841 1418.09 283.859 1431.58 289.755Z" fill="white" fill-opacity="0.2"></path> <path d="M1431.58 289.755C1445.07 295.65 1460.46 298.598 1477.74 298.598C1493.84 298.598 1507.93 296.004 1520 290.816C1532.31 285.628 1541.66 278.553 1548.06 269.591C1554.69 260.394 1558 250.018 1558 238.462C1557.76 224.784 1554.09 213.936 1546.99 205.918C1540.13 197.664 1532.08 191.768 1522.84 188.231C1513.61 184.458 1501.66 180.684 1486.98 176.911C1474.19 174.081 1464.72 171.251 1458.57 168.421C1452.65 165.592 1449.69 161.347 1449.69 155.687C1449.69 150.97 1451.58 147.315 1455.37 144.721C1459.16 141.891 1464.61 140.476 1471.71 140.476C1479.99 140.476 1486.62 142.48 1491.59 146.49C1496.8 150.499 1499.88 155.923 1500.83 162.762H1556.93C1554.8 142.48 1546.52 126.208 1532.08 113.945C1517.87 101.682 1498.34 95.5509 1473.48 95.5509C1456.67 95.5509 1442.11 98.2629 1429.8 103.687C1417.73 109.111 1408.5 116.54 1402.11 125.973C1395.95 135.17 1392.87 145.428 1392.87 156.748C1392.87 170.19 1396.31 180.92 1403.17 188.938C1410.04 196.721 1418.2 202.499 1427.67 206.272C1437.14 209.809 1448.98 213.229 1463.18 216.53C1476.44 219.832 1486.03 222.898 1491.95 225.727C1497.87 228.322 1500.83 232.449 1500.83 238.108C1500.83 242.825 1498.7 246.716 1494.43 249.782C1490.41 252.612 1484.61 254.027 1477.03 254.027C1468.75 254.027 1461.76 251.904 1456.08 247.659C1450.4 243.415 1447.2 237.873 1446.49 231.034H1386.48C1387.43 243.768 1391.81 255.324 1399.62 265.7C1407.43 275.841 1418.09 283.859 1431.58 289.755Z" fill="#2D2D2D"></path> <path fill-rule="evenodd" clip-rule="evenodd" d="M876.393 495.272C877.103 489.141 877.458 483.245 877.458 477.585C877.458 457.776 873.197 440.443 864.674 425.585C856.388 410.728 844.788 399.291 829.873 391.273C814.958 383.254 797.913 379.245 778.737 379.245C759.087 379.245 741.687 383.372 726.535 391.626C711.384 399.88 699.547 411.672 691.024 427C682.738 442.329 678.595 460.252 678.595 480.769C678.595 501.286 682.856 519.209 691.379 534.538C699.902 549.866 711.739 561.658 726.89 569.912C742.042 578.166 759.324 582.293 778.737 582.293C794.835 582.293 809.395 579.345 822.416 573.449C835.437 567.553 846.208 559.417 854.731 549.041C863.491 538.665 869.527 526.991 872.842 514.021H808.211C802.293 526.755 791.758 533.123 776.606 533.123C766.426 533.123 757.785 529.939 750.683 523.572C743.818 516.968 739.911 507.535 738.964 495.272H876.393ZM804.66 436.905C811.762 443.037 815.314 451.291 815.314 461.667H739.319C740.977 450.819 745.238 442.447 752.104 436.551C759.206 430.656 767.847 427.708 778.027 427.708C788.68 427.708 797.558 430.774 804.66 436.905Z" fill="white" fill-opacity="0.2"></path> <path fill-rule="evenodd" clip-rule="evenodd" d="M876.393 495.272C877.103 489.141 877.458 483.245 877.458 477.585C877.458 457.776 873.197 440.443 864.674 425.585C856.388 410.728 844.788 399.291 829.873 391.273C814.958 383.254 797.913 379.245 778.737 379.245C759.087 379.245 741.687 383.372 726.535 391.626C711.384 399.88 699.547 411.672 691.024 427C682.738 442.329 678.595 460.252 678.595 480.769C678.595 501.286 682.856 519.209 691.379 534.538C699.902 549.866 711.739 561.658 726.89 569.912C742.042 578.166 759.324 582.293 778.737 582.293C794.835 582.293 809.395 579.345 822.416 573.449C835.437 567.553 846.208 559.417 854.731 549.041C863.491 538.665 869.527 526.991 872.842 514.021H808.211C802.293 526.755 791.758 533.123 776.606 533.123C766.426 533.123 757.785 529.939 750.683 523.572C743.818 516.968 739.911 507.535 738.964 495.272H876.393ZM804.66 436.905C811.762 443.037 815.314 451.291 815.314 461.667H739.319C740.977 450.819 745.238 442.447 752.104 436.551C759.206 430.656 767.847 427.708 778.027 427.708C788.68 427.708 797.558 430.774 804.66 436.905Z" fill="#2D2D2D"></path> <path d="M1041.6 382.075L998.627 522.864L955.658 382.075H890.672L960.985 579.463H1035.91L1106.23 382.075H1041.6Z" fill="white" fill-opacity="0.2"></path> <path d="M1041.6 382.075L998.627 522.864L955.658 382.075H890.672L960.985 579.463H1035.91L1106.23 382.075H1041.6Z" fill="#2D2D2D"></path> <path d="M169.13 397.049C169.5 394.144 167.203 391.578 164.233 391.578H45.9431C42.1533 391.578 39.7773 387.543 41.6576 384.3L215.677 84.1435C218.354 79.5254 225.532 81.8853 224.86 87.1629L198.936 290.76C198.566 293.665 200.863 296.231 203.833 296.231H322.123C325.912 296.231 328.288 300.266 326.408 303.509L152.389 603.665C149.711 608.284 142.534 605.924 143.206 600.646L169.13 397.049Z" fill="white" fill-opacity="0.2"></path> <path d="M169.13 397.049C169.5 394.144 167.203 391.578 164.233 391.578H45.9431C42.1533 391.578 39.7773 387.543 41.6576 384.3L215.677 84.1435C218.354 79.5254 225.532 81.8853 224.86 87.1629L198.936 290.76C198.566 293.665 200.863 296.231 203.833 296.231H322.123C325.912 296.231 328.288 300.266 326.408 303.509L152.389 603.665C149.711 608.284 142.534 605.924 143.206 600.646L169.13 397.049Z" fill="#2D2D2D"></path> </svg> 