<?xml version="1.0" encoding="UTF-8"?> <svg xmlns="http://www.w3.org/2000/svg" class="svg-icon svg-icon-brandlogo-white logo__img" id="Слой_1" viewBox="0 0 164.4 52"> <path d="M30.2 50.4l2.7-4.8h9.4l1.1 4.8H48l-5-22.7h-4.8L25.3 50.4h4.9zm5-9l4.5-8.1 1.8 8.1h-6.3zM52.2 33.3l-3.5 17.2h4l1.8-8.7c.4-1.8.9-3.2 1.7-4 .8-.9 1.8-1.3 3.1-1.3.9 0 1.6.2 2 .7.5.5.7 1.2.7 2.1 0 .3 0 .7-.1 1 0 .3-.1.7-.2 1.1l-1.8 9.1h4.2l1.5-7.8c.2-.9.3-1.8.4-2.5.1-.7.2-1.2.2-1.6 0-1.9-.5-3.3-1.6-4.2S62 33 59.9 33c-.8 0-1.6.2-2.4.5-.7.3-1.5.8-2.1 1.5l.4-1.6c-.1-.1-3.6-.1-3.6-.1zM83.8 50.4l4.4-22.7h-4.1l-1.5 7.8c-.7-.9-1.6-1.5-2.6-1.9s-2-.7-3.2-.7c-1.5 0-2.9.3-4.2 1-1.3.6-2.4 1.6-3.2 2.8-.7.9-1.1 1.8-1.5 2.8-.3 1-.5 2-.5 3 0 2.5.7 4.6 2.2 6.1s3.4 2.3 5.8 2.3c.9 0 1.7-.1 2.4-.4.7-.3 1.4-.7 2-1.2l-.2 1.2 4.2-.1zm-3.5-12.6c.8.9 1.3 2 1.3 3.3 0 1.7-.5 3.1-1.6 4.2S77.6 47 76.1 47c-1.4 0-2.5-.4-3.3-1.3-.8-.9-1.2-2-1.2-3.4 0-1.6.6-3 1.6-4.2 1.1-1.1 2.4-1.7 3.9-1.7 1.3.1 2.3.5 3.2 1.4zM93.4 37.5c.8-.6 1.8-.9 2.9-.9 1.2 0 2.2.3 3 .9s1.4 1.4 1.6 2.5h-9.4c.4-1.1 1.1-1.9 1.9-2.5zm6.4 7.5c-.6.7-1.2 1.2-1.9 1.6-.7.3-1.5.5-2.4.5-1.2 0-2.2-.3-2.9-1-.7-.7-1.3-1.6-1.5-2.9h13.7c.1-.4.1-.9.2-1.2 0-.4.1-.7.1-1 0-2.4-.8-4.4-2.4-6s-3.6-2.3-6-2.3c-1.2 0-2.3.2-3.4.6-1.1.4-2 1-2.8 1.7-1.1 1-1.9 2.1-2.5 3.4-.6 1.3-.9 2.7-.9 4.1 0 2.4.8 4.4 2.4 6s3.6 2.3 6 2.3c2.1 0 3.9-.5 5.4-1.5s2.7-2.4 3.4-4.3h-4.5zM109.3 50.4l1.7-8.7c.4-1.9 1-3.2 1.9-3.9.9-.7 2.2-1.1 4.1-1.1l.8-4h-.1c-1.3 0-2.4.2-3.4.7s-1.8 1.1-2.5 2.1l.5-2.3h-3.7l-3.5 17.2h4.2zM116.1 45.1v.3c0 1.7.5 3 1.6 4s2.6 1.5 4.5 1.5c1.7 0 3.2-.6 4.3-1.6 1.1-1.1 1.7-2.5 1.7-4.1 0-1-.3-1.8-.8-2.5s-1.5-1.5-2.9-2.4c-.1-.1-.3-.2-.5-.3-1.4-.8-2-1.6-2-2.1 0-.4.2-.7.5-1 .3-.3.7-.4 1.1-.4.5 0 .8.2 1.1.5.2.3.4.8.4 1.5h4.1V38c0-1.5-.5-2.8-1.5-3.7-1-1-2.3-1.4-3.9-1.4-1.7 0-3.1.5-4.2 1.6-1.1 1-1.7 2.3-1.7 3.8 0 .6.1 1.1.3 1.6.2.5.5 1 .9 1.5.2.2.8.7 1.9 1.3.6.3 1 .6 1.3.8.6.4 1.1.7 1.3 1.1.2.3.4.7.4 1.1 0 .5-.2.9-.5 1.2-.3.3-.7.5-1.2.5-.6 0-1.1-.2-1.5-.6-.3-.4-.5-1-.5-1.7V45h-4.2v.1zM136 37.5c.8-.6 1.8-.9 2.9-.9 1.2 0 2.2.3 3 .9.8.6 1.4 1.4 1.6 2.5h-9.4c.4-1.1 1-1.9 1.9-2.5zm6.4 7.5c-.6.7-1.2 1.2-1.9 1.6-.7.3-1.5.5-2.4.5-1.2 0-2.2-.3-2.9-1-.7-.7-1.3-1.6-1.5-2.9h13.7c.1-.4.1-.9.2-1.2 0-.4.1-.7.1-1 0-2.4-.8-4.4-2.4-6s-3.6-2.3-6-2.3c-1.2 0-2.3.2-3.4.6-1.1.4-2 1-2.8 1.7-1.1 1-1.9 2.1-2.5 3.4-.6 1.3-.9 2.7-.9 4.1 0 2.4.8 4.4 2.4 6s3.6 2.3 6 2.3c2.1 0 3.9-.5 5.4-1.5s2.7-2.4 3.4-4.3h-4.5zM150.4 33.3l-3.5 17.2h4l1.8-8.7c.4-1.8.9-3.2 1.7-4 .8-.9 1.8-1.3 3.1-1.3.9 0 1.6.2 2 .7.5.5.7 1.2.7 2.1 0 .3 0 .7-.1 1 0 .3-.1.7-.2 1.1l-1.8 9.1h4.2l1.5-7.8c.2-.9.3-1.8.4-2.5.1-.7.2-1.2.2-1.6 0-1.9-.5-3.3-1.6-4.2s-2.6-1.4-4.7-1.4c-.8 0-1.6.2-2.4.5-.7.3-1.5.8-2.1 1.5l.4-1.6c0-.1-3.6-.1-3.6-.1z" fill="#000"></path> <path fill="#feda00" d="M57.5 20.4c.5-2.8 2-7.4 6.1-12-6.6-.5-10.5 5.2-11.9 7.7-.3-2.8-.2-7.6 2.6-13.3-6.5 1.3-8.7 7.9-9.4 10.7-1-2.6-2.2-7.3-1.1-13.5-5.9 3-6.2 10-6.1 12.9C36 10.7 33.5 6.5 32.9.3c-4.8 4.6-3.2 11.3-2.3 14.1-2.3-1.7-5.7-5-8.1-10.8-3.4 5.7 0 11.8 1.6 14.2-2.6-1-6.9-3.2-10.7-8.2-1.7 6.4 3.2 11.3 5.4 13.2-2.8-.2-7.5-1.2-12.5-4.9.2 6.6 6.2 10 8.8 11.2-2.7.6-7.5 1-13.4-1.2 2 6.4 8.7 7.9 11.5 8.3-2.5 1.3-7 3-13.2 2.5 3.6 5.5 10.5 5.2 13.4 4.7-2 2-5.9 4.8-12 6.1 6.4 5.5 15.3.2 15.3.2 0 .1.1.1.1.2-1.1-2.8-1.7-5.9-1.7-9 0-13.7 11-24.7 24.6-24.7 8.9 0 16.7 5 21 12.3l.2.3s1.8-7.1 10.2-12.3c-6.2-2.5-11.6 1.9-13.6 3.9z"></path> </svg> 