<?xml version="1.0" encoding="UTF-8"?> <svg xmlns="http://www.w3.org/2000/svg" width="84" height="43" viewBox="0 0 84 43" fill="none"> <path d="M84 42.7315L62.6343 21.3658L84 6.23192e-05L71.9193 6.48198e-05L29.1878 42.7315L41.254 42.7315L56.5939 27.4061L71.9193 42.7315L84 42.7315Z" fill="url(#paint0_linear)"></path> <path d="M8.54629 34.1855L25.6389 34.1852L17.0926 42.7315L0 42.7318L8.54629 34.1855Z" fill="url(#paint1_linear)"></path> <path d="M8.54629 17.0928L42.7315 17.0926L34.1852 25.6389L1.76822e-06 25.6391L8.54629 17.0928Z" fill="url(#paint2_linear)"></path> <path d="M8.54629 0H59.8241L51.2778 8.54631L0 8.5463L8.54629 0Z" fill="url(#paint3_linear)"></path> <defs> <linearGradient id="paint0_linear" x1="0" y1="21.3802" x2="84.0145" y2="21.3802" gradientUnits="userSpaceOnUse"> <stop stop-color="#4A148C"></stop> <stop offset="1" stop-color="#D500F9"></stop> </linearGradient> <linearGradient id="paint1_linear" x1="0" y1="21.3802" x2="84.0145" y2="21.3802" gradientUnits="userSpaceOnUse"> <stop stop-color="#4A148C"></stop> <stop offset="1" stop-color="#D500F9"></stop> </linearGradient> <linearGradient id="paint2_linear" x1="0" y1="21.3802" x2="84.0145" y2="21.3802" gradientUnits="userSpaceOnUse"> <stop stop-color="#4A148C"></stop> <stop offset="1" stop-color="#D500F9"></stop> </linearGradient> <linearGradient id="paint3_linear" x1="0" y1="21.3802" x2="84.0145" y2="21.3802" gradientUnits="userSpaceOnUse"> <stop stop-color="#4A148C"></stop> <stop offset="1" stop-color="#D500F9"></stop> </linearGradient> </defs> </svg> 