<?xml version="1.0" encoding="UTF-8"?> <svg xmlns="http://www.w3.org/2000/svg" viewBox="0 0 100.87 126.74"> <defs> <style>.cls-1{fill:#3a7be0;}.cls-2{fill:#181b21;}</style> </defs> <g id="Layer_2" data-name="Layer 2"> <g id="Layer_1-2" data-name="Layer 1"> <polygon class="cls-1" points="50.6 116.31 50.6 125.23 75.73 102.68 100.86 125.23 100.86 116.31 75.73 93.77 50.6 116.31"></polygon> <polygon class="cls-1" points="50.6 92.98 50.6 101.89 75.73 79.35 100.86 101.89 100.86 92.98 75.73 70.43 50.6 92.98"></polygon> <polygon class="cls-1" points="50.6 69.82 50.6 76.96 52.22 77.29 75.73 56.19 100.86 78.74 100.86 69.82 75.73 47.27 50.6 69.82"></polygon> <polygon class="cls-1" points="91.61 46.92 100.87 55.22 100.87 46.92 91.61 46.92"></polygon> <polygon class="cls-1" points="67.12 126.55 85.38 126.55 75.73 117.89 67.15 125.59 67.12 126.55"></polygon> <path class="cls-2" d="M10.38,116.2a4.59,4.59,0,0,1-1.51,3.71,6.48,6.48,0,0,1-4.32,1.28H3.19v5.35H0v-15H4.8A6.37,6.37,0,0,1,9,112.69,4.27,4.27,0,0,1,10.38,116.2Zm-7.19,2.38h1A3.49,3.49,0,0,0,6.44,118a2.43,2.43,0,0,0,.11-3.34,2.81,2.81,0,0,0-1.91-.54H3.19Z"></path> <path class="cls-2" d="M21.87,126.54H13.22v-15h8.65v2.61H16.41v3.3h5.08V120H16.41v3.88h5.46Z"></path> <path class="cls-2" d="M38.65,119a8.18,8.18,0,0,1-1.85,5.74,6.84,6.84,0,0,1-5.31,2,6.83,6.83,0,0,1-5.3-2A8.2,8.2,0,0,1,24.34,119a8.06,8.06,0,0,1,1.86-5.73,6.93,6.93,0,0,1,5.32-2,6.82,6.82,0,0,1,5.29,2A8.14,8.14,0,0,1,38.65,119Zm-11,0a6.28,6.28,0,0,0,1,3.8,3.34,3.34,0,0,0,2.85,1.27q3.82,0,3.82-5.07c0-3.38-1.27-5.07-3.79-5.07a3.35,3.35,0,0,0-2.87,1.28A6.19,6.19,0,0,0,27.68,119Z"></path> <path class="cls-2" d="M52.15,116.2a4.6,4.6,0,0,1-1.52,3.71,6.46,6.46,0,0,1-4.31,1.28H45v5.35H41.76v-15h4.8a6.35,6.35,0,0,1,4.16,1.18A4.28,4.28,0,0,1,52.15,116.2ZM45,118.58h1a3.48,3.48,0,0,0,2.2-.58,2,2,0,0,0,.73-1.69,2.09,2.09,0,0,0-.61-1.65,2.86,2.86,0,0,0-1.92-.54H45Z"></path> <path class="cls-2" d="M55,126.54v-15h3.19v12.4h6.09v2.63Z"></path> <path class="cls-2" d="M75.53,126.54H66.88v-15h8.65v2.61H70.06v3.3h5.09V120H70.06v3.88h5.47Z"></path> <path class="cls-2" d="M28.93,71.24V94a13.19,13.19,0,0,1-1.75,6.85,11.45,11.45,0,0,1-5.05,4.51A18.14,18.14,0,0,1,14.32,107q-6.8,0-10.56-3.48T0,94V71.24H7.45V92.81c0,2.72.54,4.71,1.64,6s2.9,1.91,5.42,1.91,4.22-.64,5.32-1.92,1.65-3.28,1.65-6V71.24Z"></path> <path class="cls-2" d="M61.9,82.23q0,5.7-3.55,8.7T48.24,94H45v12.53H37.56V71.24H48.81q6.42,0,9.75,2.76T61.9,82.23ZM45,87.82h2.46a8.19,8.19,0,0,0,5.16-1.36,4.75,4.75,0,0,0,1.71-4,4.87,4.87,0,0,0-1.44-3.88,6.67,6.67,0,0,0-4.49-1.26H45Z"></path> <path class="cls-2" d="M66.94,103A4,4,0,0,1,68,100a4.38,4.38,0,0,1,3.15-1,4.26,4.26,0,0,1,3.1,1.06,4.68,4.68,0,0,1,0,6,4.21,4.21,0,0,1-3.09,1.09,4.29,4.29,0,0,1-3.13-1.07A4,4,0,0,1,66.94,103Zm7.21-8.24H68.27L67,71.24h8.34Z"></path> <path class="cls-2" d="M0,66.5V47H4.13V63.09H12V66.5Z"></path> <path class="cls-2" d="M26.61,66.5H15.4V47H26.61v3.38H19.53v4.27h6.59v3.38H19.53v5h7.08Z"></path> <path class="cls-2" d="M41.77,47h4.17L39.32,66.5h-4.5L28.22,47h4.17l3.66,11.58c.2.68.41,1.48.63,2.39s.35,1.54.4,1.89a34.45,34.45,0,0,1,1-4.28Z"></path> <path class="cls-2" d="M59.59,66.5H48.39V47h11.2v3.38H52.51v4.27H59.1v3.38H52.51v5h7.08Z"></path> <path class="cls-2" d="M63.65,66.5V47h4.13V63.09h7.89V66.5Z"></path> <path class="cls-2" d="M64.88,19.65a3.62,3.62,0,0,1-1.39.93,5.35,5.35,0,0,1-1.82.31,3.33,3.33,0,0,1-2.61-1,4.55,4.55,0,0,1-1-3V15.06A4.79,4.79,0,0,1,59,12a3.08,3.08,0,0,1,2.56-1.09,3.33,3.33,0,0,1,2.4.78,3.67,3.67,0,0,1,.93,2.46H63a2.34,2.34,0,0,0-.39-1.27,1.24,1.24,0,0,0-1-.34,1.26,1.26,0,0,0-1.15.58,3.64,3.64,0,0,0-.38,1.86v1.77a3.6,3.6,0,0,0,.4,1.94,1.45,1.45,0,0,0,1.31.6,1.74,1.74,0,0,0,.94-.23l.18-.12V17.11H61.53V15.62h3.35Z"></path> <path class="cls-2" d="M70.6,17.19h-1v3.56h-2V11H70.8a3.19,3.19,0,0,1,2.28.77A2.86,2.86,0,0,1,73.89,14a2.85,2.85,0,0,1-1.41,2.72l1.7,4v.09H72.07Zm-1-1.64h1.12a1.06,1.06,0,0,0,.89-.39,1.74,1.74,0,0,0,.29-1.05q0-1.47-1.14-1.47H69.62Z"></path> <path class="cls-2" d="M83.21,16.75a4.54,4.54,0,0,1-.93,3.05,3.2,3.2,0,0,1-2.58,1.09,3.25,3.25,0,0,1-2.58-1.08,4.5,4.5,0,0,1-1-3V15.13A4.77,4.77,0,0,1,77.1,12a3.52,3.52,0,0,1,5.15,0,4.68,4.68,0,0,1,1,3.11Zm-2-1.63a4,4,0,0,0-.38-2,1.25,1.25,0,0,0-1.16-.65,1.27,1.27,0,0,0-1.16.62A3.87,3.87,0,0,0,78.14,15v1.73a3.67,3.67,0,0,0,.38,1.89,1.32,1.32,0,0,0,1.18.61,1.26,1.26,0,0,0,1.15-.6,3.48,3.48,0,0,0,.38-1.84Z"></path> <path class="cls-2" d="M92.06,11v6.75a3.16,3.16,0,0,1-.84,2.33,3.23,3.23,0,0,1-2.36.81,3.29,3.29,0,0,1-2.4-.82,3.17,3.17,0,0,1-.82-2.36V11h2v6.71a2,2,0,0,0,.27,1.19,1.15,1.15,0,0,0,1,.35,1.1,1.1,0,0,0,1-.35,1.91,1.91,0,0,0,.27-1.15V11Z"></path> <path class="cls-2" d="M96.34,17.32v3.43h-2V11H97.7a3,3,0,0,1,2.3.9,3.2,3.2,0,0,1,.87,2.33,3,3,0,0,1-.85,2.26,3.22,3.22,0,0,1-2.36.83Zm0-1.64H97.7a1.07,1.07,0,0,0,.87-.37,1.64,1.64,0,0,0,.31-1.07,1.94,1.94,0,0,0-.32-1.16,1,1,0,0,0-.84-.44H96.34Z"></path> <path class="cls-2" d="M2,19.12H5.43v1.64H0V11H2Z"></path> <path class="cls-2" d="M13.25,16.54H10.18v2.58h3.63v1.64H8.21V11H13.8v1.65H10.18V15h3.07Z"></path> <path class="cls-2" d="M20,18.08,21.61,11h2.2L21,20.76H19L16.15,11h2.19Z"></path> <path class="cls-2" d="M31.2,16.54H28.13v2.58h3.63v1.64h-5.6V11h5.59v1.65H28.13V15H31.2Z"></path> <path class="cls-2" d="M37.5,17.19h-1v3.57h-2V11h3.14a3.2,3.2,0,0,1,2.29.77,2.89,2.89,0,0,1,.8,2.18,2.84,2.84,0,0,1-1.41,2.72l1.71,4v.1H39Zm-1-1.64h1.12a1,1,0,0,0,.88-.39,1.68,1.68,0,0,0,.29-1.05c0-1-.38-1.46-1.14-1.46H36.52Z"></path> <path class="cls-2" d="M46.84,14.35,48.15,11h2.26l-2.29,4.84,2.34,4.92H48.18l-1.34-3.41L45.5,20.76H43.22l2.34-4.92L43.27,11h2.25Z"></path> <rect class="cls-2" width="100.87" height="1"></rect> <rect class="cls-2" y="31.02" width="100.87" height="1"></rect> </g> </g> </svg> 