<svg width="133" height="42" viewBox="0 0 133 42" fill="none" xmlns="http://www.w3.org/2000/svg">
<path d="M18.294 18.588L21.878 7.5H23.894L20.31 18.588H18.294Z" fill="#1CA5D3"/>
<path d="M30.5875 18V9.614H27.3255V8.06H35.6555V9.614H32.3935V18H30.5875ZM35.5503 18V10.86H37.2583V12.092C37.2583 12.358 37.2303 12.596 37.2303 12.596H37.2583C37.5803 11.574 38.4343 10.762 39.5263 10.762C39.6943 10.762 39.8483 10.79 39.8483 10.79V12.54C39.8483 12.54 39.6663 12.512 39.4283 12.512C38.6723 12.512 37.8183 12.946 37.4823 14.01C37.3703 14.36 37.3283 14.752 37.3283 15.172V18H35.5503ZM40.4444 15.942C40.4444 13.674 43.5104 13.52 44.6724 13.52H44.9104V13.422C44.9104 12.484 44.3224 12.162 43.5384 12.162C42.5164 12.162 41.5784 12.848 41.5784 12.848L40.9064 11.574C40.9064 11.574 42.0124 10.692 43.7064 10.692C45.5824 10.692 46.6744 11.728 46.6744 13.534V18H45.0364V17.412C45.0364 17.132 45.0644 16.908 45.0644 16.908H45.0364C45.0504 16.908 44.4904 18.168 42.8664 18.168C41.5924 18.168 40.4444 17.37 40.4444 15.942ZM42.2364 15.858C42.2364 16.334 42.5864 16.782 43.3144 16.782C44.2524 16.782 44.9244 15.774 44.9244 14.906V14.738H44.6164C43.7064 14.738 42.2364 14.864 42.2364 15.858ZM48.5249 9.642V8.06H50.2889V9.642H48.5249ZM48.5249 18V10.86H50.3029V18H48.5249ZM52.2573 18V10.86H53.9653V11.686C53.9653 11.952 53.9373 12.176 53.9373 12.176H53.9653C54.2733 11.574 55.0573 10.692 56.4993 10.692C58.0813 10.692 58.9773 11.518 58.9773 13.408V18H57.2133V13.772C57.2133 12.904 56.9893 12.316 56.0793 12.316C55.1273 12.316 54.4273 12.918 54.1613 13.772C54.0633 14.066 54.0353 14.388 54.0353 14.724V18H52.2573ZM60.8433 9.642V8.06H62.6073V9.642H60.8433ZM60.8433 18V10.86H62.6213V18H60.8433ZM64.5757 18V10.86H66.2837V11.686C66.2837 11.952 66.2557 12.176 66.2557 12.176H66.2837C66.5917 11.574 67.3757 10.692 68.8177 10.692C70.3997 10.692 71.2957 11.518 71.2957 13.408V18H69.5317V13.772C69.5317 12.904 69.3077 12.316 68.3977 12.316C67.4457 12.316 66.7457 12.918 66.4797 13.772C66.3817 14.066 66.3537 14.388 66.3537 14.724V18H64.5757ZM73.8896 18.966C73.8896 18.966 74.7856 19.428 75.8636 19.428C76.9556 19.428 77.8796 18.966 77.8796 17.692V17.272C77.8796 17.104 77.9076 16.894 77.9076 16.894H77.8796C77.4596 17.524 76.8436 17.86 75.8916 17.86C73.8476 17.86 72.6856 16.208 72.6856 14.248C72.6856 12.288 73.7916 10.692 75.8496 10.692C77.4036 10.692 77.9636 11.602 77.9636 11.602H78.0056C78.0056 11.602 77.9916 11.518 77.9916 11.406V10.86H79.6576V17.566C79.6576 20.016 77.7536 20.94 75.8916 20.94C74.9956 20.94 74.0436 20.688 73.3576 20.324L73.8896 18.966ZM76.2696 16.362C77.1236 16.362 77.9216 15.872 77.9216 14.262C77.9216 12.638 77.1236 12.204 76.1576 12.204C75.0796 12.204 74.4776 12.988 74.4776 14.192C74.4776 15.438 75.1216 16.362 76.2696 16.362ZM22.5298 29.016C22.5298 26.16 24.6578 23.99 27.4718 23.99C29.8238 23.99 31.0138 25.264 31.0138 25.264L30.4958 25.978C30.4958 25.978 29.3478 24.886 27.4998 24.886C25.1898 24.886 23.5378 26.678 23.5378 29.002C23.5378 31.354 25.1898 33.272 27.5278 33.272C29.5158 33.272 30.7198 31.956 30.7198 31.956L31.2798 32.642C31.2798 32.642 29.9358 34.168 27.5138 34.168C24.6018 34.168 22.5298 31.886 22.5298 29.016ZM32.6033 30.486C32.6033 28.176 34.1713 26.79 36.0753 26.79C38.0213 26.79 39.0153 28.288 39.0153 30.038C39.0153 30.206 38.9873 30.528 38.9873 30.528H33.5833C33.6253 32.334 34.8573 33.314 36.3133 33.314C37.6013 33.314 38.4553 32.46 38.4553 32.46L38.8893 33.188C38.8893 33.188 37.8673 34.168 36.2853 34.168C34.1853 34.168 32.6033 32.656 32.6033 30.486ZM33.6253 29.744H38.0493C37.9933 28.274 37.0973 27.588 36.0473 27.588C34.8713 27.588 33.8493 28.33 33.6253 29.744ZM40.8316 34V26.958H41.7696V28.008C41.7696 28.316 41.7416 28.568 41.7416 28.568H41.7696C42.0216 27.924 42.9176 26.79 44.5836 26.79C46.3196 26.79 46.9356 27.784 46.9356 29.52V34H45.9836V29.772C45.9836 28.666 45.8156 27.686 44.4576 27.686C43.2536 27.686 42.2176 28.512 41.8956 29.674C41.8116 29.968 41.7836 30.29 41.7836 30.626V34H40.8316ZM49.3964 31.438V27.84H48.4724V27.042H49.4104V25.012H50.3484V27.042H52.1124V27.84H50.3484V31.34C50.3484 32.992 51.3984 33.202 51.9304 33.202C52.1264 33.202 52.2524 33.174 52.2524 33.174V34.028C52.2524 34.028 52.0984 34.056 51.8464 34.056C51.0344 34.056 49.3964 33.79 49.3964 31.438ZM53.3299 30.486C53.3299 28.176 54.8979 26.79 56.8019 26.79C58.7479 26.79 59.7419 28.288 59.7419 30.038C59.7419 30.206 59.7139 30.528 59.7139 30.528H54.3099C54.3519 32.334 55.5839 33.314 57.0399 33.314C58.3279 33.314 59.1819 32.46 59.1819 32.46L59.6159 33.188C59.6159 33.188 58.5939 34.168 57.0119 34.168C54.9119 34.168 53.3299 32.656 53.3299 30.486ZM54.3519 29.744H58.7759C58.7199 28.274 57.8239 27.588 56.7739 27.588C55.5979 27.588 54.5759 28.33 54.3519 29.744ZM61.5582 34V26.958H62.4962V28.204C62.4962 28.512 62.4682 28.764 62.4682 28.764H62.4962C62.8322 27.7 63.6162 26.888 64.7222 26.888C64.9182 26.888 65.1002 26.93 65.1002 26.93V27.868C65.1002 27.868 64.9322 27.84 64.7502 27.84C63.7562 27.84 63.0142 28.624 62.7062 29.66C62.5662 30.108 62.5102 30.584 62.5102 31.032V34H61.5582Z" fill="#191F3D"/>
</svg>
