<svg width="278" height="42" viewBox="0 0 278 42" fill="none" xmlns="http://www.w3.org/2000/svg">
<path d="M19.8 27.5V13.3H28.3V15.52H22.38V19.24H27.16V21.46H22.38V25.28H28.62V27.5H19.8ZM31.3039 27.5V13.3H36.7839C39.4439 13.3 41.3039 15.16 41.3039 17.92C41.3039 20.68 39.4439 22.6 36.7839 22.6H33.8839V27.5H31.3039ZM33.8839 20.36H36.3039C37.8039 20.36 38.6839 19.4 38.6839 17.92C38.6839 16.46 37.8039 15.52 36.3439 15.52H33.8839V20.36ZM51.4194 27.5L50.2194 23.86H45.2394L44.0394 27.5H41.3794L46.3794 13.3H49.0794L54.0794 27.5H51.4194ZM47.7594 15.76H47.7194C47.7194 15.76 47.3994 17.16 47.1194 17.96L45.8594 21.76H49.5794L48.3194 17.96C48.0594 17.16 47.7594 15.76 47.7594 15.76ZM55.4538 27.5L56.6138 13.3H59.3737L62.1538 20.32C62.4738 21.16 62.8738 22.4 62.8738 22.4H62.9138C62.9138 22.4 63.2938 21.16 63.6138 20.32L66.3938 13.3H69.1538L70.2938 27.5H67.7338L67.1338 19.56C67.0738 18.62 67.1138 17.36 67.1138 17.36H67.0738C67.0738 17.36 66.6538 18.74 66.3138 19.56L64.0138 25.06H61.7538L59.4738 19.56C59.1338 18.74 58.6938 17.34 58.6938 17.34H58.6538C58.6538 17.34 58.6938 18.62 58.6338 19.56L58.0338 27.5H55.4538Z" fill="black"/>
<path d="M77.0556 28.34L82.1356 12.58H84.3156L79.2156 28.34H77.0556Z" fill="#1CA5D3"/>
<path d="M94.782 27.5V14.68H89.722V13.44H101.202V14.68H96.162V27.5H94.782ZM100.87 27.5V17.44H102.21V19.22C102.21 19.66 102.17 20.02 102.17 20.02H102.21C102.69 18.5 103.81 17.34 105.39 17.34C105.67 17.34 105.93 17.4 105.93 17.4V18.74C105.93 18.74 105.69 18.7 105.43 18.7C104.01 18.7 102.95 19.82 102.51 21.3C102.31 21.94 102.23 22.62 102.23 23.26V27.5H100.87ZM107.179 24.76C107.179 21.36 111.599 21.28 113.339 21.28H113.899V21.02C113.899 19.08 112.839 18.42 111.399 18.42C109.739 18.42 108.559 19.38 108.559 19.38L107.919 18.34C107.919 18.34 109.239 17.2 111.499 17.2C113.919 17.2 115.259 18.54 115.259 21.06V27.5H113.959V26.4C113.959 25.9 113.999 25.56 113.999 25.56H113.959C113.959 25.56 113.119 27.74 110.599 27.74C108.919 27.74 107.179 26.76 107.179 24.76ZM108.579 24.68C108.579 25.62 109.319 26.58 110.819 26.58C112.739 26.58 113.899 24.58 113.899 22.84V22.4H113.319C111.739 22.4 108.579 22.46 108.579 24.68ZM118.35 15.14V13.44H119.77V15.14H118.35ZM118.39 27.5V17.44H119.75V27.5H118.39ZM123.038 27.5V17.44H124.378V18.94C124.378 19.38 124.338 19.74 124.338 19.74H124.378C124.738 18.82 126.018 17.2 128.398 17.2C130.878 17.2 131.758 18.62 131.758 21.1V27.5H130.398V21.46C130.398 19.88 130.158 18.48 128.218 18.48C126.498 18.48 125.018 19.66 124.558 21.32C124.438 21.74 124.398 22.2 124.398 22.68V27.5H123.038ZM134.854 15.14V13.44H136.274V15.14H134.854ZM134.894 27.5V17.44H136.254V27.5H134.894ZM139.542 27.5V17.44H140.882V18.94C140.882 19.38 140.842 19.74 140.842 19.74H140.882C141.242 18.82 142.522 17.2 144.902 17.2C147.382 17.2 148.262 18.62 148.262 21.1V27.5H146.902V21.46C146.902 19.88 146.662 18.48 144.722 18.48C143.002 18.48 141.522 19.66 141.062 21.32C140.942 21.74 140.902 22.2 140.902 22.68V27.5H139.542ZM152.158 29.78C152.158 29.78 153.398 30.48 154.878 30.48C156.838 30.48 158.398 29.56 158.398 27.32V26.4C158.398 26.02 158.438 25.68 158.438 25.68H158.398C157.798 26.8 156.778 27.44 155.218 27.44C152.518 27.44 150.738 25.3 150.738 22.28C150.738 19.26 152.398 17.2 155.098 17.2C157.758 17.2 158.418 18.88 158.418 18.88H158.458C158.458 18.88 158.438 18.76 158.438 18.54V17.44H159.758V27.26C159.758 30.46 157.398 31.7 154.938 31.7C153.778 31.7 152.618 31.4 151.638 30.9L152.158 29.78ZM155.438 26.22C157.018 26.22 158.418 25.24 158.418 22.28C158.418 19.34 157.018 18.44 155.238 18.44C153.278 18.44 152.138 19.86 152.138 22.26C152.138 24.66 153.438 26.22 155.438 26.22ZM167.87 20.38C167.87 16.3 170.91 13.2 174.93 13.2C178.29 13.2 179.99 15.02 179.99 15.02L179.25 16.04C179.25 16.04 177.61 14.48 174.97 14.48C171.67 14.48 169.31 17.04 169.31 20.36C169.31 23.72 171.67 26.46 175.01 26.46C177.85 26.46 179.57 24.58 179.57 24.58L180.37 25.56C180.37 25.56 178.45 27.74 174.99 27.74C170.83 27.74 167.87 24.48 167.87 20.38ZM182.26 22.48C182.26 19.18 184.5 17.2 187.22 17.2C190 17.2 191.42 19.34 191.42 21.84C191.42 22.08 191.38 22.54 191.38 22.54H183.66C183.72 25.12 185.48 26.52 187.56 26.52C189.4 26.52 190.62 25.3 190.62 25.3L191.24 26.34C191.24 26.34 189.78 27.74 187.52 27.74C184.52 27.74 182.26 25.58 182.26 22.48ZM183.72 21.42H190.04C189.96 19.32 188.68 18.34 187.18 18.34C185.5 18.34 184.04 19.4 183.72 21.42ZM194.015 27.5V17.44H195.355V18.94C195.355 19.38 195.315 19.74 195.315 19.74H195.355C195.715 18.82 196.995 17.2 199.375 17.2C201.855 17.2 202.735 18.62 202.735 21.1V27.5H201.375V21.46C201.375 19.88 201.135 18.48 199.195 18.48C197.475 18.48 195.995 19.66 195.535 21.32C195.415 21.74 195.375 22.2 195.375 22.68V27.5H194.015ZM206.25 23.84V18.7H204.93V17.56H206.27V14.66H207.61V17.56H210.13V18.7H207.61V23.7C207.61 26.06 209.11 26.36 209.87 26.36C210.15 26.36 210.33 26.32 210.33 26.32V27.54C210.33 27.54 210.11 27.58 209.75 27.58C208.59 27.58 206.25 27.2 206.25 23.84ZM211.87 22.48C211.87 19.18 214.11 17.2 216.83 17.2C219.61 17.2 221.03 19.34 221.03 21.84C221.03 22.08 220.99 22.54 220.99 22.54H213.27C213.33 25.12 215.09 26.52 217.17 26.52C219.01 26.52 220.23 25.3 220.23 25.3L220.85 26.34C220.85 26.34 219.39 27.74 217.13 27.74C214.13 27.74 211.87 25.58 211.87 22.48ZM213.33 21.42H219.65C219.57 19.32 218.29 18.34 216.79 18.34C215.11 18.34 213.65 19.4 213.33 21.42ZM223.624 27.5V17.44H224.964V19.22C224.964 19.66 224.924 20.02 224.924 20.02H224.964C225.444 18.5 226.564 17.34 228.144 17.34C228.424 17.34 228.684 17.4 228.684 17.4V18.74C228.684 18.74 228.444 18.7 228.184 18.7C226.764 18.7 225.704 19.82 225.264 21.3C225.064 21.94 224.984 22.62 224.984 23.26V27.5H223.624Z" fill="#1D1E26"/>
</svg>
